<svg width="137" height="125" viewBox="0 0 137 125" fill="none" xmlns="http://www.w3.org/2000/svg">
<mask id="mask0" mask-type="alpha" maskUnits="userSpaceOnUse" x="10" y="0" width="125" height="125">
<rect x="10" width="125" height="125" fill="#E32121"/>
</mask>
<g mask="url(#mask0)">
</g>
<g clip-path="url(#clip0)">
<path d="M91.0862 47.4389C92.9453 49.2043 95.9649 49.3378 96.852 49.0344C97.5203 47.7422 98.1036 46.3893 98.5896 45C97.2773 45.4065 94.2516 44.8302 91.0862 47.4389Z" fill="#42AA47"/>
<path d="M44.7411 48.2032C46.4241 47.6815 48.1496 47.2993 49.8508 46.8443C53.7149 45.813 57.6762 45.4793 61.6497 45.3579C64.5903 45.2669 79.6336 46.0738 83.3519 45.3094C88.8079 44.181 95.6369 43.2953 96.9007 43.0344C97.7269 42.8645 98.5411 42.6765 99.3613 42.4823C99.4463 42.1426 99.5253 41.7968 99.5982 41.451C98.9907 41.5662 98.3831 41.6754 97.7695 41.7786C95.8435 42.1183 92.2953 42.0637 88.0727 40.723C84.2572 39.5157 78.3942 40.1406 75.0344 40.9535C71.31 41.8574 59.0736 43.5622 50.0026 43.4227C44.808 43.3377 41.8613 46.9474 40.0932 48.1062C40.3363 48.6158 40.5854 49.1133 40.8527 49.6107C42.165 49.1133 43.4409 48.6158 44.7411 48.2032Z" fill="#6BBF64"/>
<path d="M95.1569 51.0606C91.5602 49.1557 85.0653 47.7482 77.7866 47.4449C75.4232 47.3478 72.5312 48.3124 70.1738 48.4519C66.6257 48.6582 64.2379 47.7846 59.9789 48.185C55.89 48.5733 51.8922 49.7199 49.6199 50.2962C47.4509 50.8483 45.3183 51.5399 43.1615 52.1527C42.9488 52.2133 42.724 52.2679 42.4992 52.3225C42.6086 52.4803 42.7179 52.6259 42.8273 52.7836C43.0339 52.7411 43.2344 52.6926 43.441 52.6562C45.0388 52.3771 46.655 52.1891 48.2407 51.8311C55.7806 50.1324 65.9573 49.8958 68.1993 49.8594C72.7438 49.7866 80.7151 50.4297 82.7322 50.6906C84.7372 50.9454 86.7543 51.188 88.7289 51.6066C90.6367 52.0071 92.5201 52.5227 94.4096 53.0141C94.8228 52.4378 95.2238 51.8493 95.5944 51.2426C95.4547 51.1759 95.3028 51.1395 95.1569 51.0606Z" fill="#26832B"/>
<path d="M90.8797 57.1274C90.1688 57.1032 89.458 57.0728 88.7471 57.0789C87.6778 57.091 86.6085 57.1638 85.5392 57.2124C84.0567 57.2791 82.556 57.2366 81.0857 57.4308C78.7648 57.7341 76.4318 58.0799 74.1595 58.6138C71.6745 59.2023 69.4144 60.3549 67.4398 62.0112C66.1943 63.0546 64.4384 63.4672 62.0811 63.9586C61.6132 64.0556 60.0639 64.3408 58.5997 64.5349C61.7773 65.6027 65.1736 66.1911 68.7096 66.1911C77.3431 66.1851 85.1686 62.7331 90.8797 57.1274Z" fill="#326EA6"/>
<path d="M73.6916 55.9262C75.5143 55.3802 77.4099 54.9919 79.2995 54.7917C81.8512 54.5248 84.4334 54.4459 87.0034 54.3974C88.5952 54.367 90.1992 54.5612 91.791 54.6097C92.0401 54.6158 92.3014 54.361 92.5565 54.2214C92.5262 54.1668 91.1166 53.6269 90.0048 53.639C88.2246 53.6572 86.6085 53.73 84.9073 53.5966C82.7565 53.4267 80.6118 53.178 78.461 52.9717C76.936 52.8322 75.411 52.6502 73.88 52.6016C69.8579 52.4803 65.8297 52.3043 61.8137 52.3711C58.6483 52.4257 55.4647 52.7654 52.439 53.821C50.2031 54.6036 47.9977 55.4955 45.7922 56.3751C48.1374 58.8322 50.8715 60.907 53.8971 62.5147C55.4282 62.2963 56.9471 61.9565 58.4539 61.5561C61.8137 60.6582 65.0399 59.4024 68.2418 58.0738C70.0523 57.3276 71.8325 56.4843 73.6916 55.9262Z" fill="#4CB377"/>
<path d="M56.7831 40.6077C60.6168 39.6795 64.3169 38.5268 67.9927 37.362C75.2409 35.0749 80.9034 35.6087 82.392 35.6451C84.646 35.6937 91.6209 36.6522 93.3464 36.9737C92.9636 36.7493 88.8565 34.8989 83.5828 33.8312C77.7016 32.636 72.2152 30.7371 66.2672 29.5966C58.3445 28.0678 47.2261 30.1729 45.3001 30.4581C42.5721 30.8645 39.8745 31.3863 37.1769 31.8959C37.104 32.7877 37.0554 33.6856 37.0554 34.5956C37.0554 36.9555 37.3227 39.2488 37.8149 41.4631C38.6594 41.5238 47.2747 42.9131 56.7831 40.6077Z" fill="#227525"/>
<path d="M100.339 33.8675C97.0221 30.6946 87.8175 25.8473 79.9191 24.7431C76.778 24.3063 66.2185 23.9787 64.4505 23.912C62.2936 23.8331 54.3771 21.9767 48.8543 23.5359C46.4423 24.2153 42.7604 25.641 37.7055 28.2133C37.6325 28.5834 37.5657 28.9535 37.505 29.3235C40.8344 28.7593 44.1578 28.1587 47.4994 27.643C49.6684 27.3094 51.8557 27.0849 54.0429 26.8726C56.218 26.6602 58.3931 26.4115 60.5742 26.3812C64.3047 26.3266 68.0534 26.1567 71.7595 26.8604C73.9285 27.273 76.1158 27.5824 78.2605 28.0799C82.4041 29.0445 86.4869 30.2578 90.4422 31.823C92.9575 32.824 95.3999 33.9403 97.6844 35.4267C98.5046 35.9605 99.3734 36.4277 100.26 36.8948C100.315 36.1365 100.339 34.1102 100.339 33.8675Z" fill="#62BF9C"/>
<path d="M87.1005 22.2559C87.0944 22.3105 87.0884 22.359 87.0762 22.4136C87.1674 22.45 87.2524 22.5046 87.3496 22.5228C90.7034 23.2326 94.1483 25.6229 95.5214 27.2427C96.9613 28.9414 98.6564 30.0516 100.036 30.6704C100.054 30.6826 100.078 30.6886 100.102 30.6947C99.8169 28.4076 99.2944 26.1932 98.5531 24.082C97.7026 23.4935 94.8652 20.6907 87.1005 22.2559Z" fill="#4E95C2"/>
<path d="M51.7706 20.7209C53.6176 20.7816 58.3991 20.3326 64.5173 20.6238C67.6584 20.7755 73.3209 21.4368 79.7368 21.1213C85.533 20.8362 95.9102 18.6704 96.0318 18.6522C95.4363 17.639 94.7923 16.6562 94.0875 15.7159C92.119 15.3943 80.7089 12.5369 69.4811 15.0789C67.7739 15.4671 59.8087 18.0819 49.2127 16.3893C47.4872 16.1163 45.5613 15.637 43.7143 15.2184C42.8637 16.3104 42.086 17.457 41.3812 18.6582C44.2368 20.2052 48.9515 20.6238 51.7706 20.7209Z" fill="#298A29"/>
<path d="M50.4157 14.0294C53.0769 14.2114 56.2605 13.7746 58.6179 13.635C62.1661 13.4288 64.5902 13.5258 68.1445 13.3984C73.4 13.2103 81.274 11.2993 85.3751 11.3175C87.0823 11.3297 89.2331 11.3539 90.8432 12.0273C89.5491 10.7655 88.1516 9.60671 86.651 8.57536C86.6449 8.57536 86.6388 8.5693 86.6327 8.5693C83.9837 8.23562 80.0346 9.99498 74.9432 10.7351C72.7924 11.0506 67.0995 11.9667 59.6264 12.2336C58.2776 12.2821 50.3003 12.1123 47.1653 11.4449C46.4362 12.1244 45.7314 12.8342 45.0692 13.5804C46.8554 13.7624 48.6356 13.902 50.4157 14.0294Z" fill="#326EA6"/>
<path d="M63.6912 10.3771C76.207 10.0435 79.6276 6.68857 83.03 6.4277C78.7284 4.23761 73.8618 3 68.7036 3C61.5647 3 54.9787 5.35996 49.6807 9.33974C51.9834 9.87968 62.1176 10.4196 63.6912 10.3771Z" fill="#6BBF64"/>
<path d="M16.1916 91.8413C15.6144 91.8049 14.861 91.7867 13.9375 91.7867C13.0444 91.7867 12.2849 91.8049 11.6409 91.8413C11.6409 91.538 11.6774 91.2711 11.7564 91.0344C12.2303 90.9859 12.5523 90.8767 12.7163 90.7129C12.8804 90.5491 12.9593 90.2518 12.9593 89.809C12.9593 89.5602 12.9411 89.2448 12.9047 88.8686L12.2303 82.4258L8.33577 91.8171C8.12313 91.902 7.86795 91.9505 7.56416 91.9505L3.18362 82.45L2.58213 88.4803C2.54567 88.8565 2.52745 89.1841 2.52745 89.4571C2.52745 90.0334 2.62466 90.4278 2.81908 90.6522C3.0135 90.8706 3.34158 90.998 3.80941 91.0344C3.87017 91.2468 3.90662 91.5137 3.90662 91.8413C3.30513 91.8049 2.63073 91.7867 1.89558 91.7867C1.15435 91.7867 0.528554 91.8049 0.0121231 91.8413C0.0121231 91.5137 0.0425014 91.2468 0.103258 91.0344C0.455646 90.998 0.722975 90.907 0.91132 90.7736C1.09967 90.634 1.24548 90.3853 1.35484 90.0152C1.46421 89.6452 1.55534 89.081 1.62825 88.3166L2.22974 81.631C2.24189 81.5157 2.24796 81.3701 2.24796 81.1821C2.24796 80.6907 2.14468 80.3509 1.94418 80.1507C1.74369 79.9505 1.4156 79.8474 0.966001 79.8474C0.905245 79.6472 0.874866 79.3802 0.874866 79.0405C1.25156 79.0769 1.72546 79.0951 2.30265 79.0951C2.7644 79.0951 3.24437 79.0769 3.73043 79.0405L8.43298 89.4268L12.5341 79.0405C12.9593 79.0769 13.4515 79.0951 13.9983 79.0951C14.4479 79.0951 14.9279 79.0769 15.4261 79.0405C15.4261 79.3438 15.3957 79.6108 15.3289 79.8474C14.9036 79.8474 14.5815 79.9566 14.3628 80.1689C14.1441 80.3813 14.0347 80.7513 14.0347 81.2791C14.0347 81.4793 14.0408 81.6371 14.053 81.7463L14.7274 88.6381C14.7881 89.263 14.8732 89.7422 14.9704 90.0759C15.0676 90.4096 15.2073 90.6401 15.3835 90.7796C15.5597 90.9192 15.7967 90.998 16.1005 91.0223C16.1612 91.2225 16.1916 91.5016 16.1916 91.8413Z" fill="#333333"/>
<path d="M28.841 90.6644C29.0233 90.8828 29.3635 91.0041 29.8678 91.0284C29.9286 91.2043 29.959 91.4713 29.959 91.8353C29.2056 91.7989 28.4461 91.7807 27.6806 91.7807C26.8057 91.7807 26.0462 91.7989 25.4022 91.8353C25.4022 91.4713 25.4326 91.2043 25.4994 91.0284C26.0037 91.0041 26.3439 90.8828 26.5262 90.6644C26.7085 90.446 26.7996 90.0213 26.7996 89.3964V82.6745L21.0642 89.5845C21.0763 90.1244 21.1796 90.4945 21.368 90.6947C21.5563 90.8949 21.8905 91.0102 22.3644 91.0345C22.4251 91.2104 22.4616 91.4773 22.4616 91.8413C21.7082 91.8049 20.9488 91.7867 20.1832 91.7867C19.3023 91.7867 18.5489 91.8049 17.9049 91.8413C17.9049 91.4773 17.9352 91.2104 17.996 91.0345C18.5003 91.0102 18.8405 90.8888 19.0228 90.6704C19.205 90.452 19.2962 90.0274 19.2962 89.4025V81.4793C19.2962 80.8545 19.205 80.4298 19.0228 80.2114C18.8405 79.993 18.5003 79.8717 17.996 79.8474C17.9352 79.6715 17.9049 79.4045 17.9049 79.0405C18.5914 79.0769 19.3509 79.0951 20.1832 79.0951C20.9488 79.0951 21.7082 79.0769 22.4616 79.0405C22.4616 79.4045 22.4312 79.6715 22.3644 79.8474C21.8601 79.8717 21.5199 79.993 21.3376 80.2114C21.1553 80.4298 21.0642 80.8545 21.0642 81.4793V88.2013L26.7996 81.2731C26.7875 80.7331 26.6842 80.3691 26.5019 80.175C26.3136 79.9809 25.9794 79.8717 25.5055 79.8474C25.4447 79.6715 25.4083 79.4045 25.4083 79.0405C26.0948 79.0769 26.8543 79.0951 27.6867 79.0951C28.4522 79.0951 29.2116 79.0769 29.965 79.0405C29.965 79.4045 29.9347 79.6715 29.8739 79.8474C29.3696 79.8717 29.0294 79.993 28.8471 80.2114C28.6648 80.4298 28.5737 80.8545 28.5737 81.4793V89.4025C28.5676 90.0213 28.6588 90.446 28.841 90.6644Z" fill="#333333"/>
<path d="M43.0035 90.6643C43.1858 90.8827 43.5261 91.0041 44.0303 91.0284C44.0911 91.2043 44.1215 91.4712 44.1215 91.8352C43.3681 91.7988 42.6086 91.7806 41.8431 91.7806C40.9682 91.7806 40.2087 91.7988 39.5647 91.8352C39.5647 91.4712 39.5951 91.2043 39.6619 91.0284C40.1662 91.0041 40.5065 90.8827 40.6887 90.6643C40.871 90.4459 40.9621 90.0213 40.9621 89.3964V85.6775C38.0883 85.6775 36.1806 85.7139 35.2267 85.7928V89.3964C35.2267 90.0213 35.3178 90.4459 35.5001 90.6643C35.6824 90.8827 36.0226 91.0041 36.5269 91.0284C36.5877 91.2043 36.6241 91.4712 36.6241 91.8352C35.8707 91.7988 35.1113 91.7806 34.3457 91.7806C33.4648 91.7806 32.7114 91.7988 32.0674 91.8352C32.0674 91.4712 32.0977 91.2043 32.1585 91.0284C32.6628 91.0041 33.003 90.8827 33.1853 90.6643C33.3676 90.4459 33.4587 90.0213 33.4587 89.3964V81.4732C33.4587 80.8484 33.3676 80.4237 33.1853 80.2053C33.003 79.9869 32.6628 79.8656 32.1585 79.8413C32.0977 79.6654 32.0674 79.3984 32.0674 79.0344C32.7539 79.0708 33.5134 79.089 34.3457 79.089C35.1113 79.089 35.8707 79.0708 36.6241 79.0344C36.6241 79.3984 36.5937 79.6654 36.5269 79.8413C36.0226 79.8656 35.6824 79.9869 35.5001 80.2053C35.3178 80.4237 35.2267 80.8484 35.2267 81.4732V84.8706H40.9621V81.4732C40.9621 80.8484 40.871 80.4237 40.6887 80.2053C40.5065 79.9869 40.1662 79.8656 39.6619 79.8413C39.6012 79.6654 39.5647 79.3984 39.5647 79.0344C40.2513 79.0708 41.0107 79.089 41.8431 79.089C42.6086 79.089 43.3681 79.0708 44.1215 79.0344C44.1215 79.3984 44.0911 79.6654 44.0303 79.8413C43.5261 79.8656 43.1858 79.9869 43.0035 80.2053C42.8213 80.4237 42.7301 80.8484 42.7301 81.4732V89.3964C42.7301 90.0213 42.8213 90.4459 43.0035 90.6643Z" fill="#333333"/>
<path d="M46.3269 91.0284C46.8311 91.0041 47.1714 90.8827 47.3536 90.6643C47.5359 90.4459 47.627 90.0213 47.627 89.3964V81.4732C47.627 80.8241 47.5359 80.3873 47.3536 80.1689C47.1714 79.9505 46.8311 79.8413 46.3269 79.8413C46.2661 79.6654 46.2357 79.3984 46.2357 79.0344C46.9223 79.0708 48.5627 79.089 51.1449 79.089H53.1741C55.6955 79.089 57.3299 79.0708 58.0833 79.0344C58.0833 79.3984 58.0529 79.6654 57.9921 79.8413C57.4878 79.8413 57.1476 79.9505 56.9653 80.1689C56.7831 80.3873 56.6919 80.8241 56.6919 81.4732V89.3964C56.6919 90.0213 56.7831 90.4459 56.9653 90.6643C57.1476 90.8827 57.4878 91.0041 57.9921 91.0284C58.0529 91.2043 58.0833 91.4712 58.0833 91.8352C57.3299 91.7988 56.5704 91.7806 55.8049 91.7806C54.93 91.7806 54.1705 91.7988 53.5265 91.8352C53.5265 91.4712 53.5569 91.2043 53.6237 91.0284C54.128 91.0041 54.4682 90.8827 54.6505 90.6643C54.8328 90.4459 54.9239 90.0213 54.9239 89.3964V81.5278C54.9239 81.1517 54.8875 80.8423 54.8206 80.5996C54.7538 80.357 54.6262 80.181 54.4561 80.084C54.3042 79.999 54.0794 79.9384 53.7695 79.9141C53.4597 79.8898 52.925 79.8777 52.1595 79.8777C51.394 79.8777 50.8593 79.8898 50.5494 79.9141C50.2396 79.9384 50.0148 79.993 49.8629 80.084C49.6867 80.1871 49.5652 80.357 49.4983 80.5996C49.4315 80.8423 49.3951 81.1517 49.3951 81.5278V89.3964C49.3951 90.0213 49.4862 90.4459 49.6685 90.6643C49.8507 90.8827 50.191 91.0041 50.6953 91.0284C50.756 91.2043 50.7925 91.4712 50.7925 91.8352C50.0391 91.7988 49.2796 91.7806 48.5141 91.7806C47.6331 91.7806 46.8797 91.7988 46.2357 91.8352C46.2296 91.4773 46.26 91.2043 46.3269 91.0284Z" fill="#333333"/>
<path d="M68.3693 80.0719C69.0559 80.7513 69.4022 81.6249 69.4022 82.6927C69.4022 83.445 69.2381 84.1487 68.9101 84.8039C68.582 85.4591 68.0959 85.9991 67.4519 86.4116C66.8079 86.8241 66.0302 87.0304 65.131 87.0304C64.6024 87.0304 64.165 86.9637 63.8126 86.8241C63.7883 86.6725 63.7761 86.5572 63.7761 86.4662C63.7761 86.3145 63.7943 86.1811 63.8308 86.0537C64.1467 86.1265 64.4748 86.1689 64.8272 86.1689C66.5952 86.1689 67.4762 85.1922 67.4762 83.2387C67.4762 82.1891 67.221 81.3641 66.7046 80.7695C66.1882 80.175 65.3862 79.8777 64.2986 79.8777C64.0252 79.8777 63.7032 79.9141 63.3387 79.993V89.0264C63.3387 89.5663 63.3934 89.9728 63.5088 90.2579C63.6242 90.537 63.7943 90.7372 64.0252 90.8403C64.2561 90.9495 64.5842 91.0102 65.0156 91.0345C65.0763 91.2104 65.1128 91.4773 65.1128 91.8413C64.5356 91.8049 63.7457 91.7867 62.7433 91.7867C61.5281 91.7867 60.6715 91.8049 60.1854 91.8413C60.1854 91.4773 60.2158 91.2104 60.2765 91.0345C60.7808 91.0102 61.1211 90.8888 61.3033 90.6704C61.4856 90.452 61.5767 90.0274 61.5767 89.4025V81.4793C61.5767 80.8545 61.4856 80.4298 61.3033 80.2114C61.1211 79.993 60.7808 79.8717 60.2765 79.8474C60.2158 79.6715 60.1854 79.4045 60.1854 79.0405C60.8355 79.0769 61.6922 79.0951 62.7433 79.0951L65.131 79.0587C66.6013 79.0466 67.6767 79.3924 68.3693 80.0719Z" fill="#333333"/>
<path d="M82.0517 90.6644C82.234 90.8828 82.5743 91.0041 83.0785 91.0284C83.1393 91.2043 83.1697 91.4713 83.1697 91.8353C82.4163 91.7989 81.6568 91.7807 80.8913 91.7807C80.0164 91.7807 79.2569 91.7989 78.6129 91.8353C78.6129 91.4713 78.6433 91.2043 78.7101 91.0284C79.2144 91.0041 79.5546 90.8828 79.7369 90.6644C79.9192 90.446 80.0103 90.0213 80.0103 89.3964V82.6745L74.2749 89.5845C74.287 90.1244 74.3903 90.4945 74.5787 90.6947C74.767 90.8949 75.1012 91.0102 75.5751 91.0345C75.6358 91.2104 75.6723 91.4773 75.6723 91.8413C74.9189 91.8049 74.1595 91.7867 73.3939 91.7867C72.513 91.7867 71.7596 91.8049 71.1156 91.8413C71.1156 91.4773 71.1459 91.2104 71.2067 91.0345C71.711 91.0102 72.0512 90.8888 72.2335 90.6704C72.4157 90.452 72.5069 90.0274 72.5069 89.4025V81.4793C72.5069 80.8545 72.4157 80.4298 72.2335 80.2114C72.0512 79.993 71.711 79.8717 71.2067 79.8474C71.1459 79.6715 71.1156 79.4045 71.1156 79.0405C71.8021 79.0769 72.5616 79.0951 73.3939 79.0951C74.1595 79.0951 74.9189 79.0769 75.6723 79.0405C75.6723 79.4045 75.6419 79.6715 75.5751 79.8474C75.0708 79.8717 74.7306 79.993 74.5483 80.2114C74.366 80.4298 74.2749 80.8545 74.2749 81.4793V88.2013L80.0103 81.2731C79.9982 80.7331 79.8949 80.3691 79.7126 80.175C79.5243 79.9809 79.1901 79.8717 78.7162 79.8474C78.6554 79.6715 78.619 79.4045 78.619 79.0405C79.3055 79.0769 80.065 79.0951 80.8974 79.0951C81.6629 79.0951 82.4224 79.0769 83.1757 79.0405C83.1757 79.4045 83.1454 79.6715 83.0846 79.8474C82.5803 79.8717 82.2401 79.993 82.0578 80.2114C81.8755 80.4298 81.7844 80.8545 81.7844 81.4793V89.4025C81.7783 90.0213 81.8695 90.446 82.0517 90.6644Z" fill="#333333"/>
<path d="M93.4557 80.0719C94.1423 80.7513 94.4886 81.6249 94.4886 82.6927C94.4886 83.445 94.3246 84.1487 93.9965 84.8039C93.6684 85.4591 93.1823 85.9991 92.5383 86.4116C91.8943 86.8241 91.1166 87.0304 90.2174 87.0304C89.6888 87.0304 89.2514 86.9637 88.899 86.8241C88.8747 86.6725 88.8625 86.5572 88.8625 86.4662C88.8625 86.3145 88.8808 86.1811 88.9172 86.0537C89.2332 86.1265 89.5613 86.1689 89.9136 86.1689C91.6817 86.1689 92.5626 85.1922 92.5626 83.2387C92.5626 82.1891 92.3074 81.3641 91.791 80.7695C91.2746 80.175 90.4726 79.8777 89.3851 79.8777C89.1116 79.8777 88.7896 79.9141 88.4251 79.993V89.0264C88.4251 89.5663 88.4798 89.9728 88.5952 90.2579C88.7107 90.537 88.8808 90.7372 89.1117 90.8403C89.3425 90.9495 89.6706 91.0102 90.102 91.0345C90.1627 91.2104 90.1992 91.4773 90.1992 91.8413C89.622 91.8049 88.8322 91.7867 87.8297 91.7867C86.6146 91.7867 85.7579 91.8049 85.2718 91.8413C85.2718 91.4773 85.3022 91.2104 85.363 91.0345C85.8673 91.0102 86.2075 90.8888 86.3898 90.6704C86.572 90.452 86.6632 90.0274 86.6632 89.4025V81.4793C86.6632 80.8545 86.572 80.4298 86.3898 80.2114C86.2075 79.993 85.8673 79.8717 85.363 79.8474C85.3022 79.6715 85.2718 79.4045 85.2718 79.0405C85.9219 79.0769 86.7786 79.0951 87.8297 79.0951L90.2174 79.0587C91.6877 79.0466 92.7692 79.3924 93.4557 80.0719Z" fill="#333333"/>
<path d="M98.7778 91.0951C97.8361 90.5248 97.107 89.7422 96.5845 88.7472C96.062 87.7523 95.8068 86.636 95.8068 85.3923C95.8068 84.1426 96.0802 83.0202 96.6271 82.0374C97.1739 81.0546 97.9212 80.2902 98.8629 79.7381C99.8107 79.1861 100.862 78.9131 102.016 78.9131C103.207 78.9131 104.276 79.1861 105.224 79.7321C106.172 80.2781 106.913 81.0425 107.442 82.0253C107.976 83.0081 108.244 84.1305 108.244 85.3984C108.244 86.6239 107.976 87.7341 107.442 88.7351C106.907 89.7301 106.166 90.5187 105.224 91.089C104.276 91.6653 103.207 91.9505 102.016 91.9505C100.801 91.9505 99.7196 91.6653 98.7778 91.0951ZM104.471 90.3549C105.066 89.906 105.522 89.2872 105.832 88.5046C106.148 87.722 106.3 86.8484 106.3 85.8837C106.3 84.7675 106.093 83.7483 105.686 82.8201C105.279 81.8918 104.714 81.1638 104.003 80.6239C103.286 80.0839 102.49 79.817 101.615 79.817C100.874 79.817 100.212 80.0293 99.6224 80.454C99.033 80.8787 98.5713 81.4732 98.2371 82.2376C97.903 83.002 97.7389 83.8817 97.7389 84.8827C97.7389 85.9565 97.9212 86.9697 98.2918 87.904C98.6624 88.8443 99.1971 89.5966 99.9018 90.1668C100.607 90.7371 101.433 91.0223 102.387 91.0223C103.183 91.0283 103.875 90.8039 104.471 90.3549Z" fill="#333333"/>
<path d="M121.124 91.7078C120.948 92.4722 120.863 93.546 120.863 94.9414C120.711 94.9899 120.517 95.0142 120.28 95.0142C120.031 95.0142 119.824 94.9899 119.66 94.9414C119.672 93.8615 119.587 92.8119 119.399 91.7867H110.559C110.37 92.8119 110.285 93.8675 110.298 94.9414C110.133 94.9899 109.927 95.0142 109.678 95.0142C109.441 95.0142 109.246 94.9899 109.095 94.9414C109.095 93.5521 109.003 92.4722 108.833 91.7078C108.833 91.4348 108.931 91.2042 109.113 91.0344H109.356C110.407 91.0344 111.209 90.088 111.762 88.2012C112.315 86.3084 112.661 84.0819 112.795 81.5157C112.807 81.3883 112.813 81.2245 112.813 81.0061C112.813 80.6906 112.776 80.4601 112.71 80.3084C112.643 80.1567 112.515 80.0536 112.333 79.9869C112.151 79.9262 111.865 79.8716 111.476 79.8352C111.415 79.6592 111.385 79.3923 111.385 79.0283C112.175 79.0647 113.761 79.0829 116.142 79.0829C118.099 79.0829 119.447 79.0647 120.189 79.0283C120.189 79.3923 120.158 79.6592 120.091 79.8352C119.587 79.8594 119.247 79.9808 119.065 80.1992C118.882 80.4176 118.791 80.8423 118.791 81.4671V89.3903C118.791 90.0394 118.882 90.4762 119.065 90.6946C119.247 90.913 119.587 91.0222 120.091 91.0222H120.845C121.033 91.1921 121.124 91.4227 121.124 91.7078ZM117.023 81.4732C117.023 81.0607 116.993 80.7573 116.938 80.5632C116.884 80.3691 116.774 80.2235 116.61 80.1203C116.361 79.9687 115.966 79.8958 115.425 79.8958C114.763 79.8958 114.32 79.9747 114.107 80.1385C113.967 80.2417 113.876 80.3873 113.834 80.5814C113.791 80.7755 113.755 81.0728 113.73 81.4732C113.554 84.088 113.317 86.1689 113.013 87.7098C112.71 89.2508 112.266 90.3367 111.677 90.9798H115.383C115.832 90.9798 116.173 90.9373 116.397 90.8584C116.622 90.7796 116.78 90.6218 116.877 90.3913C116.969 90.1608 117.017 89.8089 117.017 89.3478V81.4732H117.023Z" fill="#333333"/>
<path d="M132.109 87.9707C132.109 89.1113 131.745 90.0273 131.009 90.7311C130.274 91.4348 129.223 91.7806 127.862 91.7806C125.553 91.7806 123.968 91.7988 123.105 91.8352C123.105 91.4712 123.135 91.2043 123.196 91.0284C123.548 91.0041 123.816 90.9434 123.998 90.8403C124.18 90.7371 124.308 90.5612 124.393 90.3064C124.472 90.0516 124.514 89.6755 124.514 89.1901V81.4732C124.514 80.8484 124.423 80.4237 124.241 80.2053C124.059 79.9869 123.719 79.8656 123.214 79.8413C123.154 79.6654 123.123 79.3984 123.123 79.0344C123.609 79.0708 124.466 79.089 125.681 79.089C126.683 79.089 127.473 79.0708 128.05 79.0344C128.05 79.3984 128.02 79.6654 127.953 79.8413C127.528 79.8656 127.2 79.9323 126.969 80.0415C126.738 80.1507 126.562 80.3448 126.453 80.6239C126.337 80.903 126.282 81.3155 126.282 81.8554V84.7675C126.848 84.7068 127.334 84.6765 127.747 84.6765C130.657 84.6643 132.109 85.7685 132.109 87.9707ZM129.46 90.3003C129.861 89.8514 130.062 89.2144 130.062 88.3833C130.062 87.3337 129.782 86.5875 129.223 86.1568C128.664 85.726 128.032 85.5076 127.334 85.5076C127.036 85.5076 126.683 85.5258 126.282 85.5622V89.1901C126.282 89.8757 126.38 90.3489 126.574 90.5976C126.769 90.8463 127.127 90.9737 127.656 90.9737C128.451 90.9737 129.053 90.7493 129.46 90.3003ZM135.882 90.6643C136.064 90.8827 136.405 91.0041 136.909 91.0284C136.97 91.2043 137 91.4712 137 91.8352C136.247 91.7988 135.487 91.7806 134.722 91.7806C133.847 91.7806 133.087 91.7988 132.443 91.8352C132.443 91.4712 132.474 91.2043 132.54 91.0284C133.045 91.0041 133.385 90.8827 133.567 90.6643C133.749 90.4459 133.841 90.0213 133.841 89.3964V81.4732C133.841 80.8484 133.749 80.4237 133.567 80.2053C133.385 79.9869 133.045 79.8656 132.54 79.8413C132.48 79.6654 132.443 79.3984 132.443 79.0344C133.13 79.0708 133.889 79.089 134.722 79.089C135.487 79.089 136.247 79.0708 137 79.0344C137 79.3984 136.97 79.6654 136.909 79.8413C136.405 79.8656 136.064 79.9869 135.882 80.2053C135.7 80.4237 135.609 80.8484 135.609 81.4732V89.3964C135.609 90.0213 135.7 90.4459 135.882 90.6643Z" fill="#333333"/>
<path d="M39.3399 99.1214C40.0264 99.8009 40.3727 100.674 40.3727 101.742C40.3727 102.494 40.2087 103.198 39.8806 103.853C39.5525 104.509 39.0665 105.049 38.4224 105.461C37.7784 105.874 37.0007 106.08 36.1015 106.08C35.573 106.08 35.1355 106.013 34.7831 105.874C34.7588 105.722 34.7467 105.607 34.7467 105.516C34.7467 105.364 34.7649 105.231 34.8014 105.103C35.1173 105.176 35.4454 105.218 35.7978 105.218C37.5658 105.218 38.4467 104.242 38.4467 102.288C38.4467 101.239 38.1916 100.414 37.6751 99.819C37.1587 99.2245 36.3567 98.9272 35.2692 98.9272C34.9958 98.9272 34.6738 98.9636 34.3092 99.0425V108.076C34.3092 108.616 34.3639 109.022 34.4793 109.307C34.5948 109.586 34.7649 109.787 34.9958 109.89C35.2266 109.999 35.5547 110.06 35.98 110.084C36.0408 110.26 36.0772 110.527 36.0772 110.891C35.5001 110.854 34.7102 110.836 33.7077 110.836C32.4926 110.836 31.6359 110.854 31.1499 110.891C31.1499 110.527 31.1803 110.26 31.241 110.084C31.7453 110.06 32.0855 109.938 32.2678 109.72C32.4501 109.502 32.5412 109.077 32.5412 108.452V100.529C32.5412 99.904 32.4501 99.4793 32.2678 99.2609C32.0855 99.0425 31.7453 98.9212 31.241 98.8969C31.1803 98.721 31.1499 98.454 31.1499 98.09C31.8 98.1264 32.6566 98.1446 33.7077 98.1446L36.0955 98.1082C37.5719 98.1022 38.6472 98.4419 39.3399 99.1214Z" fill="#333333"/>
<path d="M44.6621 110.151C43.7204 109.58 42.9913 108.798 42.4688 107.803C41.9463 106.808 41.6911 105.692 41.6911 104.448C41.6911 103.198 41.9645 102.076 42.5113 101.093C43.0581 100.11 43.8054 99.3458 44.7471 98.7938C45.6949 98.2417 46.746 97.9687 47.9004 97.9687C49.0912 97.9687 50.1606 98.2417 51.1084 98.7877C52.0562 99.3337 52.7974 100.098 53.326 101.081C53.8606 102.064 54.1279 103.186 54.1279 104.454C54.1279 105.679 53.8606 106.79 53.326 107.791C52.7913 108.786 52.0501 109.574 51.1084 110.145C50.1606 110.721 49.0912 111.006 47.9004 111.006C46.6792 111 45.6038 110.715 44.6621 110.151ZM50.3489 109.404C50.9443 108.956 51.4 108.337 51.7098 107.554C52.0258 106.772 52.1777 105.898 52.1777 104.933C52.1777 103.817 51.9711 102.798 51.564 101.87C51.157 100.941 50.5919 100.213 49.8811 99.6734C49.1641 99.1335 48.3682 98.8666 47.4933 98.8666C46.7521 98.8666 46.0899 99.0789 45.5005 99.5036C44.9112 99.9282 44.4494 100.523 44.1153 101.287C43.7811 102.052 43.6171 102.931 43.6171 103.932C43.6171 105.006 43.8054 106.019 44.17 106.954C44.5406 107.894 45.0752 108.646 45.78 109.216C46.4848 109.787 47.3111 110.072 48.2649 110.072C49.0609 110.084 49.7535 109.859 50.3489 109.404Z" fill="#333333"/>
<path d="M58.3263 110.169C57.415 109.611 56.7102 108.834 56.1999 107.833C55.6895 106.832 55.4404 105.686 55.4404 104.393C55.4404 103.016 55.732 101.845 56.3153 100.881C56.8986 99.9161 57.6702 99.1881 58.6301 98.7028C59.5901 98.2174 60.6229 97.9687 61.7226 97.9687C62.4882 97.9687 63.1929 98.0475 63.8491 98.2053C64.4992 98.363 65.1858 98.6117 65.8966 98.9454C65.7569 99.5946 65.69 100.565 65.69 101.857C65.4166 101.973 65.0825 102.027 64.6936 102.027C64.645 100.778 64.3838 99.9161 63.922 99.4429C63.4603 98.9758 62.7737 98.7392 61.8745 98.7392C60.8599 98.7392 60.0214 98.9758 59.3531 99.455C58.6909 99.9282 58.1987 100.559 57.8889 101.33C57.573 102.106 57.4211 102.956 57.4211 103.884C57.4211 105.012 57.6155 106.025 57.9922 106.935C58.3749 107.845 58.9278 108.555 59.6569 109.077C60.386 109.599 61.2366 109.853 62.2148 109.853C62.8041 109.853 63.4117 109.75 64.0375 109.55C64.6632 109.35 65.2465 109.083 65.7872 108.743C65.8602 108.804 65.9331 108.895 66.006 109.016C66.0728 109.138 66.1153 109.241 66.1275 109.326C65.3619 109.914 64.6207 110.339 63.8977 110.606C63.1747 110.867 62.3545 111 61.4249 111C60.2645 111 59.2316 110.721 58.3263 110.169Z" fill="#333333"/>
<path d="M70.2286 110.169C69.3172 109.611 68.6124 108.834 68.1021 107.833C67.5917 106.832 67.3426 105.686 67.3426 104.393C67.3426 103.016 67.6343 101.845 68.2175 100.881C68.8008 99.9161 69.5724 99.1881 70.5324 98.7028C71.4923 98.2174 72.5252 97.9687 73.6249 97.9687C74.3904 97.9687 75.0952 98.0475 75.7513 98.2053C76.4014 98.363 77.088 98.6117 77.7988 98.9454C77.6591 99.5946 77.5923 100.565 77.5923 101.857C77.3189 101.973 76.9847 102.027 76.5959 102.027C76.5473 100.778 76.286 99.9161 75.8243 99.4429C75.3625 98.9758 74.676 98.7392 73.7768 98.7392C72.7621 98.7392 71.9237 98.9758 71.2554 99.455C70.5931 99.9282 70.101 100.559 69.7911 101.33C69.4752 102.106 69.3233 102.956 69.3233 103.884C69.3233 105.012 69.5116 106.025 69.8944 106.935C70.2772 107.845 70.8301 108.555 71.5591 109.077C72.2882 109.599 73.1388 109.853 74.117 109.853C74.7063 109.853 75.3139 109.75 75.9397 109.55C76.5655 109.35 77.1488 109.083 77.6895 108.743C77.7624 108.804 77.8353 108.895 77.9082 109.016C77.9811 109.138 78.0176 109.241 78.0297 109.326C77.2642 109.914 76.523 110.339 75.8 110.606C75.077 110.867 74.2567 111 73.3272 111C72.1728 111 71.1399 110.721 70.2286 110.169Z" fill="#333333"/>
<path d="M90.9586 109.714C91.1409 109.932 91.4811 110.054 91.9854 110.078C92.0462 110.254 92.0765 110.521 92.0765 110.885C91.3232 110.848 90.5637 110.83 89.7982 110.83C88.9233 110.83 88.1638 110.848 87.5198 110.885C87.5198 110.521 87.5502 110.254 87.617 110.078C88.1213 110.054 88.4615 109.932 88.6438 109.714C88.8261 109.495 88.9172 109.071 88.9172 108.446V101.724L83.1818 108.634C83.1939 109.174 83.2972 109.544 83.4856 109.744C83.6739 109.944 84.0081 110.06 84.482 110.084C84.5427 110.26 84.5792 110.527 84.5792 110.891C83.8258 110.854 83.0663 110.836 82.3008 110.836C81.4198 110.836 80.6665 110.854 80.0224 110.891C80.0224 110.527 80.0528 110.26 80.1136 110.084C80.6178 110.06 80.9581 109.938 81.1404 109.72C81.3226 109.502 81.4138 109.077 81.4138 108.452V100.529C81.4138 99.904 81.3226 99.4793 81.1404 99.2609C80.9581 99.0425 80.6178 98.9212 80.1136 98.8969C80.0528 98.721 80.0224 98.454 80.0224 98.09C80.709 98.1264 81.4684 98.1446 82.3008 98.1446C83.0663 98.1446 83.8258 98.1264 84.5792 98.09C84.5792 98.454 84.5488 98.721 84.482 98.8969C83.9777 98.9212 83.6375 99.0425 83.4552 99.2609C83.2729 99.4793 83.1818 99.904 83.1818 100.529V107.251L88.9172 100.323C88.905 99.7826 88.8018 99.4186 88.6195 99.2245C88.4311 99.0304 88.097 98.9212 87.6231 98.8969C87.5623 98.721 87.5259 98.454 87.5259 98.09C88.2124 98.1264 88.9719 98.1446 89.8042 98.1446C90.5698 98.1446 91.3292 98.1264 92.0826 98.09C92.0826 98.454 92.0522 98.721 91.9915 98.8969C91.4872 98.9212 91.147 99.0425 90.9647 99.2609C90.7824 99.4793 90.6913 99.904 90.6913 100.529V108.452C90.6852 109.077 90.7764 109.495 90.9586 109.714Z" fill="#333333"/>
<path d="M105.121 109.714C105.303 109.932 105.644 110.054 106.148 110.078C106.209 110.254 106.239 110.521 106.239 110.885C105.486 110.848 104.726 110.83 103.961 110.83C103.086 110.83 102.326 110.848 101.682 110.885C101.682 110.521 101.713 110.254 101.779 110.078C102.284 110.054 102.624 109.932 102.806 109.714C102.988 109.495 103.08 109.071 103.08 108.446V101.724L97.3442 108.634C97.3563 109.174 97.4596 109.544 97.648 109.744C97.8363 109.944 98.1705 110.06 98.6444 110.084C98.7051 110.26 98.7416 110.527 98.7416 110.891C97.9882 110.854 97.2287 110.836 96.4632 110.836C95.5822 110.836 94.8289 110.854 94.1848 110.891C94.1848 110.527 94.2152 110.26 94.276 110.084C94.7802 110.06 95.1205 109.938 95.3028 109.72C95.485 109.502 95.5762 109.077 95.5762 108.452V100.529C95.5762 99.904 95.485 99.4793 95.3028 99.2609C95.1205 99.0425 94.7802 98.9212 94.276 98.8969C94.2152 98.721 94.1848 98.454 94.1848 98.09C94.8714 98.1264 95.6308 98.1446 96.4632 98.1446C97.2287 98.1446 97.9882 98.1264 98.7416 98.09C98.7416 98.454 98.7112 98.721 98.6444 98.8969C98.1401 98.9212 97.7999 99.0425 97.6176 99.2609C97.4353 99.4793 97.3442 99.904 97.3442 100.529V107.251L103.08 100.323C103.067 99.7826 102.964 99.4186 102.782 99.2245C102.594 99.0304 102.259 98.9212 101.785 98.8969C101.725 98.721 101.688 98.454 101.688 98.09C102.375 98.1264 103.134 98.1446 103.967 98.1446C104.732 98.1446 105.492 98.1264 106.245 98.09C106.245 98.454 106.215 98.721 106.154 98.8969C105.65 98.9212 105.309 99.0425 105.127 99.2609C104.945 99.4793 104.854 99.904 104.854 100.529V108.452C104.848 109.077 104.939 109.495 105.121 109.714Z" fill="#333333"/>
</g>
<defs>
<clipPath id="clip0">
<rect width="137" height="108" fill="white" transform="translate(0 3)"/>
</clipPath>
</defs>
</svg>
