<svg width="137" height="108" viewBox="0 0 137 108" fill="none" xmlns="http://www.w3.org/2000/svg">
<g clip-path="url(#clip0)">
<path d="M91.0862 44.4388C92.9453 46.2043 95.9649 46.3377 96.852 46.0344C97.5203 44.7422 98.1036 43.3893 98.5896 42C97.2773 42.4065 94.2516 41.8301 91.0862 44.4388Z" fill="#42AA47"/>
<path d="M44.7411 45.2032C46.4241 44.6814 48.1496 44.2992 49.8508 43.8442C53.7149 42.8129 57.6762 42.4792 61.6497 42.3579C64.5903 42.2669 79.6336 43.0737 83.3519 42.3093C88.8079 41.1809 95.6369 40.2952 96.9007 40.0343C97.7269 39.8644 98.5411 39.6764 99.3613 39.4822C99.4464 39.1425 99.5253 38.7967 99.5982 38.4509C98.9907 38.5662 98.3831 38.6754 97.7695 38.7785C95.8435 39.1182 92.2953 39.0636 88.0727 37.7229C84.2572 36.5156 78.3942 37.1405 75.0344 37.9534C71.31 38.8574 59.0736 40.5621 50.0026 40.4226C44.808 40.3376 41.8613 43.9473 40.0932 45.1061C40.3363 45.6157 40.5854 46.1132 40.8527 46.6106C42.165 46.1132 43.4409 45.6157 44.7411 45.2032Z" fill="#6BBF64"/>
<path d="M95.1569 48.0606C91.5602 46.1557 85.0653 44.7482 77.7866 44.4448C75.4232 44.3478 72.5312 45.3124 70.1738 45.4519C66.6257 45.6582 64.2379 44.7846 59.9789 45.185C55.89 45.5732 51.8922 46.7199 49.6199 47.2962C47.4509 47.8483 45.3183 48.5399 43.1615 49.1526C42.9488 49.2133 42.724 49.2679 42.4992 49.3225C42.6086 49.4802 42.7179 49.6258 42.8273 49.7836C43.0339 49.7411 43.2344 49.6926 43.441 49.6562C45.0388 49.3771 46.655 49.189 48.2407 48.8311C55.7806 47.1324 65.9573 46.8958 68.1993 46.8594C72.7438 46.7866 80.7151 47.4297 82.7322 47.6905C84.7372 47.9453 86.7543 48.188 88.7289 48.6066C90.6367 49.007 92.5201 49.5227 94.4096 50.0141C94.8228 49.4378 95.2238 48.8493 95.5944 48.2426C95.4547 48.1759 95.3028 48.1395 95.1569 48.0606Z" fill="#26832B"/>
<path d="M90.8797 54.1274C90.1688 54.1032 89.458 54.0728 88.7471 54.0789C87.6778 54.091 86.6085 54.1638 85.5392 54.2124C84.0567 54.2791 82.556 54.2366 81.0857 54.4308C78.7648 54.7341 76.4318 55.0799 74.1595 55.6138C71.6745 56.2023 69.4144 57.3549 67.4398 59.0112C66.1943 60.0546 64.4384 60.4672 62.0811 60.9586C61.6132 61.0557 60.0639 61.3408 58.5997 61.5349C61.7773 62.6027 65.1736 63.1911 68.7096 63.1911C77.3431 63.1851 85.1686 59.7331 90.8797 54.1274Z" fill="#326EA6"/>
<path d="M73.6916 52.9262C75.5143 52.3802 77.4099 51.9919 79.2995 51.7917C81.8512 51.5248 84.4334 51.4459 87.0034 51.3974C88.5952 51.3671 90.1992 51.5612 91.791 51.6097C92.0401 51.6158 92.3014 51.361 92.5566 51.2215C92.5262 51.1669 91.1166 50.6269 90.0048 50.639C88.2246 50.6572 86.6085 50.7301 84.9073 50.5966C82.7565 50.4267 80.6118 50.178 78.461 49.9717C76.936 49.8322 75.411 49.6502 73.88 49.6016C69.8579 49.4803 65.8297 49.3044 61.8137 49.3711C58.6483 49.4257 55.4647 49.7654 52.439 50.821C50.2031 51.6037 47.9977 52.4955 45.7922 53.3751C48.1374 55.8322 50.8715 57.907 53.8971 59.5147C55.4282 59.2963 56.9471 58.9565 58.4539 58.5561C61.8137 57.6583 65.0399 56.4024 68.2418 55.0738C70.0523 54.3276 71.8325 53.4843 73.6916 52.9262Z" fill="#4CB377"/>
<path d="M56.7831 37.6077C60.6168 36.6795 64.3169 35.5268 67.9927 34.362C75.2409 32.0748 80.9034 32.6087 82.392 32.6451C84.646 32.6936 91.6209 33.6522 93.3464 33.9737C92.9636 33.7492 88.8565 31.8989 83.5828 30.8311C77.7016 29.636 72.2152 27.7371 66.2672 26.5966C58.3445 25.0677 47.2261 27.1729 45.3001 27.458C42.5721 27.8645 39.8745 28.3862 37.1769 28.8958C37.104 29.7877 37.0554 30.6855 37.0554 31.5955C37.0554 33.9555 37.3227 36.2487 37.8149 38.4631C38.6594 38.5237 47.2747 39.913 56.7831 37.6077Z" fill="#227525"/>
<path d="M100.339 30.8674C97.0221 27.6945 87.8175 22.8472 79.9191 21.743C76.778 21.3062 66.2185 20.9786 64.4505 20.9119C62.2936 20.833 54.3771 18.9766 48.8543 20.5358C46.4423 21.2152 42.7604 22.6409 37.7055 25.2132C37.6325 25.5833 37.5657 25.9534 37.505 26.3234C40.8344 25.7592 44.1578 25.1586 47.4994 24.6429C49.6684 24.3093 51.8557 24.0848 54.0429 23.8725C56.218 23.6601 58.3931 23.4114 60.5742 23.3811C64.3047 23.3265 68.0534 23.1566 71.7595 23.8603C73.9285 24.2729 76.1158 24.5823 78.2605 25.0797C82.4041 26.0444 86.4869 27.2577 90.4422 28.8229C92.9575 29.8239 95.3999 30.9402 97.6844 32.4266C98.5046 32.9604 99.3734 33.4276 100.26 33.8947C100.315 33.1364 100.339 31.1101 100.339 30.8674Z" fill="#62BF9C"/>
<path d="M87.1005 19.2559C87.0944 19.3105 87.0884 19.359 87.0762 19.4136C87.1674 19.45 87.2524 19.5046 87.3496 19.5228C90.7034 20.2326 94.1483 22.6229 95.5214 24.2427C96.9613 25.9414 98.6564 27.0516 100.036 27.6704C100.054 27.6826 100.078 27.6886 100.102 27.6947C99.8169 25.4076 99.2944 23.1932 98.5531 21.082C97.7026 20.4935 94.8652 17.6907 87.1005 19.2559Z" fill="#4E95C2"/>
<path d="M51.7706 17.721C53.6176 17.7816 58.3991 17.3327 64.5173 17.6239C67.6584 17.7756 73.3209 18.4369 79.7368 18.1214C85.533 17.8362 95.9102 15.6704 96.0317 15.6522C95.4363 14.6391 94.7923 13.6563 94.0875 12.7159C92.119 12.3944 80.7089 9.53696 69.4811 12.0789C67.7739 12.4672 59.8087 15.082 49.2127 13.3893C47.4872 13.1163 45.5613 12.6371 43.7143 12.2185C42.8637 13.3105 42.086 14.4571 41.3812 15.6583C44.2368 17.2053 48.9515 17.6239 51.7706 17.721Z" fill="#298A29"/>
<path d="M50.4157 11.0293C53.0769 11.2113 56.2605 10.7745 58.6179 10.6349C62.1661 10.4287 64.5902 10.5257 68.1445 10.3983C73.3999 10.2103 81.274 8.29925 85.3751 8.31745C87.0823 8.32958 89.2331 8.35385 90.8432 9.02726C89.549 7.76538 88.1516 6.60663 86.651 5.57529C86.6449 5.57529 86.6388 5.56922 86.6327 5.56922C83.9837 5.23555 80.0346 6.9949 74.9432 7.73504C72.7924 8.05051 67.0995 8.96659 59.6264 9.23353C58.2776 9.28206 50.3003 9.11219 47.1653 8.44485C46.4362 9.12433 45.7314 9.83413 45.0692 10.5803C46.8554 10.7623 48.6356 10.9019 50.4157 11.0293Z" fill="#326EA6"/>
<path d="M63.6912 7.37715C76.207 7.04348 79.6276 3.68857 83.03 3.4277C78.7284 1.23761 73.8618 0 68.7036 0C61.5647 0 54.9787 2.35996 49.6807 6.33974C51.9834 6.87968 62.1176 7.41962 63.6912 7.37715Z" fill="#6BBF64"/>
<path d="M16.1916 88.8413C15.6144 88.8049 14.861 88.7867 13.9375 88.7867C13.0444 88.7867 12.285 88.8049 11.6409 88.8413C11.6409 88.538 11.6774 88.2711 11.7564 88.0345C12.2303 87.9859 12.5523 87.8767 12.7163 87.7129C12.8804 87.5491 12.9593 87.2519 12.9593 86.809C12.9593 86.5602 12.9411 86.2448 12.9047 85.8686L12.2303 79.4258L8.33577 88.8171C8.12313 88.902 7.86795 88.9505 7.56416 88.9505L3.18362 79.45L2.58213 85.4804C2.54567 85.8565 2.52745 86.1841 2.52745 86.4571C2.52745 87.0335 2.62466 87.4278 2.81908 87.6523C3.0135 87.8707 3.34158 87.9981 3.80941 88.0345C3.87017 88.2468 3.90662 88.5137 3.90662 88.8413C3.30513 88.8049 2.63073 88.7867 1.89558 88.7867C1.15435 88.7867 0.528554 88.8049 0.0121231 88.8413C0.0121231 88.5137 0.0425014 88.2468 0.103258 88.0345C0.455646 87.9981 0.722975 87.9071 0.91132 87.7736C1.09967 87.6341 1.24548 87.3853 1.35484 87.0152C1.46421 86.6452 1.55534 86.081 1.62825 85.3166L2.22974 78.631C2.24189 78.5158 2.24796 78.3702 2.24796 78.1821C2.24796 77.6907 2.14468 77.3509 1.94418 77.1507C1.74369 76.9505 1.4156 76.8474 0.966001 76.8474C0.905245 76.6472 0.874866 76.3803 0.874866 76.0405C1.25156 76.0769 1.72546 76.0951 2.30265 76.0951C2.7644 76.0951 3.24437 76.0769 3.73043 76.0405L8.43298 86.4268L12.5341 76.0405C12.9593 76.0769 13.4515 76.0951 13.9983 76.0951C14.4479 76.0951 14.9279 76.0769 15.4261 76.0405C15.4261 76.3439 15.3957 76.6108 15.3289 76.8474C14.9036 76.8474 14.5815 76.9566 14.3628 77.1689C14.1441 77.3813 14.0347 77.7513 14.0347 78.2792C14.0347 78.4794 14.0408 78.6371 14.053 78.7463L14.7274 85.6381C14.7881 86.263 14.8732 86.7422 14.9704 87.0759C15.0676 87.4096 15.2073 87.6401 15.3835 87.7797C15.5597 87.9192 15.7967 87.9981 16.1005 88.0223C16.1612 88.2225 16.1916 88.5016 16.1916 88.8413Z" fill="#333333"/>
<path d="M28.841 87.6644C29.0233 87.8828 29.3635 88.0041 29.8678 88.0284C29.9286 88.2043 29.959 88.4713 29.959 88.8353C29.2056 88.7989 28.4461 88.7807 27.6806 88.7807C26.8057 88.7807 26.0462 88.7989 25.4022 88.8353C25.4022 88.4713 25.4326 88.2043 25.4994 88.0284C26.0037 88.0041 26.3439 87.8828 26.5262 87.6644C26.7085 87.446 26.7996 87.0213 26.7996 86.3965V79.6745L21.0642 86.5845C21.0763 87.1245 21.1796 87.4945 21.368 87.6947C21.5563 87.8949 21.8905 88.0102 22.3644 88.0345C22.4251 88.2104 22.4616 88.4773 22.4616 88.8413C21.7082 88.8049 20.9488 88.7867 20.1832 88.7867C19.3022 88.7867 18.5489 88.8049 17.9048 88.8413C17.9048 88.4773 17.9352 88.2104 17.996 88.0345C18.5003 88.0102 18.8405 87.8889 19.0228 87.6705C19.205 87.4521 19.2962 87.0274 19.2962 86.4025V78.4794C19.2962 77.8545 19.205 77.4298 19.0228 77.2114C18.8405 76.993 18.5003 76.8717 17.996 76.8474C17.9352 76.6715 17.9048 76.4045 17.9048 76.0405C18.5914 76.0769 19.3509 76.0951 20.1832 76.0951C20.9488 76.0951 21.7082 76.0769 22.4616 76.0405C22.4616 76.4045 22.4312 76.6715 22.3644 76.8474C21.8601 76.8717 21.5199 76.993 21.3376 77.2114C21.1553 77.4298 21.0642 77.8545 21.0642 78.4794V85.2013L26.7996 78.2731C26.7875 77.7332 26.6842 77.3691 26.5019 77.175C26.3136 76.9809 25.9794 76.8717 25.5055 76.8474C25.4447 76.6715 25.4083 76.4045 25.4083 76.0405C26.0948 76.0769 26.8543 76.0951 27.6867 76.0951C28.4522 76.0951 29.2116 76.0769 29.965 76.0405C29.965 76.4045 29.9346 76.6715 29.8739 76.8474C29.3696 76.8717 29.0294 76.993 28.8471 77.2114C28.6648 77.4298 28.5737 77.8545 28.5737 78.4794V86.4025C28.5676 87.0213 28.6588 87.446 28.841 87.6644Z" fill="#333333"/>
<path d="M43.0035 87.6644C43.1858 87.8828 43.5261 88.0041 44.0303 88.0284C44.0911 88.2043 44.1215 88.4712 44.1215 88.8352C43.3681 88.7988 42.6086 88.7806 41.8431 88.7806C40.9682 88.7806 40.2087 88.7988 39.5647 88.8352C39.5647 88.4712 39.5951 88.2043 39.6619 88.0284C40.1662 88.0041 40.5065 87.8828 40.6887 87.6644C40.871 87.446 40.9621 87.0213 40.9621 86.3964V82.6775C38.0883 82.6775 36.1806 82.7139 35.2267 82.7928V86.3964C35.2267 87.0213 35.3178 87.446 35.5001 87.6644C35.6824 87.8828 36.0226 88.0041 36.5269 88.0284C36.5877 88.2043 36.6241 88.4712 36.6241 88.8352C35.8707 88.7988 35.1113 88.7806 34.3457 88.7806C33.4648 88.7806 32.7114 88.7988 32.0674 88.8352C32.0674 88.4712 32.0977 88.2043 32.1585 88.0284C32.6628 88.0041 33.003 87.8828 33.1853 87.6644C33.3676 87.446 33.4587 87.0213 33.4587 86.3964V78.4733C33.4587 77.8484 33.3676 77.4237 33.1853 77.2053C33.003 76.9869 32.6628 76.8656 32.1585 76.8413C32.0977 76.6654 32.0674 76.3984 32.0674 76.0344C32.7539 76.0708 33.5134 76.089 34.3457 76.089C35.1113 76.089 35.8707 76.0708 36.6241 76.0344C36.6241 76.3984 36.5937 76.6654 36.5269 76.8413C36.0226 76.8656 35.6824 76.9869 35.5001 77.2053C35.3178 77.4237 35.2267 77.8484 35.2267 78.4733V81.8706H40.9621V78.4733C40.9621 77.8484 40.871 77.4237 40.6887 77.2053C40.5065 76.9869 40.1662 76.8656 39.6619 76.8413C39.6012 76.6654 39.5647 76.3984 39.5647 76.0344C40.2513 76.0708 41.0107 76.089 41.8431 76.089C42.6086 76.089 43.3681 76.0708 44.1215 76.0344C44.1215 76.3984 44.0911 76.6654 44.0303 76.8413C43.5261 76.8656 43.1858 76.9869 43.0035 77.2053C42.8213 77.4237 42.7301 77.8484 42.7301 78.4733V86.3964C42.7301 87.0213 42.8213 87.446 43.0035 87.6644Z" fill="#333333"/>
<path d="M46.3269 88.0284C46.8311 88.0041 47.1714 87.8828 47.3536 87.6644C47.5359 87.446 47.627 87.0213 47.627 86.3964V78.4733C47.627 77.8241 47.5359 77.3873 47.3536 77.1689C47.1714 76.9505 46.8311 76.8413 46.3269 76.8413C46.2661 76.6654 46.2357 76.3984 46.2357 76.0344C46.9223 76.0708 48.5627 76.089 51.1448 76.089H53.1741C55.6955 76.089 57.3299 76.0708 58.0832 76.0344C58.0832 76.3984 58.0529 76.6654 57.9921 76.8413C57.4878 76.8413 57.1476 76.9505 56.9653 77.1689C56.7831 77.3873 56.6919 77.8241 56.6919 78.4733V86.3964C56.6919 87.0213 56.7831 87.446 56.9653 87.6644C57.1476 87.8828 57.4878 88.0041 57.9921 88.0284C58.0529 88.2043 58.0832 88.4712 58.0832 88.8352C57.3299 88.7988 56.5704 88.7806 55.8049 88.7806C54.93 88.7806 54.1705 88.7988 53.5265 88.8352C53.5265 88.4712 53.5569 88.2043 53.6237 88.0284C54.128 88.0041 54.4682 87.8828 54.6505 87.6644C54.8328 87.446 54.9239 87.0213 54.9239 86.3964V78.5279C54.9239 78.1517 54.8875 77.8423 54.8206 77.5996C54.7538 77.357 54.6262 77.181 54.4561 77.084C54.3042 76.999 54.0794 76.9384 53.7695 76.9141C53.4597 76.8898 52.925 76.8777 52.1595 76.8777C51.3939 76.8777 50.8593 76.8898 50.5494 76.9141C50.2396 76.9384 50.0148 76.993 49.8629 77.084C49.6867 77.1871 49.5652 77.357 49.4983 77.5996C49.4315 77.8423 49.3951 78.1517 49.3951 78.5279V86.3964C49.3951 87.0213 49.4862 87.446 49.6685 87.6644C49.8507 87.8828 50.191 88.0041 50.6953 88.0284C50.756 88.2043 50.7925 88.4712 50.7925 88.8352C50.0391 88.7988 49.2796 88.7806 48.5141 88.7806C47.6331 88.7806 46.8797 88.7988 46.2357 88.8352C46.2296 88.4773 46.26 88.2043 46.3269 88.0284Z" fill="#333333"/>
<path d="M68.3693 77.0719C69.0559 77.7514 69.4022 78.625 69.4022 79.6927C69.4022 80.445 69.2381 81.1487 68.9101 81.8039C68.582 82.4591 68.0959 82.9991 67.4519 83.4116C66.8079 83.8242 66.0302 84.0304 65.131 84.0304C64.6024 84.0304 64.165 83.9637 63.8126 83.8242C63.7883 83.6725 63.7761 83.5572 63.7761 83.4662C63.7761 83.3145 63.7943 83.1811 63.8308 83.0537C64.1467 83.1265 64.4748 83.1689 64.8272 83.1689C66.5952 83.1689 67.4762 82.1922 67.4762 80.2387C67.4762 79.1892 67.221 78.3641 66.7046 77.7696C66.1882 77.175 65.3862 76.8777 64.2986 76.8777C64.0252 76.8777 63.7032 76.9141 63.3387 76.993V86.0264C63.3387 86.5663 63.3934 86.9728 63.5088 87.2579C63.6242 87.537 63.7943 87.7372 64.0252 87.8403C64.2561 87.9495 64.5842 88.0102 65.0156 88.0345C65.0763 88.2104 65.1128 88.4773 65.1128 88.8413C64.5356 88.8049 63.7457 88.7867 62.7433 88.7867C61.5281 88.7867 60.6715 88.8049 60.1854 88.8413C60.1854 88.4773 60.2158 88.2104 60.2765 88.0345C60.7808 88.0102 61.1211 87.8889 61.3033 87.6705C61.4856 87.4521 61.5767 87.0274 61.5767 86.4025V78.4794C61.5767 77.8545 61.4856 77.4298 61.3033 77.2114C61.1211 76.993 60.7808 76.8717 60.2765 76.8474C60.2158 76.6715 60.1854 76.4045 60.1854 76.0405C60.8355 76.0769 61.6922 76.0951 62.7433 76.0951L65.131 76.0587C66.6013 76.0466 67.6767 76.3924 68.3693 77.0719Z" fill="#333333"/>
<path d="M82.0517 87.6644C82.234 87.8828 82.5743 88.0041 83.0785 88.0284C83.1393 88.2043 83.1697 88.4713 83.1697 88.8353C82.4163 88.7989 81.6568 88.7807 80.8913 88.7807C80.0164 88.7807 79.2569 88.7989 78.6129 88.8353C78.6129 88.4713 78.6433 88.2043 78.7101 88.0284C79.2144 88.0041 79.5546 87.8828 79.7369 87.6644C79.9192 87.446 80.0103 87.0213 80.0103 86.3965V79.6745L74.2749 86.5845C74.287 87.1245 74.3903 87.4945 74.5787 87.6947C74.767 87.8949 75.1012 88.0102 75.5751 88.0345C75.6358 88.2104 75.6723 88.4773 75.6723 88.8413C74.9189 88.8049 74.1595 88.7867 73.3939 88.7867C72.513 88.7867 71.7596 88.8049 71.1156 88.8413C71.1156 88.4773 71.1459 88.2104 71.2067 88.0345C71.711 88.0102 72.0512 87.8889 72.2335 87.6705C72.4157 87.4521 72.5069 87.0274 72.5069 86.4025V78.4794C72.5069 77.8545 72.4157 77.4298 72.2335 77.2114C72.0512 76.993 71.711 76.8717 71.2067 76.8474C71.1459 76.6715 71.1156 76.4045 71.1156 76.0405C71.8021 76.0769 72.5616 76.0951 73.3939 76.0951C74.1595 76.0951 74.9189 76.0769 75.6723 76.0405C75.6723 76.4045 75.6419 76.6715 75.5751 76.8474C75.0708 76.8717 74.7306 76.993 74.5483 77.2114C74.366 77.4298 74.2749 77.8545 74.2749 78.4794V85.2013L80.0103 78.2731C79.9982 77.7332 79.8949 77.3691 79.7126 77.175C79.5243 76.9809 79.1901 76.8717 78.7162 76.8474C78.6554 76.6715 78.619 76.4045 78.619 76.0405C79.3055 76.0769 80.065 76.0951 80.8974 76.0951C81.6629 76.0951 82.4224 76.0769 83.1757 76.0405C83.1757 76.4045 83.1454 76.6715 83.0846 76.8474C82.5803 76.8717 82.2401 76.993 82.0578 77.2114C81.8755 77.4298 81.7844 77.8545 81.7844 78.4794V86.4025C81.7783 87.0213 81.8695 87.446 82.0517 87.6644Z" fill="#333333"/>
<path d="M93.4557 77.0719C94.1423 77.7514 94.4886 78.625 94.4886 79.6927C94.4886 80.445 94.3246 81.1487 93.9965 81.8039C93.6684 82.4591 93.1823 82.9991 92.5383 83.4116C91.8943 83.8242 91.1166 84.0304 90.2174 84.0304C89.6888 84.0304 89.2514 83.9637 88.899 83.8242C88.8747 83.6725 88.8625 83.5572 88.8625 83.4662C88.8625 83.3145 88.8808 83.1811 88.9172 83.0537C89.2332 83.1265 89.5613 83.1689 89.9136 83.1689C91.6817 83.1689 92.5626 82.1922 92.5626 80.2387C92.5626 79.1892 92.3074 78.3641 91.791 77.7696C91.2746 77.175 90.4726 76.8777 89.3851 76.8777C89.1116 76.8777 88.7896 76.9141 88.4251 76.993V86.0264C88.4251 86.5663 88.4798 86.9728 88.5952 87.2579C88.7107 87.537 88.8808 87.7372 89.1117 87.8403C89.3425 87.9495 89.6706 88.0102 90.102 88.0345C90.1627 88.2104 90.1992 88.4773 90.1992 88.8413C89.622 88.8049 88.8322 88.7867 87.8297 88.7867C86.6146 88.7867 85.7579 88.8049 85.2718 88.8413C85.2718 88.4773 85.3022 88.2104 85.363 88.0345C85.8673 88.0102 86.2075 87.8889 86.3898 87.6705C86.572 87.4521 86.6632 87.0274 86.6632 86.4025V78.4794C86.6632 77.8545 86.572 77.4298 86.3898 77.2114C86.2075 76.993 85.8673 76.8717 85.363 76.8474C85.3022 76.6715 85.2718 76.4045 85.2718 76.0405C85.9219 76.0769 86.7786 76.0951 87.8297 76.0951L90.2174 76.0587C91.6877 76.0466 92.7692 76.3924 93.4557 77.0719Z" fill="#333333"/>
<path d="M98.7778 88.0951C97.8361 87.5248 97.107 86.7422 96.5845 85.7473C96.062 84.7523 95.8068 83.636 95.8068 82.3924C95.8068 81.1426 96.0802 80.0203 96.6271 79.0375C97.1739 78.0546 97.9212 77.2902 98.8629 76.7382C99.8107 76.1861 100.862 75.9131 102.016 75.9131C103.207 75.9131 104.276 76.1861 105.224 76.7321C106.172 77.2781 106.913 78.0425 107.442 79.0253C107.976 80.0081 108.244 81.1305 108.244 82.3984C108.244 83.6239 107.976 84.7341 107.442 85.7351C106.907 86.7301 106.166 87.5187 105.224 88.089C104.276 88.6653 103.207 88.9505 102.016 88.9505C100.801 88.9505 99.7196 88.6654 98.7778 88.0951ZM104.471 87.3549C105.066 86.906 105.522 86.2872 105.832 85.5046C106.148 84.722 106.3 83.8484 106.3 82.8838C106.3 81.7675 106.093 80.7483 105.686 79.8201C105.279 78.8919 104.714 78.1638 104.003 77.6239C103.286 77.084 102.49 76.817 101.615 76.817C100.874 76.817 100.212 77.0294 99.6224 77.454C99.033 77.8787 98.5713 78.4732 98.2371 79.2377C97.903 80.0021 97.7389 80.8817 97.7389 81.8827C97.7389 82.9566 97.9212 83.9697 98.2918 84.904C98.6624 85.8443 99.1971 86.5966 99.9018 87.1669C100.607 87.7371 101.433 88.0223 102.387 88.0223C103.183 88.0283 103.875 87.8039 104.471 87.3549Z" fill="#333333"/>
<path d="M121.124 88.7078C120.948 89.4722 120.863 90.546 120.863 91.9414C120.711 91.9899 120.517 92.0142 120.28 92.0142C120.031 92.0142 119.824 91.9899 119.66 91.9414C119.672 90.8615 119.587 89.812 119.399 88.7867H110.559C110.37 89.812 110.285 90.8676 110.298 91.9414C110.133 91.9899 109.927 92.0142 109.678 92.0142C109.441 92.0142 109.246 91.9899 109.095 91.9414C109.095 90.5521 109.003 89.4722 108.833 88.7078C108.833 88.4348 108.931 88.2043 109.113 88.0344H109.356C110.407 88.0344 111.209 87.088 111.762 85.2012C112.315 83.3084 112.661 81.0819 112.795 78.5157C112.807 78.3883 112.813 78.2245 112.813 78.0061C112.813 77.6906 112.776 77.4601 112.71 77.3084C112.643 77.1567 112.515 77.0536 112.333 76.9869C112.151 76.9262 111.865 76.8716 111.476 76.8352C111.415 76.6593 111.385 76.3923 111.385 76.0283C112.175 76.0647 113.761 76.0829 116.142 76.0829C118.099 76.0829 119.447 76.0647 120.189 76.0283C120.189 76.3923 120.158 76.6593 120.091 76.8352C119.587 76.8595 119.247 76.9808 119.065 77.1992C118.882 77.4176 118.791 77.8423 118.791 78.4671V86.3903C118.791 87.0394 118.882 87.4763 119.065 87.6947C119.247 87.9131 119.587 88.0223 120.091 88.0223H120.845C121.033 88.1921 121.124 88.4227 121.124 88.7078ZM117.023 78.4732C117.023 78.0607 116.993 77.7573 116.938 77.5632C116.884 77.3691 116.774 77.2235 116.61 77.1203C116.361 76.9687 115.966 76.8959 115.425 76.8959C114.763 76.8959 114.32 76.9747 114.107 77.1385C113.967 77.2417 113.876 77.3873 113.834 77.5814C113.791 77.7755 113.755 78.0728 113.73 78.4732C113.554 81.088 113.317 83.1689 113.013 84.7098C112.71 86.2508 112.266 87.3367 111.677 87.9798H115.383C115.832 87.9798 116.173 87.9373 116.397 87.8585C116.622 87.7796 116.78 87.6219 116.877 87.3913C116.969 87.1608 117.017 86.8089 117.017 86.3478V78.4732H117.023Z" fill="#333333"/>
<path d="M132.109 84.9707C132.109 86.1113 131.745 87.0274 131.009 87.7311C130.274 88.4348 129.223 88.7806 127.862 88.7806C125.553 88.7806 123.968 88.7988 123.105 88.8352C123.105 88.4712 123.135 88.2043 123.196 88.0284C123.548 88.0041 123.816 87.9434 123.998 87.8403C124.18 87.7372 124.308 87.5612 124.393 87.3064C124.472 87.0516 124.514 86.6755 124.514 86.1901V78.4733C124.514 77.8484 124.423 77.4237 124.241 77.2053C124.059 76.9869 123.719 76.8656 123.214 76.8413C123.154 76.6654 123.123 76.3984 123.123 76.0344C123.609 76.0708 124.466 76.089 125.681 76.089C126.683 76.089 127.473 76.0708 128.05 76.0344C128.05 76.3984 128.02 76.6654 127.953 76.8413C127.528 76.8656 127.2 76.9323 126.969 77.0415C126.738 77.1507 126.562 77.3448 126.453 77.6239C126.337 77.903 126.282 78.3155 126.282 78.8555V81.7675C126.848 81.7068 127.334 81.6765 127.747 81.6765C130.657 81.6644 132.109 82.7685 132.109 84.9707ZM129.46 87.3004C129.861 86.8514 130.062 86.2144 130.062 85.3833C130.062 84.3337 129.782 83.5875 129.223 83.1568C128.664 82.726 128.032 82.5076 127.334 82.5076C127.036 82.5076 126.683 82.5258 126.282 82.5622V86.1901C126.282 86.8757 126.38 87.3489 126.574 87.5976C126.769 87.8464 127.127 87.9738 127.656 87.9738C128.451 87.9738 129.053 87.7493 129.46 87.3004ZM135.882 87.6644C136.064 87.8828 136.405 88.0041 136.909 88.0284C136.97 88.2043 137 88.4712 137 88.8352C136.247 88.7988 135.487 88.7806 134.722 88.7806C133.847 88.7806 133.087 88.7988 132.443 88.8352C132.443 88.4712 132.474 88.2043 132.54 88.0284C133.045 88.0041 133.385 87.8828 133.567 87.6644C133.749 87.446 133.841 87.0213 133.841 86.3964V78.4733C133.841 77.8484 133.749 77.4237 133.567 77.2053C133.385 76.9869 133.045 76.8656 132.54 76.8413C132.48 76.6654 132.443 76.3984 132.443 76.0344C133.13 76.0708 133.889 76.089 134.722 76.089C135.487 76.089 136.247 76.0708 137 76.0344C137 76.3984 136.97 76.6654 136.909 76.8413C136.405 76.8656 136.064 76.9869 135.882 77.2053C135.7 77.4237 135.609 77.8484 135.609 78.4733V86.3964C135.609 87.0213 135.7 87.446 135.882 87.6644Z" fill="#333333"/>
<path d="M39.3399 96.1214C40.0264 96.8009 40.3727 97.6745 40.3727 98.7423C40.3727 99.4945 40.2087 100.198 39.8806 100.853C39.5525 101.509 39.0665 102.049 38.4225 102.461C37.7784 102.874 37.0007 103.08 36.1015 103.08C35.573 103.08 35.1355 103.013 34.7831 102.874C34.7588 102.722 34.7467 102.607 34.7467 102.516C34.7467 102.364 34.7649 102.231 34.8014 102.103C35.1173 102.176 35.4454 102.219 35.7978 102.219C37.5658 102.219 38.4468 101.242 38.4468 99.2883C38.4468 98.2387 38.1916 97.4136 37.6751 96.8191C37.1587 96.2246 36.3567 95.9273 35.2692 95.9273C34.9958 95.9273 34.6738 95.9637 34.3092 96.0426V105.076C34.3092 105.616 34.3639 106.022 34.4793 106.307C34.5948 106.587 34.7649 106.787 34.9958 106.89C35.2267 106.999 35.5547 107.06 35.98 107.084C36.0408 107.26 36.0772 107.527 36.0772 107.891C35.5001 107.854 34.7102 107.836 33.7077 107.836C32.4926 107.836 31.6359 107.854 31.1499 107.891C31.1499 107.527 31.1803 107.26 31.241 107.084C31.7453 107.06 32.0855 106.938 32.2678 106.72C32.4501 106.502 32.5412 106.077 32.5412 105.452V97.5289C32.5412 96.904 32.4501 96.4794 32.2678 96.261C32.0855 96.0426 31.7453 95.9212 31.241 95.897C31.1803 95.721 31.1499 95.4541 31.1499 95.0901C31.8 95.1265 32.6567 95.1447 33.7077 95.1447L36.0955 95.1083C37.5719 95.1022 38.6473 95.442 39.3399 96.1214Z" fill="#333333"/>
<path d="M44.6621 107.151C43.7204 106.58 42.9913 105.798 42.4688 104.803C41.9463 103.808 41.6911 102.692 41.6911 101.448C41.6911 100.198 41.9645 99.0759 42.5113 98.0931C43.0581 97.1103 43.8054 96.3459 44.7471 95.7938C45.6949 95.2418 46.746 94.9688 47.9004 94.9688C49.0912 94.9688 50.1605 95.2418 51.1083 95.7878C52.0562 96.3338 52.7974 97.0982 53.326 98.081C53.8606 99.0638 54.1279 100.186 54.1279 101.454C54.1279 102.68 53.8606 103.79 53.326 104.791C52.7913 105.786 52.0501 106.574 51.1083 107.145C50.1605 107.721 49.0912 108.006 47.9004 108.006C46.6792 108 45.6038 107.715 44.6621 107.151ZM50.3489 106.405C50.9443 105.956 51.4 105.337 51.7098 104.554C52.0258 103.772 52.1777 102.898 52.1777 101.933C52.1777 100.817 51.9711 99.7979 51.564 98.8697C51.157 97.9415 50.5919 97.2135 49.8811 96.6735C49.1641 96.1336 48.3682 95.8666 47.4933 95.8666C46.7521 95.8666 46.0899 96.079 45.5005 96.5036C44.9112 96.9283 44.4494 97.5228 44.1153 98.2873C43.7811 99.0517 43.6171 99.9313 43.6171 100.932C43.6171 102.006 43.8054 103.019 44.1699 103.954C44.5406 104.894 45.0752 105.646 45.78 106.216C46.4848 106.787 47.3111 107.072 48.2649 107.072C49.0609 107.084 49.7535 106.86 50.3489 106.405Z" fill="#333333"/>
<path d="M58.3263 107.169C57.415 106.611 56.7102 105.834 56.1999 104.833C55.6895 103.832 55.4404 102.686 55.4404 101.393C55.4404 100.016 55.732 98.8454 56.3153 97.8808C56.8986 96.9162 57.6702 96.1882 58.6301 95.7028C59.5901 95.2175 60.6229 94.9688 61.7226 94.9688C62.4882 94.9688 63.1929 95.0476 63.8491 95.2054C64.4992 95.3631 65.1858 95.6118 65.8966 95.9455C65.7569 96.5946 65.69 97.5653 65.69 98.8575C65.4166 98.9728 65.0825 99.0274 64.6936 99.0274C64.645 97.7777 64.3838 96.9162 63.922 96.443C63.4603 95.9758 62.7737 95.7392 61.8745 95.7392C60.8599 95.7392 60.0214 95.9758 59.3531 96.4551C58.6909 96.9283 58.1987 97.5593 57.8889 98.3297C57.573 99.1063 57.4211 99.9556 57.4211 100.884C57.4211 102.012 57.6155 103.025 57.9922 103.935C58.3749 104.845 58.9278 105.555 59.6569 106.077C60.386 106.599 61.2366 106.853 62.2148 106.853C62.8041 106.853 63.4117 106.75 64.0375 106.55C64.6632 106.35 65.2465 106.083 65.7872 105.743C65.8602 105.804 65.9331 105.895 66.006 106.016C66.0728 106.138 66.1153 106.241 66.1275 106.326C65.3619 106.914 64.6207 107.339 63.8977 107.606C63.1747 107.867 62.3545 108 61.4249 108C60.2645 108 59.2316 107.721 58.3263 107.169Z" fill="#333333"/>
<path d="M70.2286 107.169C69.3172 106.611 68.6124 105.834 68.1021 104.833C67.5917 103.832 67.3426 102.686 67.3426 101.393C67.3426 100.016 67.6343 98.8454 68.2175 97.8808C68.8008 96.9162 69.5724 96.1882 70.5324 95.7028C71.4923 95.2175 72.5252 94.9688 73.6249 94.9688C74.3904 94.9688 75.0952 95.0476 75.7513 95.2054C76.4014 95.3631 77.088 95.6118 77.7988 95.9455C77.6591 96.5946 77.5923 97.5653 77.5923 98.8575C77.3189 98.9728 76.9847 99.0274 76.5959 99.0274C76.5473 97.7777 76.286 96.9162 75.8243 96.443C75.3625 95.9758 74.676 95.7392 73.7768 95.7392C72.7621 95.7392 71.9237 95.9758 71.2554 96.4551C70.5931 96.9283 70.101 97.5593 69.7911 98.3297C69.4752 99.1063 69.3233 99.9556 69.3233 100.884C69.3233 102.012 69.5116 103.025 69.8944 103.935C70.2772 104.845 70.8301 105.555 71.5591 106.077C72.2882 106.599 73.1388 106.853 74.117 106.853C74.7063 106.853 75.3139 106.75 75.9397 106.55C76.5655 106.35 77.1488 106.083 77.6895 105.743C77.7624 105.804 77.8353 105.895 77.9082 106.016C77.9811 106.138 78.0176 106.241 78.0297 106.326C77.2642 106.914 76.523 107.339 75.8 107.606C75.077 107.867 74.2567 108 73.3272 108C72.1728 108 71.1399 107.721 70.2286 107.169Z" fill="#333333"/>
<path d="M90.9586 106.714C91.1409 106.932 91.4811 107.054 91.9854 107.078C92.0462 107.254 92.0765 107.521 92.0765 107.885C91.3232 107.848 90.5637 107.83 89.7982 107.83C88.9233 107.83 88.1638 107.848 87.5198 107.885C87.5198 107.521 87.5502 107.254 87.617 107.078C88.1213 107.054 88.4615 106.932 88.6438 106.714C88.8261 106.496 88.9172 106.071 88.9172 105.446V98.7241L83.1818 105.634C83.1939 106.174 83.2972 106.544 83.4856 106.744C83.6739 106.944 84.0081 107.06 84.482 107.084C84.5427 107.26 84.5792 107.527 84.5792 107.891C83.8258 107.854 83.0663 107.836 82.3008 107.836C81.4198 107.836 80.6665 107.854 80.0224 107.891C80.0224 107.527 80.0528 107.26 80.1136 107.084C80.6178 107.06 80.9581 106.938 81.1404 106.72C81.3226 106.502 81.4138 106.077 81.4138 105.452V97.5289C81.4138 96.904 81.3226 96.4794 81.1404 96.261C80.9581 96.0426 80.6178 95.9212 80.1136 95.897C80.0528 95.721 80.0224 95.4541 80.0224 95.0901C80.709 95.1265 81.4684 95.1447 82.3008 95.1447C83.0663 95.1447 83.8258 95.1265 84.5792 95.0901C84.5792 95.4541 84.5488 95.721 84.482 95.897C83.9777 95.9212 83.6375 96.0426 83.4552 96.261C83.2729 96.4794 83.1818 96.904 83.1818 97.5289V104.251L88.9172 97.3226C88.905 96.7827 88.8018 96.4187 88.6195 96.2246C88.4311 96.0304 88.097 95.9212 87.6231 95.897C87.5623 95.721 87.5259 95.4541 87.5259 95.0901C88.2124 95.1265 88.9719 95.1447 89.8042 95.1447C90.5698 95.1447 91.3292 95.1265 92.0826 95.0901C92.0826 95.4541 92.0522 95.721 91.9915 95.897C91.4872 95.9212 91.147 96.0426 90.9647 96.261C90.7824 96.4794 90.6913 96.904 90.6913 97.5289V105.452C90.6852 106.077 90.7764 106.496 90.9586 106.714Z" fill="#333333"/>
<path d="M105.121 106.714C105.303 106.932 105.644 107.054 106.148 107.078C106.209 107.254 106.239 107.521 106.239 107.885C105.486 107.848 104.726 107.83 103.961 107.83C103.086 107.83 102.326 107.848 101.682 107.885C101.682 107.521 101.713 107.254 101.779 107.078C102.284 107.054 102.624 106.932 102.806 106.714C102.988 106.496 103.08 106.071 103.08 105.446V98.7241L97.3442 105.634C97.3563 106.174 97.4596 106.544 97.648 106.744C97.8363 106.944 98.1705 107.06 98.6444 107.084C98.7051 107.26 98.7416 107.527 98.7416 107.891C97.9882 107.854 97.2287 107.836 96.4632 107.836C95.5822 107.836 94.8289 107.854 94.1848 107.891C94.1848 107.527 94.2152 107.26 94.276 107.084C94.7802 107.06 95.1205 106.938 95.3028 106.72C95.485 106.502 95.5762 106.077 95.5762 105.452V97.5289C95.5762 96.904 95.485 96.4794 95.3028 96.261C95.1205 96.0426 94.7802 95.9212 94.276 95.897C94.2152 95.721 94.1848 95.4541 94.1848 95.0901C94.8714 95.1265 95.6308 95.1447 96.4632 95.1447C97.2287 95.1447 97.9882 95.1265 98.7416 95.0901C98.7416 95.4541 98.7112 95.721 98.6444 95.897C98.1401 95.9212 97.7999 96.0426 97.6176 96.261C97.4353 96.4794 97.3442 96.904 97.3442 97.5289V104.251L103.08 97.3226C103.067 96.7827 102.964 96.4187 102.782 96.2246C102.594 96.0304 102.259 95.9212 101.785 95.897C101.725 95.721 101.688 95.4541 101.688 95.0901C102.375 95.1265 103.134 95.1447 103.967 95.1447C104.732 95.1447 105.492 95.1265 106.245 95.0901C106.245 95.4541 106.215 95.721 106.154 95.897C105.65 95.9212 105.309 96.0426 105.127 96.261C104.945 96.4794 104.854 96.904 104.854 97.5289V105.452C104.848 106.077 104.939 106.496 105.121 106.714Z" fill="#333333"/>
</g>
<defs>
<clipPath id="clip0">
<rect width="137" height="108" fill="white"/>
</clipPath>
</defs>
</svg>
