<?xml version="1.0" standalone="no"?>
<!DOCTYPE svg PUBLIC "-//W3C//DTD SVG 1.1//EN" "http://www.w3.org/Graphics/SVG/1.1/DTD/svg11.dtd" >
<svg xmlns="http://www.w3.org/2000/svg" xmlns:xlink="http://www.w3.org/1999/xlink" version="1.1">
<metadata>
Created by FontForge 20190801 at Sat Oct  3 09:11:21 2020
 By Jimmy Wärting
Copyright \(c\) 2020 by Igor Stepanchenko. All rights reserved.
</metadata>
<defs>
<font id="Angry-Regular" horiz-adv-x="760" >
  <font-face 
    font-family="Angry"
    font-weight="400"
    font-stretch="normal"
    units-per-em="1000"
    panose-1="0 0 0 0 0 0 0 0 0 0"
    ascent="750"
    descent="-250"
    x-height="700"
    cap-height="700"
    bbox="-70 -195 1175 950"
    underline-thickness="50"
    underline-position="-125"
    stemh="120"
    stemv="130"
    unicode-range="U+000D-203A"
  />
<missing-glyph horiz-adv-x="500" 
 />
    <glyph glyph-name=".notdef" horiz-adv-x="500" 
 />
    <glyph glyph-name="uni0000" horiz-adv-x="0" 
 />
    <glyph glyph-name="uni0000" horiz-adv-x="0" 
 />
    <glyph glyph-name="uni000D" unicode="&#xd;" horiz-adv-x="250" 
 />
    <glyph glyph-name="space" unicode=" " horiz-adv-x="500" 
 />
    <glyph glyph-name="uni0410" unicode="&#x410;" horiz-adv-x="800" 
d="M10 0l240 700h300l240 -700h-135l-75 220l-380 -65l-55 -155h-135zM240 280l300 50l-85 250h-110z" />
    <glyph glyph-name="uni0411" unicode="&#x411;" horiz-adv-x="740" 
d="M60 0v700h600v-120h-470v-110l280 -25c150 -13 240 -100 240 -215s-80 -230 -240 -230h-410zM190 120h275c60 0 115 30 115 105s-60 100 -115 105l-275 25v-235z" />
    <glyph glyph-name="uni0412" unicode="&#x412;" horiz-adv-x="740" 
d="M60 0v700h385c120 0 215 -50 215 -180c0 -85 -50 -129 -50 -130c0 0 100 -45 100 -170s-80 -220 -240 -220h-410zM190 455l300 -30s40 35 40 85c0 45 -30 75 -100 75h-240v-130zM190 120h275c55 0 115 20 115 95s-45 94 -115 100l-275 25v-220z" />
    <glyph glyph-name="uni0413" unicode="&#x413;" horiz-adv-x="620" 
d="M60 0v700h540v-120h-410v-580h-130z" />
    <glyph glyph-name="uni0490" unicode="&#x490;" horiz-adv-x="610" 
d="M60 0v700h400v100h130v-220h-400v-580h-130z" />
    <glyph glyph-name="uni0403" unicode="&#x403;" horiz-adv-x="610" 
d="M280 775l50 175h120l-70 -175h-100zM60 0v700h530v-120h-400v-580h-130z" />
    <glyph glyph-name="uni0414" unicode="&#x414;" horiz-adv-x="790" 
d="M10 -125l40 245h85l-85 580h690l-85 -580h85l40 -245h-125l-25 125h-470l-25 -125h-125zM265 120h260l65 460h-390z" />
    <glyph glyph-name="uni0415" unicode="&#x415;" horiz-adv-x="700" 
d="M60 0v700h600v-120h-470v-115h355v-120h-355v-225h470v-120h-600z" />
    <glyph glyph-name="uni0401" unicode="&#x401;" horiz-adv-x="700" 
d="M465 780c-40 0 -70 30 -70 70s30 70 70 70s70 -30 70 -70s-30 -70 -70 -70zM265 780c-40 0 -70 30 -70 70s30 70 70 70s70 -30 70 -70s-30 -70 -70 -70zM60 0v700h600v-120h-470v-115h355v-120h-355v-225h470v-120h-600z" />
    <glyph glyph-name="uni0404" unicode="&#x404;" horiz-adv-x="780" 
d="M415 -20c-250 0 -385 180 -385 370s135 370 385 370c240 0 330 -155 355 -260l-130 -15c-20 65 -75 155 -225 155c-118 0 -208 -68 -241 -165h291v-120h-303c15 -123 111 -215 253 -215c125 0 200 70 230 105l110 -70c-30 -35 -120 -155 -340 -155z" />
    <glyph glyph-name="uni0416" unicode="&#x416;" horiz-adv-x="1090" 
d="M480 -1v216l-105 110l-205 -325h-140l255 410l-275 290h160l310 -320v319h130v-319l310 320h160l-275 -290l250 -410h-140l-200 325l-105 -110v-216h-130z" />
    <glyph glyph-name="uni0417" unicode="&#x417;" horiz-adv-x="730" 
d="M350 100c140 0 220 45 220 120c0 45 -30 125 -180 125h-170l-35 60l255 180h-385v115h575l54 -76l-259 -184c235 -1 275 -155 275 -225c0 -120 -105 -235 -350 -235c-220 0 -310 120 -340 155l110 70c30 -35 105 -105 230 -105z" />
    <glyph glyph-name="uni0418" unicode="&#x418;" 
d="M60 0v700h130v-475l410 475h100v-700h-130v475l-410 -475h-100z" />
    <glyph glyph-name="uni0419" unicode="&#x419;" 
d="M220 775v100h350v-100h-350zM60 0v700h130v-475l410 475h100v-700h-130v475l-410 -475h-100z" />
    <glyph glyph-name="uni0406" unicode="&#x406;" horiz-adv-x="250" 
d="M60 0v700h130v-700h-130z" />
    <glyph glyph-name="uni0407" unicode="&#x407;" horiz-adv-x="260" 
d="M230 780c-40 0 -70 30 -70 70s30 70 70 70s70 -30 70 -70s-30 -70 -70 -70zM30 780c-40 0 -70 30 -70 70s30 70 70 70s70 -30 70 -70s-30 -70 -70 -70zM60 0v700h130v-700h-130z" />
    <glyph glyph-name="uni041A" unicode="&#x41a;" horiz-adv-x="720" 
d="M60 -1v700h130v-324l345 325h175l-305 -290l295 -410h-150l-235 325l-125 -120v-206h-130z" />
    <glyph glyph-name="uni040C" unicode="&#x40c;" horiz-adv-x="720" 
d="M305 775l50 175h120l-70 -175h-100zM60 -1v700h130v-324l345 325h175l-305 -290l295 -410h-150l-235 325l-125 -120v-206h-130z" />
    <glyph glyph-name="uni041B" unicode="&#x41b;" 
d="M40 0v120h130l-150 580h680v-700h-130v580h-390l150 -580h-290z" />
    <glyph glyph-name="uni041C" unicode="&#x41c;" horiz-adv-x="960" 
d="M30 0l85 700h140l225 -475l225 475h140l85 -700h-130l-60 500l-180 -380h-160l-180 380l-60 -500h-130z" />
    <glyph glyph-name="uni041D" unicode="&#x41d;" horiz-adv-x="750" 
d="M60 0v700h130v-200h370v200h130v-700h-130v380h-370v-380h-130z" />
    <glyph glyph-name="uni041E" unicode="&#x41e;" horiz-adv-x="830" 
d="M415 -20c-250 0 -385 180 -385 370s135 370 385 370s385 -180 385 -370s-135 -370 -385 -370zM415 100c150 0 255 110 255 250s-105 250 -255 250s-255 -110 -255 -250s105 -250 255 -250z" />
    <glyph glyph-name="uni041F" unicode="&#x41f;" horiz-adv-x="750" 
d="M60 0v700h630v-700h-130v580h-370v-580h-130z" />
    <glyph glyph-name="uni0420" unicode="&#x420;" horiz-adv-x="750" 
d="M60 0v700h650v-230c0 -115 -90 -207 -240 -220l-280 -25v-225h-130zM190 345l275 25c55 5 115 30 115 105v105h-390v-235z" />
    <glyph glyph-name="uni0421" unicode="&#x421;" horiz-adv-x="780" 
d="M415 -20c-250 0 -385 180 -385 370s135 370 385 370c240 0 330 -155 355 -260l-130 -15c-20 65 -75 155 -225 155s-255 -110 -255 -250s100 -250 255 -250c125 0 200 70 230 105l110 -70c-30 -35 -120 -155 -340 -155z" />
    <glyph glyph-name="uni0422" unicode="&#x422;" horiz-adv-x="670" 
d="M270 0v580h-250v120h630v-120h-250v-580h-130z" />
    <glyph glyph-name="uni0423" unicode="&#x423;" horiz-adv-x="810" 
d="M385 0h-145l140 240l-370 460h165l275 -340l200 340h150z" />
    <glyph glyph-name="uni040E" unicode="&#x40e;" horiz-adv-x="810" 
d="M230 775v100h350v-100h-350zM385 0h-145l140 240l-370 460h165l275 -340l200 340h150z" />
    <glyph glyph-name="uni0424" unicode="&#x424;" horiz-adv-x="920" 
d="M520 -40h-120v115c-210 5 -360 155 -360 315v310h360v75h120v-75h360v-310c0 -160 -150 -310 -360 -315v-115zM400 195v390h-235v-195c0 -110 105 -190 235 -195zM520 585v-390c130 5 235 85 235 195v195h-235z" />
    <glyph glyph-name="uni0425" unicode="&#x425;" horiz-adv-x="750" 
d="M10 0l275 350l-275 350h160l205 -260l205 260h160l-275 -350l275 -350h-160l-205 260l-205 -260h-160z" />
    <glyph glyph-name="uni0426" unicode="&#x426;" horiz-adv-x="805" 
d="M60 0v700h130v-580h370v580h130v-580h105v-240h-130v120h-605z" />
    <glyph glyph-name="uni0427" unicode="&#x427;" horiz-adv-x="740" 
d="M550 0v225l-270 25c-150 14 -240 105 -240 220v230h130v-225c0 -75 60 -100 115 -105l265 -25v355h130v-700h-130z" />
    <glyph glyph-name="uni0428" unicode="&#x428;" horiz-adv-x="1130" 
d="M60 0v700h130v-580h310v580h130v-580h310v580h130v-700h-1010z" />
    <glyph glyph-name="uni0429" unicode="&#x429;" horiz-adv-x="1185" 
d="M60 0v700h130v-580h310v580h130v-580h310v580h130v-580h105v-240h-130v120h-985z" />
    <glyph glyph-name="uni042A" unicode="&#x42a;" horiz-adv-x="820" 
d="M10 580v120h260v-195l280 -25c150 -13 240 -105 240 -235s-80 -245 -240 -245h-410v580h-130zM270 120h275c60 0 115 30 115 120s-60 115 -115 120l-275 25v-265z" />
    <glyph glyph-name="uni042B" unicode="&#x42b;" horiz-adv-x="984" 
d="M794 0v700h130v-700h-130zM60 0v700h130v-195l280 -25c150 -13 240 -105 240 -235s-80 -245 -240 -245h-410zM190 120h275c60 0 115 30 115 120s-60 115 -115 120l-275 25v-265z" />
    <glyph glyph-name="uni042C" unicode="&#x42c;" horiz-adv-x="740" 
d="M60 0v700h130v-195l280 -25c150 -13 240 -105 240 -235s-80 -245 -240 -245h-410zM190 120h275c60 0 115 30 115 120s-60 115 -115 120l-275 25v-265z" />
    <glyph glyph-name="uni042D" unicode="&#x42d;" horiz-adv-x="780" 
d="M365 -20c-220 0 -310 120 -340 155l110 70c30 -35 105 -105 230 -105c142 0 238 92 253 215h-303v120h291c-33 97 -123 165 -241 165c-150 0 -205 -90 -225 -155l-130 15c25 105 115 260 355 260c250 0 385 -180 385 -370s-135 -370 -385 -370z" />
    <glyph glyph-name="uni042E" unicode="&#x42e;" horiz-adv-x="1110" 
d="M60 0v700h130v-335l122 23c17 175 150 332 383 332c250 0 385 -180 385 -370s-135 -370 -385 -370c-212 0 -341 129 -376 284l-129 -24v-240h-130zM695 100c150 0 255 110 255 250s-105 250 -255 250s-255 -110 -255 -250s105 -250 255 -250z" />
    <glyph glyph-name="uni042F" unicode="&#x42f;" 
d="M200 0h-150l161 266c-102 33 -161 111 -161 204v230h650v-700h-130v225l-221 20zM295 370l275 -25v235h-390v-105c0 -75 60 -100 115 -105z" />
    <glyph glyph-name="uni0405" unicode="&#x405;" horiz-adv-x="690" 
d="M360 -20c-220 0 -310 120 -340 155l110 70c30 -35 105 -105 230 -105c90 0 170 25 170 90c0 140 -490 50 -490 310c0 110 100 220 290 220c170 0 275 -90 315 -190l-130 -25c-25 50 -90 95 -190 95c-105 0 -155 -50 -155 -100c0 -135 490 -40 490 -310
c0 -150 -130 -210 -300 -210z" />
    <glyph glyph-name="uni0408" unicode="&#x408;" horiz-adv-x="660" 
d="M315 -20c-205 0 -295 125 -295 300v100h130v-100c0 -130 70 -180 165 -180s165 50 165 180v420h130v-420c0 -175 -90 -300 -295 -300z" />
    <glyph glyph-name="uni0409" unicode="&#x409;" horiz-adv-x="1150" 
d="M40 0v120h130l-150 580h630v-195l230 -25c150 -16 240 -105 240 -235s-80 -245 -240 -245h-360v580h-340l150 -580h-290zM650 120h225c60 0 115 30 115 120s-60 114 -115 120l-225 25v-265z" />
    <glyph glyph-name="uni040A" unicode="&#x40a;" horiz-adv-x="1140" 
d="M60 0v700h130v-150l320 -30v180h130v-195l230 -25c150 -16 240 -105 240 -235s-80 -245 -240 -245h-360v400l-320 30v-430h-130zM640 120h225c60 0 115 30 115 120s-60 114 -115 120l-225 25v-265z" />
    <glyph glyph-name="uni040B" unicode="&#x40b;" horiz-adv-x="890" 
d="M250 0v580h-230v120h590v-120h-230v-105l230 -25c150 -16 240 -105 240 -235v-215h-130v210c0 90 -60 114 -115 120l-225 25v-355h-130z" />
    <glyph glyph-name="uni0402" unicode="&#x402;" horiz-adv-x="890" 
d="M250 0v580h-230v120h590v-120h-230v-105l230 -25c150 -16 240 -105 240 -235v-215h-260v120h130v90c0 90 -60 114 -115 120l-225 25v-355h-130z" />
    <glyph glyph-name="uni040F" unicode="&#x40f;" horiz-adv-x="750" 
d="M60 0v700h130v-580h370v580h130v-700h-250v-150h-130v150h-250z" />
    <glyph glyph-name="Yukrcyr_Yukrcyr" horiz-adv-x="500" 
d="M0 780c-40 0 -70 30 -70 70s30 70 70 70s70 -30 70 -70s-30 -70 -70 -70zM500 780c-40 0 -70 30 -70 70s30 70 70 70s70 -30 70 -70s-30 -70 -70 -70zM250 780c-40 0 -70 30 -70 70s30 70 70 70s70 -30 70 -70s-30 -70 -70 -70zM60 0v700h130v-700h-130zM310 0v700h130
v-700h-130z" />
    <glyph glyph-name="Decyr.loclBGR" horiz-adv-x="880" 
d="M55 -125l-35 245h88l182 580h300l182 -580h88l-35 -245h-130l20 125h-550l20 -125h-130zM238 120h404l-142 450h-120z" />
    <glyph glyph-name="Elcyr.loclBGR" horiz-adv-x="800" 
d="M10 0l250 700h280l250 -700h-135l-205 570h-100l-205 -570h-135z" />
    <glyph glyph-name="A" unicode="A" horiz-adv-x="800" 
d="M10 0l240 700h300l240 -700h-135l-75 220l-380 -65l-55 -155h-135zM240 280l300 50l-85 250h-110z" />
    <glyph glyph-name="B" unicode="B" horiz-adv-x="740" 
d="M60 0v700h385c120 0 215 -50 215 -180c0 -85 -50 -129 -50 -130c0 0 100 -45 100 -170s-80 -220 -240 -220h-410zM190 455l300 -30s40 35 40 85c0 45 -30 75 -100 75h-240v-130zM190 120h275c55 0 115 20 115 95s-45 94 -115 100l-275 25v-220z" />
    <glyph glyph-name="C" unicode="C" horiz-adv-x="780" 
d="M415 -20c-250 0 -385 180 -385 370s135 370 385 370c240 0 330 -155 355 -260l-130 -15c-20 65 -75 155 -225 155s-255 -110 -255 -250s100 -250 255 -250c125 0 200 70 230 105l110 -70c-30 -35 -120 -155 -340 -155z" />
    <glyph glyph-name="D" unicode="D" horiz-adv-x="770" 
d="M390 0h-330v700h670v-310c0 -230 -60 -390 -340 -390zM390 120c175 0 210 75 210 270v190h-410v-460h200z" />
    <glyph glyph-name="E" unicode="E" horiz-adv-x="700" 
d="M60 0v700h600v-120h-470v-115h355v-120h-355v-225h470v-120h-600z" />
    <glyph glyph-name="F" unicode="F" horiz-adv-x="670" 
d="M60 0v700h580v-120h-450v-140h335v-120h-335v-320h-130z" />
    <glyph glyph-name="G" unicode="G" horiz-adv-x="810" 
d="M415 -20c-250 0 -385 175 -385 370s135 370 385 370c205 0 330 -120 355 -225l-130 -15c-20 65 -115 120 -225 120c-150 0 -255 -110 -255 -250s105 -250 255 -250s235 85 235 85v80h-175v115h295v-380h-120v50s-90 -70 -235 -70z" />
    <glyph glyph-name="H" unicode="H" horiz-adv-x="750" 
d="M60 0v700h130v-200h370v200h130v-700h-130v380h-370v-380h-130z" />
    <glyph glyph-name="I" unicode="I" horiz-adv-x="250" 
d="M60 0v700h130v-700h-130z" />
    <glyph glyph-name="J" unicode="J" horiz-adv-x="660" 
d="M315 -20c-205 0 -295 125 -295 300v100h130v-100c0 -130 70 -180 165 -180s165 50 165 180v420h130v-420c0 -175 -90 -300 -295 -300z" />
    <glyph glyph-name="K" unicode="K" horiz-adv-x="720" 
d="M60 -1v700h130v-324l345 325h175l-305 -290l295 -410h-150l-235 325l-125 -120v-206h-130z" />
    <glyph glyph-name="L" unicode="L" horiz-adv-x="645" 
d="M60 0v700h130v-580h435v-120h-565z" />
    <glyph glyph-name="M" unicode="M" horiz-adv-x="960" 
d="M30 0l85 700h140l225 -475l225 475h140l85 -700h-130l-60 500l-180 -380h-160l-180 380l-60 -500h-130z" />
    <glyph glyph-name="N" unicode="N" 
d="M60 0v700h105l405 -475v475h130v-700h-105l-405 475v-475h-130z" />
    <glyph glyph-name="O" unicode="O" horiz-adv-x="830" 
d="M415 -20c-250 0 -385 180 -385 370s135 370 385 370s385 -180 385 -370s-135 -370 -385 -370zM415 100c150 0 255 110 255 250s-105 250 -255 250s-255 -110 -255 -250s105 -250 255 -250z" />
    <glyph glyph-name="P" unicode="P" horiz-adv-x="750" 
d="M60 0v700h650v-230c0 -115 -90 -207 -240 -220l-280 -25v-225h-130zM190 345l275 25c55 5 115 30 115 105v105h-390v-235z" />
    <glyph glyph-name="Q" unicode="Q" horiz-adv-x="830" 
d="M415 -20c-250 0 -385 180 -385 370s135 370 385 370s385 -180 385 -370c0 -104 -41 -206 -119 -276l69 -69l-85 -85l-89 89c-47 -18 -101 -29 -161 -29zM415 100c22 0 43 2 63 7l-93 93l85 85l120 -120c50 45 80 111 80 185c0 140 -105 250 -255 250s-255 -110 -255 -250
s105 -250 255 -250z" />
    <glyph glyph-name="R" unicode="R" 
d="M60 0v700h650v-230c0 -93 -59 -171 -161 -204l161 -266h-150l-149 245l-221 -20v-225h-130zM190 345l275 25c55 5 115 30 115 105v105h-390v-235z" />
    <glyph glyph-name="S" unicode="S" horiz-adv-x="690" 
d="M360 -20c-220 0 -310 120 -340 155l110 70c30 -35 105 -105 230 -105c90 0 170 25 170 90c0 140 -490 50 -490 310c0 110 100 220 290 220c170 0 275 -90 315 -190l-130 -25c-25 50 -90 95 -190 95c-105 0 -155 -50 -155 -100c0 -135 490 -40 490 -310
c0 -150 -130 -210 -300 -210z" />
    <glyph glyph-name="T" unicode="T" horiz-adv-x="670" 
d="M270 0v580h-250v120h630v-120h-250v-580h-130z" />
    <glyph glyph-name="U" unicode="U" 
d="M380 -20c-225 0 -330 150 -330 345v375h130v-375c0 -140 75 -220 200 -220c135 0 200 79 200 220v375h130v-375c0 -195 -105 -345 -330 -345z" />
    <glyph glyph-name="V" unicode="V" horiz-adv-x="800" 
d="M260 0l-250 700h135l205 -570h100l205 570h135l-250 -700h-280z" />
    <glyph glyph-name="W" unicode="W" horiz-adv-x="1120" 
d="M10 700h135l165 -500l160 500h180l160 -500l165 500h135l-240 -700h-120l-190 590l-190 -590h-120z" />
    <glyph glyph-name="X" unicode="X" horiz-adv-x="750" 
d="M10 0l275 350l-275 350h160l205 -260l205 260h160l-275 -350l275 -350h-160l-205 260l-205 -260h-160z" />
    <glyph glyph-name="Y" unicode="Y" 
d="M315 0v255l-305 445h150l220 -320l220 320h150l-305 -445v-255h-130z" />
    <glyph glyph-name="Z" unicode="Z" horiz-adv-x="680" 
d="M30 0v125l440 455h-435v120h610v-125l-440 -455h445v-120h-620z" />
    <glyph glyph-name="zero" unicode="0" horiz-adv-x="830" 
d="M415 -20c-250 0 -385 180 -385 370s135 370 385 370s385 -180 385 -370s-135 -370 -385 -370zM415 100c150 0 255 110 255 250s-105 250 -255 250s-255 -110 -255 -250s105 -250 255 -250z" />
    <glyph glyph-name="one" unicode="1" horiz-adv-x="370" 
d="M180 0v580h-160v120h290v-700h-130z" />
    <glyph glyph-name="two" unicode="2" horiz-adv-x="650" 
d="M20 0v190c0 270 490 175 490 310c0 50 -50 100 -155 100c-100 0 -165 -45 -190 -95l-130 25c40 100 145 190 315 190c190 0 290 -110 290 -220c0 -260 -490 -170 -490 -310v-70h470v-120h-600z" />
    <glyph glyph-name="three" unicode="3" horiz-adv-x="730" 
d="M350 100c140 0 220 45 220 120c0 45 -30 125 -180 125h-170l-35 60l255 180h-385v115h575l54 -76l-259 -184c235 -1 275 -155 275 -225c0 -120 -105 -235 -350 -235c-220 0 -310 120 -340 155l110 70c30 -35 105 -105 230 -105z" />
    <glyph glyph-name="four" unicode="4" horiz-adv-x="700" 
d="M50 215v485h130v-365h318l52 365h130l-100 -700h-130l31 215h-431z" />
    <glyph glyph-name="five" unicode="5" horiz-adv-x="730" 
d="M425 460c235 -1 275 -175 275 -245c0 -120 -105 -235 -350 -235c-220 0 -310 120 -340 155l110 70c30 -35 105 -105 230 -105c140 0 220 45 220 120c0 45 -30 125 -180 125h-330l50 355h540v-120h-430l-20 -120h225z" />
    <glyph glyph-name="six" unicode="6" horiz-adv-x="740" 
d="M380 -20c-200 0 -327 80 -330 230v250c0 130 105 260 335 260c170 0 275 -90 315 -190l-130 -25c-25 50 -90 95 -190 95c-115 0 -200 -50 -200 -125l254 -40c196 -31 276 -95 276 -225c0 -150 -130 -230 -330 -230zM380 100c125 0 200 35 200 115c0 70 -60 88 -159 103
l-241 37v-140c0 -80 75 -115 200 -115z" />
    <glyph glyph-name="seven" unicode="7" horiz-adv-x="671" 
d="M20 580v120h640l-330 -700h-140l273 580h-443z" />
    <glyph glyph-name="eight" unicode="8" 
d="M160 200c0 -55 80 -100 220 -100s220 45 220 100c0 65 -80 110 -220 110s-220 -45 -220 -110zM380 420c90 0 170 25 170 90s-80 90 -170 90s-170 -25 -170 -90s80 -90 170 -90zM380 -20c-245 0 -350 115 -350 220c0 62 37 127 117 171c-42 32 -67 78 -67 139
c0 150 130 210 300 210s300 -60 300 -210c0 -61 -25 -107 -67 -139c80 -44 117 -109 117 -171c0 -105 -105 -220 -350 -220z" />
    <glyph glyph-name="nine" unicode="9" horiz-adv-x="740" 
d="M360 720c200 0 327 -80 330 -230v-250c0 -130 -70 -260 -299 -260v-1c-220 0 -310 121 -340 156l110 70c29 -35 104 -105 229 -105c115 0 170 50 170 125l-254 40c-196 31 -276 95 -276 225c0 150 130 230 330 230zM360 600c-125 0 -200 -35 -200 -115
c0 -70 60 -88 159 -103l241 -37v140c0 80 -75 115 -200 115z" />
    <glyph glyph-name="hyphen" unicode="-" horiz-adv-x="450" 
d="M30 290v120h390v-120h-390z" />
    <glyph glyph-name="endash" unicode="&#x2013;" horiz-adv-x="660" 
d="M30 290v120h600v-120h-600z" />
    <glyph glyph-name="emdash" unicode="&#x2014;" horiz-adv-x="1060" 
d="M30 290v120h1000v-120h-1000z" />
    <glyph glyph-name="numbersign" unicode="#" horiz-adv-x="860" 
d="M420 0l43 175h-150l-43 -175h-120l43 175h-183l30 115h180l30 120h-180l30 115h178l42 175h120l-42 -175h150l42 175h120l-42 -175h182l-30 -115h-180l-30 -120h180l-30 -115h-177l-43 -175h-120zM340 290h150l30 120h-150z" />
    <glyph glyph-name="asterisk" unicode="*" horiz-adv-x="480" 
d="M150 340l-100 90l110 85l-135 40l45 120l115 -55l-10 130h130l-10 -130l115 55l45 -120l-135 -40l110 -85l-100 -90l-90 110z" />
    <glyph glyph-name="parenleft" unicode="(" horiz-adv-x="280" 
d="M185 -125c0 0 -145 175 -145 475s145 475 145 475l95 -50s-130 -150 -130 -425s130 -425 130 -425z" />
    <glyph glyph-name="parenright" unicode=")" horiz-adv-x="280" 
d="M95 -125l-95 50s130 150 130 425s-130 425 -130 425l95 50s145 -175 145 -475s-145 -475 -145 -475z" />
    <glyph glyph-name="bracketleft" unicode="[" horiz-adv-x="310" 
d="M60 -150v1000h240v-100h-120v-800h120v-100h-240z" />
    <glyph glyph-name="bracketright" unicode="]" horiz-adv-x="310" 
d="M250 850v-1000h-240v100h120v800h-120v100h240z" />
    <glyph glyph-name="exclam" unicode="!" horiz-adv-x="250" 
d="M60 190v510h130v-510h-130zM60 0v130h130v-130h-130z" />
    <glyph glyph-name="question" unicode="?" horiz-adv-x="620" 
d="M230 190c0 224 250 195 250 310c0 50 -50 100 -150 100s-165 -45 -190 -95l-130 25c40 100 145 190 315 190c185 0 285 -110 285 -220c0 -200 -250 -165 -250 -310h-130zM230 0v130h130v-130h-130z" />
    <glyph glyph-name="quotesingle" unicode="'" horiz-adv-x="160" 
d="M30 500l-10 200h120l-10 -200h-100z" />
    <glyph glyph-name="quotedbl" unicode="&#x22;" horiz-adv-x="330" 
d="M30 500l-10 200h120l-10 -200h-100zM200 500l-10 200h120l-10 -200h-100z" />
    <glyph glyph-name="comma" unicode="," horiz-adv-x="170" 
d="M20 -80v210h130v-130l-30 -80h-100z" />
    <glyph glyph-name="period" unicode="." horiz-adv-x="170" 
d="M20 0v130h130v-130h-130z" />
    <glyph glyph-name="periodcentered" unicode="&#xb7;" horiz-adv-x="170" 
d="M20 285v130h130v-130h-130z" />
    <glyph glyph-name="bullet" unicode="&#x2022;" horiz-adv-x="240" 
d="M20 275v200h200v-200h-200z" />
    <glyph glyph-name="colon" unicode=":" horiz-adv-x="170" 
d="M20 445v130h130v-130h-130zM20 125v130h130v-130h-130z" />
    <glyph glyph-name="semicolon" unicode=";" horiz-adv-x="170" 
d="M20 320v130h130v-130h-130zM20 -80v210h130v-130l-30 -80h-100z" />
    <glyph glyph-name="slash" unicode="/" horiz-adv-x="400" 
d="M10 -50l250 800h130l-250 -800h-130z" />
    <glyph glyph-name="backslash" unicode="\" horiz-adv-x="400" 
d="M140 750l250 -800h-130l-250 800h130z" />
    <glyph glyph-name="guillemotleft" unicode="&#xab;" horiz-adv-x="580" 
d="M210 110l-200 240l200 240l100 -80l-140 -160l140 -160zM460 110l-200 240l200 240l100 -80l-140 -160l140 -160z" />
    <glyph glyph-name="guillemotright" unicode="&#xbb;" horiz-adv-x="580" 
d="M570 350l-200 -240l-100 80l140 160l-140 160l100 80zM320 350l-200 -240l-100 80l140 160l-140 160l100 80z" />
    <glyph glyph-name="guilsinglleft" unicode="&#x2039;" horiz-adv-x="330" 
d="M210 110l-200 240l200 240l100 -80l-140 -160l140 -160z" />
    <glyph glyph-name="guilsinglright" unicode="&#x203a;" horiz-adv-x="330" 
d="M320 350l-200 -240l-100 80l140 160l-140 160l100 80z" />
    <glyph glyph-name="quotedblbase" unicode="&#x201e;" horiz-adv-x="350" 
d="M10 -75l50 175h115l-70 -175h-95zM175 -75l50 175h115l-70 -175h-95z" />
    <glyph glyph-name="quotedblleft" unicode="&#x201c;" horiz-adv-x="350" 
d="M175 525l70 175h95l-50 -175h-115zM10 525l70 175h95l-50 -175h-115z" />
    <glyph glyph-name="quotedblright" unicode="&#x201d;" horiz-adv-x="350" 
d="M10 525l50 175h115l-70 -175h-95zM175 525l50 175h115l-70 -175h-95z" />
    <glyph glyph-name="quotesinglbase" unicode="&#x201a;" horiz-adv-x="185" 
d="M10 -75l50 175h115l-70 -175h-95z" />
    <glyph glyph-name="quoteright" unicode="&#x2019;" horiz-adv-x="185" 
d="M10 525l50 175h115l-70 -175h-95z" />
    <glyph glyph-name="quoteleft" unicode="&#x2018;" horiz-adv-x="185" 
d="M175 700l-50 -175h-115l70 175h95z" />
    <glyph glyph-name="underscore" unicode="_" horiz-adv-x="500" 
d="M0 -195v120h500v-120h-500z" />
    <glyph glyph-name="asterisk.alt1" horiz-adv-x="610" 
d="M190 100l-120 95l150 150l-200 40l50 145l175 -60l-15 180h150l-15 -180l175 60l50 -145l-200 -40l150 -150l-120 -95l-115 155z" />
    <glyph glyph-name="uni0430" unicode="&#x430;" horiz-adv-x="800" 
d="M10 0l240 700h300l240 -700h-135l-75 220l-380 -65l-55 -155h-135zM240 280l300 50l-85 250h-110z" />
    <glyph glyph-name="uni0431" unicode="&#x431;" horiz-adv-x="740" 
d="M60 0v700h600v-120h-470v-110l280 -25c150 -13 240 -100 240 -215s-80 -230 -240 -230h-410zM190 120h275c60 0 115 30 115 105s-60 100 -115 105l-275 25v-235z" />
    <glyph glyph-name="uni0432" unicode="&#x432;" horiz-adv-x="740" 
d="M60 0v700h385c120 0 215 -50 215 -180c0 -85 -50 -129 -50 -130c0 0 100 -45 100 -170s-80 -220 -240 -220h-410zM190 455l300 -30s40 35 40 85c0 45 -30 75 -100 75h-240v-130zM190 120h275c55 0 115 20 115 95s-45 94 -115 100l-275 25v-220z" />
    <glyph glyph-name="uni0433" unicode="&#x433;" horiz-adv-x="620" 
d="M60 0v700h540v-120h-410v-580h-130z" />
    <glyph glyph-name="uni0491" unicode="&#x491;" horiz-adv-x="610" 
d="M60 0v700h400v100h130v-220h-400v-580h-130z" />
    <glyph glyph-name="uni0453" unicode="&#x453;" horiz-adv-x="610" 
d="M280 775l50 175h120l-70 -175h-100zM60 0v700h530v-120h-400v-580h-130z" />
    <glyph glyph-name="uni0434" unicode="&#x434;" horiz-adv-x="790" 
d="M10 -125l40 245h85l-85 580h690l-85 -580h85l40 -245h-125l-25 125h-470l-25 -125h-125zM265 120h260l65 460h-390z" />
    <glyph glyph-name="uni0435" unicode="&#x435;" horiz-adv-x="700" 
d="M60 0v700h600v-120h-470v-115h355v-120h-355v-225h470v-120h-600z" />
    <glyph glyph-name="uni0451" unicode="&#x451;" horiz-adv-x="700" 
d="M465 780c-40 0 -70 30 -70 70s30 70 70 70s70 -30 70 -70s-30 -70 -70 -70zM265 780c-40 0 -70 30 -70 70s30 70 70 70s70 -30 70 -70s-30 -70 -70 -70zM60 0v700h600v-120h-470v-115h355v-120h-355v-225h470v-120h-600z" />
    <glyph glyph-name="uni0454" unicode="&#x454;" horiz-adv-x="780" 
d="M415 -20c-250 0 -385 180 -385 370s135 370 385 370c240 0 330 -155 355 -260l-130 -15c-20 65 -75 155 -225 155c-118 0 -208 -68 -241 -165h291v-120h-303c15 -123 111 -215 253 -215c125 0 200 70 230 105l110 -70c-30 -35 -120 -155 -340 -155z" />
    <glyph glyph-name="uni0436" unicode="&#x436;" horiz-adv-x="1090" 
d="M480 -1v216l-105 110l-205 -325h-140l255 410l-275 290h160l310 -320v319h130v-319l310 320h160l-275 -290l250 -410h-140l-200 325l-105 -110v-216h-130z" />
    <glyph glyph-name="uni0437" unicode="&#x437;" horiz-adv-x="730" 
d="M350 100c140 0 220 45 220 120c0 45 -30 125 -180 125h-170l-35 60l255 180h-385v115h575l54 -76l-259 -184c235 -1 275 -155 275 -225c0 -120 -105 -235 -350 -235c-220 0 -310 120 -340 155l110 70c30 -35 105 -105 230 -105z" />
    <glyph glyph-name="uni0438" unicode="&#x438;" 
d="M60 0v700h130v-475l410 475h100v-700h-130v475l-410 -475h-100z" />
    <glyph glyph-name="uni0439" unicode="&#x439;" 
d="M220 775v100h350v-100h-350zM60 0v700h130v-475l410 475h100v-700h-130v475l-410 -475h-100z" />
    <glyph glyph-name="uni0456" unicode="&#x456;" horiz-adv-x="250" 
d="M60 0v700h130v-700h-130z" />
    <glyph glyph-name="uni0457" unicode="&#x457;" horiz-adv-x="260" 
d="M230 780c-40 0 -70 30 -70 70s30 70 70 70s70 -30 70 -70s-30 -70 -70 -70zM30 780c-40 0 -70 30 -70 70s30 70 70 70s70 -30 70 -70s-30 -70 -70 -70zM60 0v700h130v-700h-130z" />
    <glyph glyph-name="uni043A" unicode="&#x43a;" horiz-adv-x="720" 
d="M60 -1v700h130v-324l345 325h175l-305 -290l295 -410h-150l-235 325l-125 -120v-206h-130z" />
    <glyph glyph-name="uni045C" unicode="&#x45c;" horiz-adv-x="720" 
d="M305 775l50 175h120l-70 -175h-100zM60 -1v700h130v-324l345 325h175l-305 -290l295 -410h-150l-235 325l-125 -120v-206h-130z" />
    <glyph glyph-name="uni043B" unicode="&#x43b;" 
d="M40 0v120h130l-150 580h680v-700h-130v580h-390l150 -580h-290z" />
    <glyph glyph-name="uni043C" unicode="&#x43c;" horiz-adv-x="960" 
d="M30 0l85 700h140l225 -475l225 475h140l85 -700h-130l-60 500l-180 -380h-160l-180 380l-60 -500h-130z" />
    <glyph glyph-name="uni043D" unicode="&#x43d;" horiz-adv-x="750" 
d="M60 0v700h130v-200h370v200h130v-700h-130v380h-370v-380h-130z" />
    <glyph glyph-name="uni043E" unicode="&#x43e;" horiz-adv-x="830" 
d="M415 -20c-250 0 -385 180 -385 370s135 370 385 370s385 -180 385 -370s-135 -370 -385 -370zM415 100c150 0 255 110 255 250s-105 250 -255 250s-255 -110 -255 -250s105 -250 255 -250z" />
    <glyph glyph-name="uni043F" unicode="&#x43f;" horiz-adv-x="750" 
d="M60 0v700h630v-700h-130v580h-370v-580h-130z" />
    <glyph glyph-name="uni0440" unicode="&#x440;" horiz-adv-x="750" 
d="M60 0v700h650v-230c0 -115 -90 -207 -240 -220l-280 -25v-225h-130zM190 345l275 25c55 5 115 30 115 105v105h-390v-235z" />
    <glyph glyph-name="uni0441" unicode="&#x441;" horiz-adv-x="780" 
d="M415 -20c-250 0 -385 180 -385 370s135 370 385 370c240 0 330 -155 355 -260l-130 -15c-20 65 -75 155 -225 155s-255 -110 -255 -250s100 -250 255 -250c125 0 200 70 230 105l110 -70c-30 -35 -120 -155 -340 -155z" />
    <glyph glyph-name="uni0442" unicode="&#x442;" horiz-adv-x="670" 
d="M270 0v580h-250v120h630v-120h-250v-580h-130z" />
    <glyph glyph-name="uni0443" unicode="&#x443;" horiz-adv-x="810" 
d="M385 0h-145l140 240l-370 460h165l275 -340l200 340h150z" />
    <glyph glyph-name="uni045E" unicode="&#x45e;" horiz-adv-x="810" 
d="M230 775v100h350v-100h-350zM385 0h-145l140 240l-370 460h165l275 -340l200 340h150z" />
    <glyph glyph-name="uni0444" unicode="&#x444;" horiz-adv-x="920" 
d="M520 -40h-120v115c-210 5 -360 155 -360 315v310h360v75h120v-75h360v-310c0 -160 -150 -310 -360 -315v-115zM400 195v390h-235v-195c0 -110 105 -190 235 -195zM520 585v-390c130 5 235 85 235 195v195h-235z" />
    <glyph glyph-name="uni0445" unicode="&#x445;" horiz-adv-x="750" 
d="M10 0l275 350l-275 350h160l205 -260l205 260h160l-275 -350l275 -350h-160l-205 260l-205 -260h-160z" />
    <glyph glyph-name="uni0446" unicode="&#x446;" horiz-adv-x="805" 
d="M60 0v700h130v-580h370v580h130v-580h105v-240h-130v120h-605z" />
    <glyph glyph-name="uni0447" unicode="&#x447;" horiz-adv-x="740" 
d="M550 0v225l-270 25c-150 14 -240 105 -240 220v230h130v-225c0 -75 60 -100 115 -105l265 -25v355h130v-700h-130z" />
    <glyph glyph-name="uni0448" unicode="&#x448;" horiz-adv-x="1130" 
d="M60 0v700h130v-580h310v580h130v-580h310v580h130v-700h-1010z" />
    <glyph glyph-name="uni0449" unicode="&#x449;" horiz-adv-x="1185" 
d="M60 0v700h130v-580h310v580h130v-580h310v580h130v-580h105v-240h-130v120h-985z" />
    <glyph glyph-name="uni044A" unicode="&#x44a;" horiz-adv-x="820" 
d="M10 580v120h260v-195l280 -25c150 -13 240 -105 240 -235s-80 -245 -240 -245h-410v580h-130zM270 120h275c60 0 115 30 115 120s-60 115 -115 120l-275 25v-265z" />
    <glyph glyph-name="uni044B" unicode="&#x44b;" horiz-adv-x="984" 
d="M794 0v700h130v-700h-130zM60 0v700h130v-195l280 -25c150 -13 240 -105 240 -235s-80 -245 -240 -245h-410zM190 120h275c60 0 115 30 115 120s-60 115 -115 120l-275 25v-265z" />
    <glyph glyph-name="uni044C" unicode="&#x44c;" horiz-adv-x="740" 
d="M60 0v700h130v-195l280 -25c150 -13 240 -105 240 -235s-80 -245 -240 -245h-410zM190 120h275c60 0 115 30 115 120s-60 115 -115 120l-275 25v-265z" />
    <glyph glyph-name="uni044D" unicode="&#x44d;" horiz-adv-x="780" 
d="M365 -20c-220 0 -310 120 -340 155l110 70c30 -35 105 -105 230 -105c142 0 238 92 253 215h-303v120h291c-33 97 -123 165 -241 165c-150 0 -205 -90 -225 -155l-130 15c25 105 115 260 355 260c250 0 385 -180 385 -370s-135 -370 -385 -370z" />
    <glyph glyph-name="uni044E" unicode="&#x44e;" horiz-adv-x="1110" 
d="M60 0v700h130v-335l122 23c17 175 150 332 383 332c250 0 385 -180 385 -370s-135 -370 -385 -370c-212 0 -341 129 -376 284l-129 -24v-240h-130zM695 100c150 0 255 110 255 250s-105 250 -255 250s-255 -110 -255 -250s105 -250 255 -250z" />
    <glyph glyph-name="uni044F" unicode="&#x44f;" 
d="M200 0h-150l161 266c-102 33 -161 111 -161 204v230h650v-700h-130v225l-221 20zM295 370l275 -25v235h-390v-105c0 -75 60 -100 115 -105z" />
    <glyph glyph-name="uni0455" unicode="&#x455;" horiz-adv-x="690" 
d="M360 -20c-220 0 -310 120 -340 155l110 70c30 -35 105 -105 230 -105c90 0 170 25 170 90c0 140 -490 50 -490 310c0 110 100 220 290 220c170 0 275 -90 315 -190l-130 -25c-25 50 -90 95 -190 95c-105 0 -155 -50 -155 -100c0 -135 490 -40 490 -310
c0 -150 -130 -210 -300 -210z" />
    <glyph glyph-name="uni0458" unicode="&#x458;" horiz-adv-x="660" 
d="M315 -20c-205 0 -295 125 -295 300v100h130v-100c0 -130 70 -180 165 -180s165 50 165 180v420h130v-420c0 -175 -90 -300 -295 -300z" />
    <glyph glyph-name="uni0459" unicode="&#x459;" horiz-adv-x="1150" 
d="M40 0v120h130l-150 580h630v-195l230 -25c150 -16 240 -105 240 -235s-80 -245 -240 -245h-360v580h-340l150 -580h-290zM650 120h225c60 0 115 30 115 120s-60 114 -115 120l-225 25v-265z" />
    <glyph glyph-name="uni045A" unicode="&#x45a;" horiz-adv-x="1140" 
d="M60 0v700h130v-150l320 -30v180h130v-195l230 -25c150 -16 240 -105 240 -235s-80 -245 -240 -245h-360v400l-320 30v-430h-130zM640 120h225c60 0 115 30 115 120s-60 114 -115 120l-225 25v-265z" />
    <glyph glyph-name="uni045B" unicode="&#x45b;" horiz-adv-x="890" 
d="M250 0v580h-230v120h590v-120h-230v-105l230 -25c150 -16 240 -105 240 -235v-215h-130v210c0 90 -60 114 -115 120l-225 25v-355h-130z" />
    <glyph glyph-name="uni0452" unicode="&#x452;" horiz-adv-x="890" 
d="M250 0v580h-230v120h590v-120h-230v-105l230 -25c150 -16 240 -105 240 -235v-215h-260v120h130v90c0 90 -60 114 -115 120l-225 25v-355h-130z" />
    <glyph glyph-name="uni045F" unicode="&#x45f;" horiz-adv-x="750" 
d="M60 0v700h130v-580h370v580h130v-700h-250v-150h-130v150h-250z" />
    <glyph glyph-name="yukrcyr_yukrcyr" horiz-adv-x="500" 
d="M0 780c-40 0 -70 30 -70 70s30 70 70 70s70 -30 70 -70s-30 -70 -70 -70zM500 780c-40 0 -70 30 -70 70s30 70 70 70s70 -30 70 -70s-30 -70 -70 -70zM250 780c-40 0 -70 30 -70 70s30 70 70 70s70 -30 70 -70s-30 -70 -70 -70zM60 0v700h130v-700h-130zM310 0v700h130
v-700h-130z" />
    <glyph glyph-name="decyr.loclBGR" horiz-adv-x="880" 
d="M55 -125l-35 245h88l182 580h300l182 -580h88l-35 -245h-130l20 125h-550l20 -125h-130zM238 120h404l-142 450h-120z" />
    <glyph glyph-name="elcyr.loclBGR" horiz-adv-x="800" 
d="M10 0l250 700h280l250 -700h-135l-205 570h-100l-205 -570h-135z" />
    <glyph glyph-name="a" unicode="a" horiz-adv-x="800" 
d="M10 0l240 700h300l240 -700h-135l-75 220l-380 -65l-55 -155h-135zM240 280l300 50l-85 250h-110z" />
    <glyph glyph-name="b" unicode="b" horiz-adv-x="740" 
d="M60 0v700h385c120 0 215 -50 215 -180c0 -85 -50 -129 -50 -130c0 0 100 -45 100 -170s-80 -220 -240 -220h-410zM190 455l300 -30s40 35 40 85c0 45 -30 75 -100 75h-240v-130zM190 120h275c55 0 115 20 115 95s-45 94 -115 100l-275 25v-220z" />
    <glyph glyph-name="c" unicode="c" horiz-adv-x="780" 
d="M415 -20c-250 0 -385 180 -385 370s135 370 385 370c240 0 330 -155 355 -260l-130 -15c-20 65 -75 155 -225 155s-255 -110 -255 -250s100 -250 255 -250c125 0 200 70 230 105l110 -70c-30 -35 -120 -155 -340 -155z" />
    <glyph glyph-name="d" unicode="d" horiz-adv-x="770" 
d="M390 0h-330v700h670v-310c0 -230 -60 -390 -340 -390zM390 120c175 0 210 75 210 270v190h-410v-460h200z" />
    <glyph glyph-name="e" unicode="e" horiz-adv-x="700" 
d="M60 0v700h600v-120h-470v-115h355v-120h-355v-225h470v-120h-600z" />
    <glyph glyph-name="f" unicode="f" horiz-adv-x="670" 
d="M60 0v700h580v-120h-450v-140h335v-120h-335v-320h-130z" />
    <glyph glyph-name="g" unicode="g" horiz-adv-x="810" 
d="M415 -20c-250 0 -385 175 -385 370s135 370 385 370c205 0 330 -120 355 -225l-130 -15c-20 65 -115 120 -225 120c-150 0 -255 -110 -255 -250s105 -250 255 -250s235 85 235 85v80h-175v115h295v-380h-120v50s-90 -70 -235 -70z" />
    <glyph glyph-name="h" unicode="h" horiz-adv-x="750" 
d="M60 0v700h130v-200h370v200h130v-700h-130v380h-370v-380h-130z" />
    <glyph glyph-name="i" unicode="i" horiz-adv-x="250" 
d="M60 0v700h130v-700h-130z" />
    <glyph glyph-name="j" unicode="j" horiz-adv-x="660" 
d="M315 -20c-205 0 -295 125 -295 300v100h130v-100c0 -130 70 -180 165 -180s165 50 165 180v420h130v-420c0 -175 -90 -300 -295 -300z" />
    <glyph glyph-name="k" unicode="k" horiz-adv-x="720" 
d="M60 -1v700h130v-324l345 325h175l-305 -290l295 -410h-150l-235 325l-125 -120v-206h-130z" />
    <glyph glyph-name="l" unicode="l" horiz-adv-x="645" 
d="M60 0v700h130v-580h435v-120h-565z" />
    <glyph glyph-name="m" unicode="m" horiz-adv-x="960" 
d="M30 0l85 700h140l225 -475l225 475h140l85 -700h-130l-60 500l-180 -380h-160l-180 380l-60 -500h-130z" />
    <glyph glyph-name="n" unicode="n" 
d="M60 0v700h105l405 -475v475h130v-700h-105l-405 475v-475h-130z" />
    <glyph glyph-name="o" unicode="o" horiz-adv-x="830" 
d="M415 -20c-250 0 -385 180 -385 370s135 370 385 370s385 -180 385 -370s-135 -370 -385 -370zM415 100c150 0 255 110 255 250s-105 250 -255 250s-255 -110 -255 -250s105 -250 255 -250z" />
    <glyph glyph-name="p" unicode="p" horiz-adv-x="750" 
d="M60 0v700h650v-230c0 -115 -90 -207 -240 -220l-280 -25v-225h-130zM190 345l275 25c55 5 115 30 115 105v105h-390v-235z" />
    <glyph glyph-name="q" unicode="q" horiz-adv-x="830" 
d="M415 -20c-250 0 -385 180 -385 370s135 370 385 370s385 -180 385 -370c0 -104 -41 -206 -119 -276l69 -69l-85 -85l-89 89c-47 -18 -101 -29 -161 -29zM415 100c22 0 43 2 63 7l-93 93l85 85l120 -120c50 45 80 111 80 185c0 140 -105 250 -255 250s-255 -110 -255 -250
s105 -250 255 -250z" />
    <glyph glyph-name="r" unicode="r" 
d="M60 0v700h650v-230c0 -93 -59 -171 -161 -204l161 -266h-150l-149 245l-221 -20v-225h-130zM190 345l275 25c55 5 115 30 115 105v105h-390v-235z" />
    <glyph glyph-name="s" unicode="s" horiz-adv-x="690" 
d="M360 -20c-220 0 -310 120 -340 155l110 70c30 -35 105 -105 230 -105c90 0 170 25 170 90c0 140 -490 50 -490 310c0 110 100 220 290 220c170 0 275 -90 315 -190l-130 -25c-25 50 -90 95 -190 95c-105 0 -155 -50 -155 -100c0 -135 490 -40 490 -310
c0 -150 -130 -210 -300 -210z" />
    <glyph glyph-name="t" unicode="t" horiz-adv-x="670" 
d="M270 0v580h-250v120h630v-120h-250v-580h-130z" />
    <glyph glyph-name="u" unicode="u" 
d="M380 -20c-225 0 -330 150 -330 345v375h130v-375c0 -140 75 -220 200 -220c135 0 200 79 200 220v375h130v-375c0 -195 -105 -345 -330 -345z" />
    <glyph glyph-name="v" unicode="v" horiz-adv-x="800" 
d="M260 0l-250 700h135l205 -570h100l205 570h135l-250 -700h-280z" />
    <glyph glyph-name="w" unicode="w" horiz-adv-x="1120" 
d="M10 700h135l165 -500l160 500h180l160 -500l165 500h135l-240 -700h-120l-190 590l-190 -590h-120z" />
    <glyph glyph-name="x" unicode="x" horiz-adv-x="750" 
d="M10 0l275 350l-275 350h160l205 -260l205 260h160l-275 -350l275 -350h-160l-205 260l-205 -260h-160z" />
    <glyph glyph-name="y" unicode="y" 
d="M315 0v255l-305 445h150l220 -320l220 320h150l-305 -445v-255h-130z" />
    <glyph glyph-name="z" unicode="z" horiz-adv-x="680" 
d="M30 0v125l440 455h-435v120h610v-125l-440 -455h445v-120h-620z" />
    </font>
</defs>
</svg>
