<svg width="71" height="78" viewBox="0 0 71 78" fill="none" xmlns="http://www.w3.org/2000/svg">
<g clip-path="url(#clip0)">
<path d="M63.015 8.11328H0.0118713V70.3797V78H70.9923V70.3797V8.11328H63.015Z" fill="#349A2E"/>
<path d="M35.1728 10.5162L29.4015 4.79419L23.6614 10.4812L17.6354 4.51081L11.8013 10.291L6.30815 4.85242L1.57116 9.5457L0 7.98903L6.30815 1.7391L11.8013 7.18159L17.6354 1.40137L23.6614 7.36792L29.4015 1.68087L35.1728 7.40286L41.1675 1.46736L47.0721 7.31746L52.961 1.48289L58.6423 7.1156L64.3275 1.48289L71 8.09773L69.4288 9.65439L64.3275 4.59621L58.6423 10.2289L52.961 4.59621L47.0721 10.4308L41.1675 4.58068L35.1728 10.5162Z" fill="#349A2E"/>
<path d="M70.9929 0H0.0124512V2.20107H70.9929V0Z" fill="#349A2E"/>
</g>
<defs>
<clipPath id="clip0">
<rect width="71" height="78" fill="white"/>
</clipPath>
</defs>
</svg>
