<svg width="80" height="86" viewBox="0 0 80 86" fill="none" xmlns="http://www.w3.org/2000/svg">
<path d="M39.9183 77.3922C59.2949 77.3922 75.006 73.2364 75.006 68.1082H4.83057C4.83057 73.2364 20.5417 77.3922 39.9183 77.3922Z" fill="#349A2E"/>
<path d="M39.9183 21.8022C30.3872 21.8022 21.4101 20.8129 14.6334 19.0204C9.28979 17.6083 6.35959 15.9976 4.83057 14.4756V68.1124C4.83057 62.9842 20.5417 58.8283 39.9183 58.8283C59.2949 58.8283 75.006 62.9842 75.006 68.1124V14.4798C70.2058 19.2529 54.6811 21.8022 39.9183 21.8022Z" fill="#349A2E"/>
<path d="M39.9183 58.8286C20.5417 58.8286 4.83057 62.9844 4.83057 68.1126H75.0007C75.0007 62.9844 59.2949 58.8286 39.9183 58.8286Z" fill="#349A2E"/>
<path d="M39.9183 5.00982C48.8314 5.00982 56.061 6.92074 56.061 9.27979H75.006C75.0007 4.15583 59.2949 0 39.9183 0C20.5417 0 4.83057 4.15582 4.83057 9.28402H23.7756C23.7756 6.92497 30.9999 5.00982 39.9183 5.00982Z" fill="#349A2E"/>
<path d="M39.9183 18.5643C59.2949 18.5643 75.006 14.4085 75.006 9.28027H56.061C56.061 11.6393 48.8314 13.5502 39.9183 13.5502C31.0052 13.5502 23.7756 11.6393 23.7756 9.28027H4.83057C4.83057 14.4085 20.5417 18.5643 39.9183 18.5643Z" fill="#349A2E"/>
</svg>
