<svg width="18" height="20" viewBox="0 0 18 20" fill="none" xmlns="http://www.w3.org/2000/svg">
<path d="M17.9798 9.80208C17.9038 9.42408 17.6168 9.12308 17.2418 9.03108L10.3818 7.31508L12.9188 1.39408C13.1008 0.971082 12.9698 0.478082 12.6018 0.202082C12.2328 -0.0769181 11.7228 -0.065918 11.3678 0.226082L0.367821 9.22608C0.0748211 9.46608 -0.0581788 9.85008 0.0248212 10.2191C0.106821 10.5881 0.390821 10.8791 0.757821 10.9701L7.47682 12.6511L4.13182 18.5051C3.89682 18.9171 3.98282 19.4371 4.33782 19.7511C4.52582 19.9161 4.76282 20.0001 4.99982 20.0001C5.21082 20.0001 5.42182 19.9341 5.59982 19.8001L17.5998 10.8001C17.9078 10.5681 18.0568 10.1811 17.9798 9.80208Z" fill="#FD7247"/>
</svg>
