<svg width="138" height="105" viewBox="0 0 138 105" fill="none" xmlns="http://www.w3.org/2000/svg">
<g clip-path="url(#clip0)">
<path d="M137.006 0H38.3531C37.9445 0 37.58 0.24854 37.4254 0.629635L0.143451 103.492L0.0992712 103.592C-0.259687 104.359 0.436139 105.155 1.22032 104.972C1.23137 104.972 1.24241 104.967 1.25346 104.967C1.28107 104.961 1.31421 104.961 1.34182 104.95L114.403 63.7975C114.795 63.6539 115.06 63.2784 115.06 62.8586V45.643L137.453 33.9617C137.79 33.796 138.005 33.448 138.005 33.0724V0.994161C138 0.447372 137.553 0 137.006 0ZM41.396 31.9789V27.7095H42.9865V37.6677H41.396V33.3983H39.6178V37.6677H38.0549V27.7095H39.6178V31.9789H41.396ZM43.9805 37.6677L45.571 27.7095H47.8628L49.4532 37.6677H47.8738L47.6032 35.8616H45.6814L45.4108 37.6677H43.9805ZM53.7883 36.2427V27.7095H55.3843V36.2758H56.0691V39.0043H54.5449V37.6677H50.4473V27.7095H52.0101V36.2427H53.7883ZM59.1009 31.8187L60.3821 27.7095H62.1051V37.6677H60.6969V30.6533L60.0563 33.1L58.7475 37.6677H57.1405V27.7095H58.5321V34.0114L59.1009 31.8187ZM63.2593 35.2762V30.101C63.2593 28.5103 64.0987 27.599 65.6339 27.599C67.1692 27.599 68.0086 28.5103 68.0086 30.101V35.2817C68.0086 36.8723 67.1692 37.7836 65.6339 37.7836C64.0987 37.7781 63.2593 36.8723 63.2593 35.2762ZM72.5259 31.9789V27.7095H74.1164V37.6677H72.5259V33.3983H70.7477V37.6677H69.1793V27.7095H70.7477V31.9789H72.5259ZM75.6627 49.6142H74.0722V41.0809H72.294V49.6142H70.7312V39.656H75.6682V49.6142H75.6627ZM76.5684 37.6677H75.1325L76.7285 27.7095H79.0148L80.6053 37.6677H79.0258L78.7552 35.8616H76.8334L76.5684 37.6677ZM78.4791 49.6142H76.9163V39.656H79.2191C80.782 39.656 81.5496 40.5231 81.5496 42.1138V43.4062C81.5496 44.9968 80.782 45.8695 79.2191 45.8695H78.4791V49.6142ZM87.0665 37.6677H85.476V29.1344H84.112L83.9408 35.1491C83.8856 36.9717 83.2284 37.6787 81.6656 37.6787H81.4281V36.2537C82.1405 36.2537 82.3669 36.1543 82.3945 35.232L82.6486 27.7095H87.072V37.6677H87.0665ZM87.2543 42.0475V47.2227C87.2543 48.8133 86.4148 49.7246 84.8796 49.7246C83.3444 49.7246 82.505 48.8133 82.505 47.2227V42.0475C82.505 40.4513 83.3444 39.5455 84.8796 39.5455C86.4148 39.5455 87.2543 40.4513 87.2543 42.0475ZM83.2671 55.3637C83.2671 56.9544 82.4995 57.8215 80.9366 57.8215H80.1966V61.5607H78.6338V51.608H80.9366C82.4995 51.608 83.2671 52.4751 83.2671 54.0713V55.3637ZM88.9717 59.1747C88.9717 60.7709 88.1323 61.6767 86.5971 61.6767C85.0619 61.6767 84.2224 60.7653 84.2224 59.1747V53.9995C84.2224 52.4033 85.0619 51.4975 86.5971 51.4975C88.1323 51.4975 88.9717 52.4089 88.9717 53.9995V59.1747ZM90.645 31.4486C92.2079 31.4486 92.9755 32.3158 92.9755 33.9119V35.2044C92.9755 36.795 92.2079 37.6677 90.645 37.6677H88.3422V27.7095H89.9105V31.4542H90.645V31.4486ZM92.1361 43.8536V45.2785H89.9879V48.1947H92.6883V49.6142H88.425V39.656H92.6883V41.0809H89.9879V43.8536H92.1361ZM94.7206 54.9605H93.2406V53.8946C93.2406 53.1821 92.9258 52.9115 92.4288 52.9115C91.9318 52.9115 91.617 53.1821 91.617 53.8946V59.2741C91.617 59.9811 91.9262 60.2406 92.4288 60.2406C92.9258 60.2406 93.2406 59.9811 93.2406 59.2741V57.8491H94.7206V59.1747C94.7206 60.7709 93.9254 61.6767 92.3901 61.6767C90.8549 61.6767 90.0597 60.7653 90.0597 59.1747V53.9995C90.0597 52.4033 90.8549 51.4975 92.3901 51.4975C93.9254 51.4975 94.7206 52.4089 94.7206 53.9995V54.9605ZM95.3778 49.6142H93.8149V39.656H95.3778V43.9916L97.4266 39.656H98.9894L96.8136 44.091L98.9894 49.6086H97.3824L95.8582 45.643L95.3722 46.5544V49.6142H95.3778ZM97.4266 31.9789V27.7095H99.0226V37.6677H97.4266V33.3983H95.6484V37.6677H94.0855V27.7095H95.6484V31.9789H97.4266ZM100.442 54.9605H98.9618V53.8946C98.9618 53.1821 98.647 52.9115 98.15 52.9115C97.653 52.9115 97.3382 53.1821 97.3382 53.8946V59.2741C97.3382 59.9811 97.653 60.2406 98.15 60.2406C98.647 60.2406 98.9618 59.9811 98.9618 59.2741V57.8491H100.442V59.1747C100.442 60.7709 99.6466 61.6767 98.1114 61.6767C96.5761 61.6767 95.7809 60.7653 95.7809 59.1747V53.9995C95.7809 52.4033 96.5761 51.4975 98.1114 51.4975C99.6466 51.4975 100.442 52.4089 100.442 53.9995V54.9605ZM99.7902 41.0809V39.656H104.628V41.0809H102.993V49.6142H101.43V41.0809H99.7902ZM102.573 31.4486C104.136 31.4486 104.904 32.3158 104.904 33.9119V35.2044C104.904 36.795 104.136 37.6677 102.573 37.6677H100.271V27.7095H101.833V31.4542H102.573V31.4486ZM106.522 61.5607H105.114V54.5463L104.473 56.9931L103.164 61.5607H101.557V51.608H102.949V57.9099L103.518 55.7172L104.799 51.608H106.522V61.5607ZM107.185 39.656V43.3951H107.925C109.488 43.3951 110.255 44.2623 110.255 45.8529V47.1453C110.255 48.7415 109.488 49.6031 107.925 49.6031H105.622V39.656H107.185ZM105.804 37.6677V27.7095H107.367V37.6677H105.804ZM112.718 61.5607H111.31V54.5463L110.669 56.9931L109.361 61.5607H107.754V51.608H109.145V57.9099L109.714 55.7172L110.995 51.608H112.718V61.5607ZM112.718 49.6142H111.155V39.656H112.718V49.6142ZM112.889 29.1344H110.189V31.9071H112.337V33.332H110.189V36.2482H112.889V37.6732H108.621V27.7095H112.889V29.1344ZM137.271 33.0669C137.271 33.1663 137.216 33.2602 137.111 33.3099L115.049 44.8146V26.7153C115.049 26.163 114.601 25.7212 114.055 25.7212H37.0388C36.6522 25.7212 36.2988 25.9476 36.1387 26.2956L3.6281 96.0139L38.1046 0.894745C38.1433 0.789806 38.2427 0.729052 38.3531 0.729052H137.006C137.155 0.729052 137.271 0.845037 137.271 0.994161V33.0669Z" fill="white"/>
<path d="M80.9312 53.0273H80.1912V56.3965H80.9312C81.4282 56.3965 81.6988 56.17 81.6988 55.4575V53.9663C81.6988 53.2593 81.4282 53.0273 80.9312 53.0273Z" fill="white"/>
<path d="M84.8798 40.9651C84.3827 40.9651 84.068 41.2357 84.068 41.9482V47.3222C84.068 48.0347 84.3827 48.3053 84.8798 48.3053C85.3768 48.3053 85.6916 48.0347 85.6916 47.3222V41.9482C85.6916 41.2357 85.3768 40.9651 84.8798 40.9651Z" fill="white"/>
<path d="M86.5971 52.917C86.1001 52.917 85.7853 53.1876 85.7853 53.9001V59.2796C85.7853 59.9866 86.1001 60.2572 86.5971 60.2572C87.0941 60.2572 87.4089 59.9866 87.4089 59.2796V53.9001C87.4089 53.1821 87.0941 52.917 86.5971 52.917Z" fill="white"/>
<path d="M66.4459 35.3757V30.0017C66.4459 29.2892 66.1311 29.0186 65.6341 29.0186C65.1371 29.0186 64.8223 29.2892 64.8223 30.0017V35.3757C64.8223 36.0881 65.1371 36.3588 65.6341 36.3588C66.1367 36.3588 66.4459 36.0881 66.4459 35.3757Z" fill="white"/>
<path d="M77.0379 34.5085H78.5455L77.789 29.4714L77.0379 34.5085Z" fill="white"/>
<path d="M89.905 36.2428H90.645C91.1421 36.2428 91.4127 36.0163 91.4127 35.3039V33.8071C91.4127 33.0946 91.1421 32.8682 90.645 32.8682H89.905V36.2428Z" fill="white"/>
<path d="M79.9867 43.5112V42.02C79.9867 41.3075 79.7161 41.0811 79.2191 41.0811H78.4791V44.4502H79.2191C79.7161 44.4502 79.9867 44.2237 79.9867 43.5112Z" fill="white"/>
<path d="M46.6423 29.4714L45.8857 34.5085H47.3934L46.6423 29.4714Z" fill="white"/>
<path d="M101.834 36.2428H102.574C103.071 36.2428 103.341 36.0163 103.341 35.3039V33.8071C103.341 33.0946 103.071 32.8682 102.574 32.8682H101.834V36.2428Z" fill="white"/>
<path d="M108.692 47.2558V45.759C108.692 45.052 108.422 44.8201 107.925 44.8201H107.185V48.1892H107.925C108.422 48.1947 108.692 47.9627 108.692 47.2558Z" fill="white"/>
<path d="M45.7533 14.5091C45.8637 15.3652 46.1233 15.9783 46.532 16.3373C46.9406 16.7018 47.5426 16.8841 48.3433 16.8841C49.1882 16.8841 49.8454 16.5748 50.3093 15.9562C50.7732 15.3376 51.0217 14.4484 51.0548 13.2775H46.8743V11.615H51.0548C51.0106 10.4441 50.7511 9.54936 50.2706 8.93077C49.7902 8.31218 49.1165 8.00288 48.2494 8.00288C47.4873 8.00288 46.9075 8.19067 46.5043 8.57176C46.1012 8.95286 45.8472 9.57145 45.7533 10.4275H43.7045C43.837 9.13512 44.2954 8.13544 45.0906 7.41743C45.8858 6.69943 46.9406 6.34595 48.2494 6.34595C49.2214 6.34595 50.0718 6.57239 50.8118 7.03081C51.5518 7.48371 52.1151 8.13544 52.5183 8.986C52.9159 9.83104 53.1202 10.8142 53.1257 11.9243V12.924C53.1257 14.0452 52.9325 15.0338 52.5459 15.8788C52.1593 16.7294 51.6015 17.3811 50.8726 17.834C50.1436 18.2869 49.3042 18.5189 48.3488 18.5189C47.0014 18.5189 45.9245 18.1654 45.1127 17.4585C44.3009 16.7515 43.8315 15.7684 43.7155 14.5091H45.7533Z" fill="white"/>
<path d="M58.5985 13.2775H57.2013V18.3533H55.1525V6.51172H57.2013V11.4936H58.3334L61.818 6.51172H64.3418L60.2718 12.184L64.6952 18.3588H62.2212L58.5985 13.2775Z" fill="white"/>
<path d="M75.0331 12.7419C75.0331 13.9017 74.8343 14.9235 74.4312 15.7962C74.028 16.6743 73.4537 17.3426 72.7082 17.8121C71.9626 18.2816 71.1067 18.5135 70.1347 18.5135C69.1738 18.5135 68.3178 18.2816 67.5668 17.8121C66.8157 17.3426 66.2359 16.6743 65.8272 15.8072C65.4186 14.9401 65.2087 13.9404 65.2032 12.8026V12.1343C65.2032 10.98 65.4075 9.95822 65.8162 9.07452C66.2248 8.19082 66.8047 7.51148 67.5502 7.04201C68.2957 6.57255 69.1517 6.34058 70.1181 6.34058C71.0846 6.34058 71.9405 6.57255 72.6861 7.03649C73.4316 7.50043 74.0059 8.16873 74.4146 9.03586C74.8233 9.90851 75.0276 10.9192 75.0331 12.0736V12.7419ZM72.9732 12.1233C72.9732 10.8088 72.7247 9.80357 72.2277 9.10214C71.7307 8.4007 71.0293 8.05274 70.1181 8.05274C69.229 8.05274 68.5332 8.4007 68.0307 9.09661C67.5281 9.79252 67.2741 10.7812 67.2631 12.0515V12.7363C67.2631 14.0398 67.5171 15.045 68.0251 15.7575C68.5332 16.47 69.2346 16.8235 70.1347 16.8235C71.0459 16.8235 71.7473 16.4755 72.2388 15.7796C72.7303 15.0837 72.9732 14.0729 72.9732 12.7363V12.1233Z" fill="white"/>
<path d="M86.1443 6.51172V18.3588H84.0955V8.16865H80.4673L80.2574 12.7473C80.1746 14.1778 80.0034 15.288 79.7328 16.0778C79.4622 16.8676 79.0756 17.442 78.5676 17.8065C78.0595 18.171 77.3747 18.3533 76.5187 18.3533H75.9996V16.7074L76.3255 16.6853C76.7949 16.6411 77.1593 16.4754 77.4189 16.1882C77.6785 15.901 77.8717 15.4647 78.0043 14.8848C78.1368 14.2993 78.2307 13.4432 78.2859 12.311L78.5123 6.51172H86.1443Z" fill="white"/>
<path d="M98.0728 12.7419C98.0728 13.9017 97.874 14.9235 97.4709 15.7962C97.0677 16.6743 96.4934 17.3426 95.7479 17.8121C95.0023 18.2816 94.1464 18.5135 93.1744 18.5135C92.2135 18.5135 91.3575 18.2816 90.6065 17.8121C89.8554 17.3426 89.2756 16.6743 88.8669 15.8072C88.4583 14.9401 88.2484 13.9404 88.2429 12.8026V12.1343C88.2429 10.98 88.4472 9.95822 88.8559 9.07452C89.2645 8.19082 89.8444 7.51148 90.5899 7.04201C91.3354 6.57255 92.1914 6.34058 93.1579 6.34058C94.1243 6.34058 94.9803 6.57255 95.7258 7.03649C96.4713 7.50043 97.0456 8.16873 97.4543 9.03586C97.863 9.90851 98.0673 10.9192 98.0728 12.0736V12.7419ZM96.013 12.1233C96.013 10.8088 95.7644 9.80357 95.2674 9.10214C94.7704 8.4007 94.0691 8.05274 93.1579 8.05274C92.2687 8.05274 91.5729 8.4007 91.0704 9.09661C90.5678 9.79252 90.3138 10.7812 90.3028 12.0515V12.7363C90.3028 14.0398 90.5568 15.045 91.0649 15.7575C91.5729 16.47 92.2743 16.8235 93.1744 16.8235C94.0856 16.8235 94.787 16.4755 95.2785 15.7796C95.77 15.0837 96.013 14.0729 96.013 12.7363V12.1233Z" fill="white"/>
<path d="M107.698 8.16865H102.231V18.3533H100.182V6.51172H107.698V8.16865Z" fill="white"/>
<path d="M116.661 6.51172H118.721V18.3588H116.661V9.91948L111.465 18.3588H109.405V6.51172H111.465V14.9566L116.661 6.51172Z" fill="white"/>
<path d="M127.027 18.359V13.9349H124.735L122.449 18.359H120.245L122.891 13.3219C121.515 12.6701 120.825 11.6042 120.825 10.124C120.825 8.99175 121.201 8.10805 121.946 7.47289C122.692 6.84326 123.73 6.51739 125.066 6.50635H129.092V18.3534H127.027V18.359ZM122.868 10.2124C122.868 10.8807 123.056 11.3998 123.432 11.7754C123.807 12.151 124.365 12.3388 125.116 12.3388H127.027V8.17433H125.116C124.36 8.17433 123.791 8.35659 123.426 8.72112C123.051 9.08012 122.868 9.5772 122.868 10.2124Z" fill="white"/>
</g>
<defs>
<clipPath id="clip0">
<rect width="138" height="105" fill="white"/>
</clipPath>
</defs>
</svg>
