<svg width="124" height="57" viewBox="0 0 124 57" fill="none" xmlns="http://www.w3.org/2000/svg">
<g clip-path="url(#clip0)">
<path d="M15.6423 20.1285C15.6423 20.1285 15.3335 20.1462 15.0282 20.12C10.1609 19.7015 3.0439 25.0386 2.95948 31.3862C2.76533 45.9925 14.8973 45.4607 14.8973 45.4607L24.0304 45.4381L23.659 46.28L23.6449 47.4116L24.0128 48.2989C24.0128 48.2989 15.2118 48.2394 14.943 48.2252C-0.276463 47.4116 0.0337664 32.9978 0.0337664 32.9978L0 21.799C0 21.799 0 10.6397 0.084416 9.99107C1.63063 -1.90319 15.6001 0.132648 15.6001 0.132648L16.9268 1.01001L20.6446 9.42245L20.6249 10.6447L16.9001 19.2519L15.6423 20.1285ZM2.92361 23.6861C2.92361 23.6861 6.46767 17.8491 14.7039 17.2635L17.1604 11.3039C7.82184 11.1064 4.16382 14.7093 3.16771 17.7563C2.77166 18.9686 2.92361 23.6861 2.92361 23.6861ZM2.90813 13.0509C2.90813 13.0509 6.26718 8.46295 17.0844 8.65839L14.6434 3.00973C14.6434 3.00973 8.75323 1.89657 4.78357 5.75015C2.32003 8.14076 2.90813 13.0509 2.90813 13.0509ZM33.841 9.85512L35.2176 8.40843L43.9378 8.41551L45.3996 9.89831L45.3539 44.7661C44.4844 59.097 30.0999 56.8756 30.0999 56.8756L28.8836 55.9529L25.3093 47.4137L25.3431 46.2057L28.1007 39.7434L15.1168 39.7816C8.81162 39.3546 8.24322 32.8562 8.24322 32.8562L8.29035 24.9777C8.29035 24.9777 9.883 23.1897 11.1 23.0594L11.093 32.7982C11.6642 36.5547 15.3721 36.9067 15.3721 36.9067C15.3721 36.9067 31.5026 36.8819 31.5244 36.8776C42.8193 34.8071 42.5407 24.5082 42.5407 24.5082L42.5295 11.2933L36.7329 11.2947L36.6724 32.4406C36.6724 32.4406 35.3738 33.8738 33.8248 34.0905L33.841 9.85512ZM28.1555 46.8571L29.5597 50.2207L34.3756 39.1663C34.3756 39.1663 32.4312 39.7675 31.2191 39.7271L28.1555 46.8571ZM31.2585 54.0934L33.542 54.1288L42.4521 33.7534V33.4765C40.4268 36.2 38.0118 37.5447 38.0118 37.5447L31.0461 53.5496L31.2585 54.0934ZM36.7976 53.4554C36.7976 53.4554 40.3332 52.406 41.795 48.4603C42.7461 45.8934 42.4669 40.5011 42.4669 40.5011L36.7976 53.4554Z" fill="url(#paint0_radial)"/>
<path d="M54.9485 10.4338C54.9176 10.4565 54.8768 10.489 54.8247 10.5301C54.7733 10.5712 54.7234 10.6038 54.6749 10.6285C54.608 10.664 54.5433 10.6909 54.4807 10.7093C54.4188 10.7284 54.3309 10.7376 54.2183 10.7376C54.1262 10.7376 54.0382 10.7199 53.9552 10.6852C53.8722 10.6505 53.799 10.6009 53.7364 10.5379C53.6759 10.4756 53.6281 10.3991 53.5915 10.3085C53.5556 10.2171 53.5374 10.1215 53.5374 10.0203C53.5374 9.86378 53.5704 9.73066 53.6358 9.6209C53.7013 9.51114 53.8054 9.42404 53.9475 9.35889C54.0734 9.30083 54.2218 9.26047 54.3935 9.23851C54.5651 9.21656 54.7494 9.19957 54.9478 9.18895V9.11601C54.9478 9.02679 54.9344 8.95527 54.9077 8.90074C54.881 8.84622 54.8437 8.80373 54.7952 8.7747C54.7466 8.74354 54.6882 8.723 54.6186 8.71309C54.5489 8.70318 54.4772 8.69822 54.4033 8.69822C54.3161 8.69822 54.2141 8.71167 54.0959 8.73788C53.9784 8.76408 53.8602 8.80231 53.7421 8.85188H53.7203V8.46596C53.7899 8.44542 53.8898 8.42347 54.0192 8.3994C54.1487 8.37532 54.2774 8.36328 54.4047 8.36328C54.5588 8.36328 54.6889 8.37532 54.7944 8.3994C54.9 8.42347 54.9956 8.46737 55.0793 8.53111C55.161 8.59342 55.2222 8.67344 55.2623 8.77187C55.3024 8.87029 55.3228 8.98996 55.3228 9.13159V10.6767H54.9471V10.4338H54.9485ZM54.9485 10.118V9.49131C54.8585 9.4991 54.7452 9.51043 54.608 9.52459C54.4709 9.53876 54.3597 9.55858 54.2753 9.58407C54.1747 9.61523 54.0917 9.66268 54.0263 9.72641C53.9608 9.79014 53.9278 9.88007 53.9278 9.99408C53.9278 10.1237 53.9637 10.2214 54.0361 10.2872C54.1086 10.3531 54.2141 10.3864 54.3534 10.3864C54.4723 10.3864 54.5806 10.3602 54.677 10.3085C54.774 10.2575 54.8641 10.1938 54.9485 10.118Z" fill="#545454"/>
<path d="M57.9643 10.7242C57.8102 10.7242 57.6688 10.7001 57.5401 10.6526C57.4114 10.6045 57.3009 10.5323 57.2088 10.4352C57.1166 10.3382 57.0449 10.2157 56.9935 10.0684C56.9422 9.92114 56.9175 9.74695 56.9175 9.54796C56.9175 9.34969 56.9443 9.17833 56.997 9.03458C57.0498 8.89012 57.1208 8.76903 57.2088 8.6706C57.2974 8.57218 57.4072 8.49641 57.5394 8.4433C57.6717 8.39019 57.8131 8.36328 57.9643 8.36328C58.0874 8.36328 58.2063 8.38098 58.321 8.41568C58.4356 8.45109 58.5376 8.49145 58.627 8.53677V8.96377H58.6052C58.5784 8.94111 58.544 8.91491 58.5017 8.88517C58.4595 8.85542 58.4082 8.82498 58.3484 8.79382C58.2963 8.76691 58.2344 8.74354 58.1634 8.72301C58.0923 8.70247 58.0241 8.69256 57.9587 8.69256C57.7631 8.69256 57.6062 8.76691 57.4874 8.91632C57.3692 9.06503 57.3094 9.27605 57.3094 9.54796C57.3094 9.81493 57.3664 10.0231 57.481 10.1718C57.5957 10.3205 57.7547 10.3956 57.958 10.3956C58.0811 10.3956 58.1986 10.3701 58.3097 10.3191C58.4208 10.2681 58.5193 10.2016 58.6052 10.1208H58.627V10.5478C58.5897 10.5655 58.5425 10.5868 58.4863 10.6116C58.43 10.6363 58.3793 10.6548 58.3336 10.6675C58.2696 10.6866 58.2119 10.7008 58.1606 10.7107C58.1106 10.7192 58.0452 10.7242 57.9643 10.7242Z" fill="#545454"/>
<path d="M61.0807 10.7242C60.9266 10.7242 60.7852 10.7001 60.6565 10.6526C60.5277 10.6045 60.4173 10.5323 60.3251 10.4352C60.233 10.3382 60.1612 10.2157 60.1099 10.0684C60.0585 9.92114 60.0339 9.74695 60.0339 9.54796C60.0339 9.34969 60.0606 9.17833 60.1134 9.03458C60.1662 8.89012 60.2372 8.76903 60.3251 8.6706C60.4138 8.57218 60.5235 8.49641 60.6558 8.4433C60.788 8.39019 60.9294 8.36328 61.0807 8.36328C61.2038 8.36328 61.3226 8.38098 61.4373 8.41568C61.552 8.45109 61.654 8.49145 61.7433 8.53677V8.96377H61.7215C61.6948 8.94111 61.6603 8.91491 61.6181 8.88517C61.5759 8.85542 61.5245 8.82498 61.4648 8.79382C61.4127 8.76691 61.3508 8.74354 61.2797 8.72301C61.2087 8.70247 61.1405 8.69256 61.075 8.69256C60.8795 8.69256 60.7226 8.76691 60.6037 8.91632C60.4855 9.06503 60.4257 9.27605 60.4257 9.54796C60.4257 9.81493 60.4827 10.0231 60.5974 10.1718C60.712 10.3205 60.871 10.3956 61.0743 10.3956C61.1974 10.3956 61.3149 10.3701 61.4261 10.3191C61.5372 10.2681 61.6357 10.2016 61.7215 10.1208H61.7433V10.5478C61.706 10.5655 61.6589 10.5868 61.6026 10.6116C61.5464 10.6363 61.4957 10.6548 61.45 10.6675C61.386 10.6866 61.3283 10.7008 61.2769 10.7107C61.227 10.7192 61.1609 10.7242 61.0807 10.7242Z" fill="#545454"/>
<path d="M65.1509 9.54523C65.1509 9.92549 65.0601 10.2186 64.8779 10.4261C64.6957 10.6336 64.453 10.7363 64.1505 10.7363C63.8382 10.7363 63.5934 10.6294 63.414 10.4155C63.2353 10.2017 63.146 9.91203 63.146 9.54523C63.146 9.1678 63.2381 8.87464 63.4224 8.66575C63.6067 8.45685 63.8494 8.35205 64.1505 8.35205C64.453 8.35205 64.6957 8.45614 64.8779 8.66433C65.0601 8.87252 65.1509 9.16639 65.1509 9.54523ZM64.7611 9.54523C64.7611 9.25278 64.7084 9.03538 64.6022 8.89305C64.4966 8.75072 64.3454 8.67991 64.1505 8.67991C63.9536 8.67991 63.8016 8.75072 63.6954 8.89305C63.5892 9.03538 63.5357 9.25278 63.5357 9.54523C63.5357 9.82848 63.5892 10.043 63.6954 10.1896C63.8016 10.3362 63.9536 10.4091 64.1505 10.4091C64.3447 10.4091 64.4952 10.3376 64.6015 10.1939C64.7077 10.0501 64.7611 9.83414 64.7611 9.54523Z" fill="#545454"/>
<path d="M68.7371 11.2156H68.3854V10.6739H66.7561V8.41504H67.1339V10.3461H68.1363V8.41504H68.5141V10.3461H68.7371V11.2156Z" fill="#545454"/>
<path d="M72.0984 10.6739H71.7249V8.98932L70.6683 10.6739H70.3271V8.41504H70.7006V10.0735L71.7453 8.41504H72.0991V10.6739H72.0984Z" fill="#545454"/>
<path d="M75.1162 10.4333C75.0852 10.456 75.0444 10.4886 74.9924 10.5296C74.941 10.5707 74.8911 10.6033 74.8425 10.6281C74.7757 10.6635 74.711 10.6904 74.6484 10.7088C74.5865 10.7279 74.4985 10.7371 74.386 10.7371C74.2938 10.7371 74.2059 10.7194 74.1229 10.6847C74.0399 10.65 73.9667 10.6004 73.9041 10.5374C73.8436 10.4751 73.7958 10.3986 73.7592 10.308C73.7233 10.2166 73.705 10.121 73.705 10.0198C73.705 9.86329 73.7381 9.73017 73.8035 9.62041C73.8689 9.51065 73.973 9.42355 74.1151 9.35841C74.2411 9.30034 74.3895 9.25998 74.5611 9.23803C74.7328 9.21607 74.9171 9.19908 75.1155 9.18846V9.11552C75.1155 9.0263 75.1021 8.95478 75.0754 8.90025C75.0486 8.84573 75.0114 8.80324 74.9628 8.77421C74.9143 8.74305 74.8559 8.72252 74.7862 8.7126C74.7166 8.70269 74.6449 8.69773 74.571 8.69773C74.4838 8.69773 74.3818 8.71119 74.2636 8.73739C74.1461 8.76359 74.0279 8.80183 73.9097 8.85139H73.8879V8.46547C73.9576 8.44493 74.0575 8.42298 74.1869 8.39891C74.3163 8.37483 74.4451 8.36279 74.5724 8.36279C74.7264 8.36279 74.8566 8.37483 74.9621 8.39891C75.0676 8.42298 75.1633 8.46689 75.247 8.53062C75.3286 8.59293 75.3898 8.67295 75.4299 8.77138C75.47 8.86981 75.4904 8.98948 75.4904 9.1311V10.6762H75.1148V10.4333H75.1162ZM75.1162 10.1175V9.49082C75.0261 9.49861 74.9129 9.50994 74.7757 9.52411C74.6385 9.53827 74.5274 9.55809 74.443 9.58359C74.3424 9.61474 74.2593 9.66219 74.1939 9.72592C74.1285 9.78965 74.0954 9.87958 74.0954 9.99359C74.0954 10.1232 74.1313 10.2209 74.2038 10.2867C74.2762 10.3526 74.3818 10.3859 74.521 10.3859C74.6399 10.3859 74.7483 10.3597 74.8446 10.308C74.9417 10.257 75.0318 10.1933 75.1162 10.1175Z" fill="#545454"/>
<path d="M79.221 11.2156H78.8693V10.6739H77.24V8.41504H77.6178V10.3461H78.6202V8.41504H78.998V10.3461H79.221V11.2156Z" fill="#545454"/>
<path d="M82.5819 10.6739H82.2084V8.98932L81.1518 10.6739H80.8106V8.41504H81.1842V10.0735L82.2288 8.41504H82.5826V10.6739H82.5819Z" fill="#545454"/>
<path d="M85.9712 10.674H85.5934V9.77819H85.2199L84.5551 10.674H84.1154L84.8365 9.74349C84.6501 9.68826 84.5143 9.60611 84.4278 9.49706C84.3413 9.38802 84.2983 9.24144 84.2983 9.05803C84.2983 8.94615 84.323 8.84843 84.3715 8.76416C84.4208 8.6799 84.4862 8.60909 84.5692 8.55102C84.636 8.50499 84.7204 8.471 84.8224 8.44905C84.9244 8.4271 85.0384 8.41577 85.1636 8.41577H85.9712V10.674ZM85.5934 9.47865V8.71814H85.1833C85.0961 8.71814 85.0278 8.72309 84.9772 8.7323C84.9272 8.74151 84.8787 8.75992 84.8316 8.78682C84.783 8.81657 84.7465 8.85693 84.7218 8.9072C84.6972 8.95748 84.6845 9.01201 84.6845 9.07007C84.6845 9.14442 84.693 9.20461 84.7099 9.25135C84.7268 9.29808 84.757 9.34057 84.8013 9.37952C84.8485 9.41988 84.9054 9.44679 84.973 9.45953C85.0405 9.47228 85.1144 9.47865 85.1953 9.47865H85.5934Z" fill="#545454"/>
<path d="M92.085 9.54523C92.085 9.92549 91.9943 10.2186 91.8121 10.4261C91.6299 10.6336 91.3872 10.7363 91.0847 10.7363C90.7724 10.7363 90.5276 10.6294 90.3482 10.4155C90.1695 10.2017 90.0802 9.91203 90.0802 9.54523C90.0802 9.1678 90.1723 8.87464 90.3566 8.66575C90.5409 8.45685 90.7836 8.35205 91.0847 8.35205C91.3872 8.35205 91.6299 8.45614 91.8121 8.66433C91.9943 8.87252 92.085 9.16639 92.085 9.54523ZM91.6953 9.54523C91.6953 9.25278 91.6426 9.03538 91.5363 8.89305C91.4308 8.75072 91.2796 8.67991 91.0847 8.67991C90.8877 8.67991 90.7358 8.75072 90.6296 8.89305C90.5233 9.03538 90.4699 9.25278 90.4699 9.54523C90.4699 9.82848 90.5233 10.043 90.6296 10.1896C90.7358 10.3362 90.8877 10.4091 91.0847 10.4091C91.2789 10.4091 91.4294 10.3376 91.5356 10.1939C91.6419 10.0501 91.6953 9.83414 91.6953 9.54523Z" fill="#545454"/>
<path d="M95.4625 10.6739H95.0847V8.7429H94.0682V10.6739H93.6905V8.41504H95.4625V10.6739Z" fill="#545454"/>
<path d="M98.2011 10.7264C97.8438 10.7264 97.5659 10.6251 97.3682 10.4219C97.1706 10.2186 97.0721 9.93115 97.0721 9.55727C97.0721 9.18905 97.1678 8.89659 97.3591 8.67849C97.5504 8.4611 97.8009 8.35205 98.1104 8.35205C98.2497 8.35205 98.3728 8.37259 98.4797 8.41295C98.5866 8.45331 98.6809 8.51704 98.7611 8.60272C98.8413 8.68911 98.9032 8.79462 98.9461 8.91925C98.989 9.04388 99.0101 9.19683 99.0101 9.3774V9.58347H97.4555C97.4555 9.84618 97.5209 10.0473 97.6524 10.1861C97.784 10.3249 97.9655 10.3943 98.1969 10.3943C98.2799 10.3943 98.3615 10.3851 98.441 10.3659C98.5205 10.3468 98.593 10.3227 98.657 10.293C98.7252 10.2618 98.7829 10.2321 98.83 10.2031C98.8772 10.174 98.9159 10.1471 98.9468 10.1209H98.9686V10.5352C98.9243 10.5529 98.8694 10.5748 98.804 10.601C98.7386 10.6272 98.6795 10.6478 98.6274 10.6626C98.5536 10.6832 98.4867 10.698 98.4277 10.7094C98.3672 10.7207 98.2919 10.7264 98.2011 10.7264ZM98.6429 9.29243C98.6401 9.18975 98.6281 9.10195 98.607 9.02759C98.5859 8.95324 98.555 8.89093 98.5149 8.83924C98.4706 8.78259 98.4143 8.73939 98.3453 8.70965C98.2764 8.67991 98.1913 8.66504 98.0893 8.66504C97.9887 8.66504 97.9036 8.67991 97.8332 8.71036C97.7629 8.74081 97.6989 8.78471 97.6412 8.84278C97.5849 8.90226 97.542 8.96811 97.5125 9.03963C97.4829 9.11186 97.4639 9.19542 97.4562 9.29172H98.6429V9.29243Z" fill="#545454"/>
<path d="M102.492 9.4846C102.492 9.86061 102.403 10.1601 102.224 10.3832C102.046 10.6063 101.82 10.7181 101.546 10.7181C101.435 10.7181 101.336 10.7054 101.251 10.6799C101.165 10.6544 101.077 10.6148 100.988 10.5609V11.507H100.61V8.41534H100.988V8.65185C101.081 8.56688 101.185 8.49607 101.3 8.43871C101.415 8.38135 101.539 8.35303 101.675 8.35303C101.932 8.35303 102.133 8.45571 102.276 8.66035C102.421 8.865 102.492 9.13975 102.492 9.4846ZM102.103 9.52709C102.103 9.26933 102.062 9.06964 101.98 8.92731C101.899 8.78498 101.766 8.71417 101.583 8.71417C101.476 8.71417 101.372 8.73824 101.272 8.78569C101.173 8.83384 101.078 8.89545 100.988 8.97051V10.2508C101.087 10.2996 101.172 10.3322 101.242 10.3499C101.313 10.3676 101.393 10.3761 101.484 10.3761C101.68 10.3761 101.832 10.3039 101.94 10.1594C102.048 10.0164 102.103 9.80538 102.103 9.52709Z" fill="#545454"/>
<path d="M105.355 10.4333C105.324 10.456 105.284 10.4886 105.232 10.5296C105.18 10.5707 105.13 10.6033 105.082 10.6281C105.015 10.6635 104.95 10.6904 104.888 10.7088C104.826 10.7279 104.738 10.7371 104.625 10.7371C104.533 10.7371 104.445 10.7194 104.362 10.6847C104.279 10.65 104.206 10.6004 104.143 10.5374C104.083 10.4751 104.035 10.3986 103.998 10.308C103.963 10.2166 103.944 10.121 103.944 10.0198C103.944 9.86329 103.977 9.73017 104.043 9.62041C104.108 9.51065 104.212 9.42355 104.354 9.35841C104.48 9.30034 104.629 9.25998 104.8 9.23803C104.972 9.21607 105.156 9.19908 105.355 9.18846V9.11552C105.355 9.0263 105.341 8.95478 105.315 8.90025C105.288 8.84573 105.251 8.80324 105.202 8.77421C105.154 8.74305 105.095 8.72252 105.025 8.7126C104.956 8.70269 104.884 8.69773 104.81 8.69773C104.723 8.69773 104.621 8.71119 104.503 8.73739C104.385 8.76359 104.267 8.80183 104.149 8.85139H104.127V8.46547C104.197 8.44493 104.297 8.42298 104.426 8.39891C104.556 8.37483 104.684 8.36279 104.812 8.36279C104.966 8.36279 105.096 8.37483 105.201 8.39891C105.307 8.42298 105.403 8.46689 105.486 8.53062C105.568 8.59293 105.629 8.67295 105.669 8.77138C105.709 8.86981 105.73 8.98948 105.73 9.1311V10.6762H105.354V10.4333H105.355ZM105.355 10.1175V9.49082C105.265 9.49861 105.152 9.50994 105.015 9.52411C104.878 9.53827 104.767 9.55809 104.682 9.58359C104.582 9.61474 104.499 9.66219 104.433 9.72592C104.368 9.78965 104.335 9.87958 104.335 9.99359C104.335 10.1232 104.371 10.2209 104.443 10.2867C104.515 10.3526 104.621 10.3859 104.76 10.3859C104.879 10.3859 104.987 10.3597 105.084 10.308C105.181 10.257 105.271 10.1933 105.355 10.1175Z" fill="#545454"/>
<path d="M109.118 8.74856H108.355V10.6739H107.977V8.74856H107.214V8.41504H109.118V8.74856Z" fill="#545454"/>
<path d="M112.464 9.54523C112.464 9.92549 112.373 10.2186 112.191 10.4261C112.009 10.6336 111.766 10.7363 111.463 10.7363C111.151 10.7363 110.906 10.6294 110.727 10.4155C110.548 10.2017 110.459 9.91203 110.459 9.54523C110.459 9.1678 110.551 8.87464 110.735 8.66575C110.92 8.45685 111.162 8.35205 111.463 8.35205C111.766 8.35205 112.009 8.45614 112.191 8.66433C112.373 8.87252 112.464 9.16639 112.464 9.54523ZM112.074 9.54523C112.074 9.25278 112.021 9.03538 111.915 8.89305C111.81 8.75072 111.658 8.67991 111.463 8.67991C111.267 8.67991 111.115 8.75072 111.008 8.89305C110.902 9.03538 110.849 9.25278 110.849 9.54523C110.849 9.82848 110.902 10.043 111.008 10.1896C111.115 10.3362 111.267 10.4091 111.463 10.4091C111.658 10.4091 111.808 10.3376 111.914 10.1939C112.021 10.0501 112.074 9.83414 112.074 9.54523Z" fill="#545454"/>
<path d="M115.952 9.4846C115.952 9.86061 115.862 10.1601 115.684 10.3832C115.505 10.6063 115.279 10.7181 115.006 10.7181C114.894 10.7181 114.796 10.7054 114.71 10.6799C114.624 10.6544 114.536 10.6148 114.447 10.5609V11.507H114.069V8.41534H114.447V8.65185C114.541 8.56688 114.645 8.49607 114.759 8.43871C114.874 8.38135 114.999 8.35303 115.134 8.35303C115.392 8.35303 115.592 8.45571 115.736 8.66035C115.879 8.865 115.952 9.13975 115.952 9.4846ZM115.562 9.52709C115.562 9.26933 115.521 9.06964 115.44 8.92731C115.358 8.78498 115.225 8.71417 115.042 8.71417C114.935 8.71417 114.832 8.73824 114.732 8.78569C114.632 8.83384 114.537 8.89545 114.448 8.97051V10.2508C114.547 10.2996 114.631 10.3322 114.702 10.3499C114.772 10.3676 114.853 10.3761 114.944 10.3761C115.139 10.3761 115.291 10.3039 115.4 10.1594C115.508 10.0164 115.562 9.80538 115.562 9.52709Z" fill="#545454"/>
<path d="M119.407 9.54523C119.407 9.92549 119.316 10.2186 119.134 10.4261C118.952 10.6336 118.709 10.7363 118.407 10.7363C118.095 10.7363 117.85 10.6294 117.67 10.4155C117.492 10.2017 117.402 9.91203 117.402 9.54523C117.402 9.1678 117.494 8.87464 117.679 8.66575C117.863 8.45685 118.106 8.35205 118.407 8.35205C118.709 8.35205 118.952 8.45614 119.134 8.66433C119.316 8.87252 119.407 9.16639 119.407 9.54523ZM119.017 9.54523C119.017 9.25278 118.965 9.03538 118.859 8.89305C118.753 8.75072 118.602 8.67991 118.407 8.67991C118.21 8.67991 118.058 8.75072 117.952 8.89305C117.846 9.03538 117.792 9.25278 117.792 9.54523C117.792 9.82848 117.846 10.043 117.952 10.1896C118.058 10.3362 118.21 10.4091 118.407 10.4091C118.601 10.4091 118.752 10.3376 118.858 10.1939C118.964 10.0501 119.017 9.83414 119.017 9.54523Z" fill="#545454"/>
<path d="M122.844 9.99011C122.844 10.0992 122.824 10.1962 122.782 10.2804C122.74 10.3647 122.683 10.4348 122.611 10.4915C122.52 10.563 122.424 10.6111 122.325 10.6359C122.225 10.6607 122.105 10.6734 121.966 10.6734H121.084V8.41455H121.907C122.072 8.41455 122.193 8.41951 122.269 8.42942C122.345 8.43933 122.421 8.46554 122.496 8.50731C122.575 8.55051 122.633 8.60787 122.671 8.67939C122.708 8.75091 122.727 8.83588 122.727 8.93431C122.727 9.04194 122.697 9.13895 122.638 9.22464C122.579 9.31032 122.501 9.37688 122.403 9.42362L122.413 9.43778C122.535 9.46894 122.637 9.53125 122.72 9.62614C122.804 9.72103 122.844 9.84212 122.844 9.99011ZM122.34 8.99379C122.34 8.94281 122.332 8.89819 122.315 8.86066C122.298 8.82313 122.269 8.79339 122.227 8.77144C122.179 8.74595 122.125 8.73037 122.066 8.72612C122.006 8.72117 121.924 8.71904 121.817 8.71904H121.458V9.33794H121.892C121.984 9.33794 122.05 9.33369 122.089 9.32448C122.128 9.31598 122.17 9.29686 122.218 9.26854C122.262 9.24163 122.294 9.20481 122.312 9.15949C122.331 9.11346 122.34 9.05823 122.34 8.99379ZM122.455 9.99224C122.455 9.91505 122.443 9.85345 122.422 9.80742C122.4 9.76068 122.351 9.71961 122.276 9.68279C122.229 9.66013 122.179 9.64597 122.125 9.6403C122.072 9.63464 121.997 9.63251 121.902 9.63251H121.459V10.3704H121.786C121.921 10.3704 122.026 10.3647 122.101 10.3541C122.175 10.3435 122.24 10.3215 122.294 10.2896C122.35 10.2549 122.391 10.2139 122.416 10.1686C122.442 10.1225 122.455 10.0638 122.455 9.99224Z" fill="#545454"/>
<path d="M63.3505 33.7096H60.5331V29.5317C60.0006 29.6528 59.5384 29.7456 59.1473 29.8086C58.7555 29.8716 58.2433 29.9035 57.6102 29.9035C57.1283 29.9035 56.6788 29.8405 56.2617 29.7137C55.8445 29.5877 55.4759 29.388 55.1544 29.1147C54.8379 28.8371 54.5895 28.4929 54.4087 28.0836C54.228 27.6744 54.1372 27.1765 54.1372 26.5895V22.4187H56.9701V25.0954C56.9701 25.5705 56.9862 25.9444 57.0193 26.2178C57.0517 26.4911 57.1509 26.7538 57.3169 27.0066C57.4674 27.2339 57.6799 27.406 57.9535 27.5221C58.2272 27.6382 58.6098 27.6963 59.1023 27.6963C59.2781 27.6963 59.5152 27.6836 59.8142 27.6581C60.1132 27.6326 60.353 27.6021 60.5338 27.5667V22.4187H63.3512V33.7096H63.3505Z" fill="#545454"/>
<path d="M76.6082 33.7096H73.8358V26.2709L69.5271 33.7096H66.9208V22.4187H69.6931V29.1451L73.6783 22.4187H76.6089V33.7096H76.6082Z" fill="#545454"/>
<path d="M84.9693 33.9299C83.2867 33.9299 81.9508 33.4179 80.9617 32.394C79.9719 31.3701 79.4774 29.9304 79.4774 28.0752C79.4774 26.2858 79.9733 24.8589 80.9652 23.7946C81.9571 22.7303 83.2944 22.1985 84.9764 22.1985C85.4231 22.1985 85.8248 22.224 86.1814 22.2743C86.5381 22.3245 86.8793 22.3953 87.2057 22.4867C87.4617 22.5625 87.7403 22.6658 88.0421 22.7976C88.3432 22.9293 88.5873 23.0426 88.773 23.1389V25.8311H88.4867C88.3509 25.7101 88.18 25.5642 87.9746 25.3949C87.7684 25.2257 87.5349 25.06 87.2739 24.8985C87.0129 24.7371 86.7252 24.599 86.4115 24.485C86.0977 24.371 85.7699 24.3143 85.4287 24.3143C85.0221 24.3143 84.6493 24.3788 84.3102 24.5077C83.9711 24.6365 83.6482 24.8603 83.3422 25.179C83.0608 25.4672 82.8308 25.8566 82.6528 26.3467C82.4741 26.8374 82.3855 27.4159 82.3855 28.083C82.3855 28.7854 82.4784 29.376 82.6641 29.8533C82.8498 30.3312 83.0932 30.7165 83.395 31.0096C83.6862 31.2929 84.0112 31.4975 84.3707 31.6236C84.7295 31.7503 85.0875 31.8133 85.4442 31.8133C85.8156 31.8133 86.1702 31.7517 86.5064 31.6278C86.8427 31.5039 87.1269 31.3665 87.3576 31.2143C87.6088 31.0578 87.8296 30.8984 88.0203 30.7363C88.2109 30.5748 88.3769 30.4304 88.5176 30.3043H88.7737V32.9584C88.5676 33.0547 88.3291 33.1644 88.0583 33.2883C87.7874 33.4123 87.5082 33.5171 87.2219 33.6028C86.8701 33.709 86.5416 33.7897 86.2349 33.8456C85.9289 33.9023 85.5068 33.9299 84.9693 33.9299Z" fill="#545454"/>
<path d="M93.8351 33.7096V24.5721H90.5204V22.4187H99.9672V24.5721H96.6525V33.7096H93.8351Z" fill="#545454"/>
<path d="M101.172 33.7096L104.961 22.4187H108.035L111.824 33.7096H108.924L108.223 31.4047H104.697L103.997 33.7096H101.172ZM107.605 29.3575L106.46 25.6343L105.314 29.3575H107.605Z" fill="#545454"/>
<path d="M122.919 33.7096H120.117V29.5693H119.055L116.229 33.7096H112.884L116.229 29.0311C115.541 28.733 115.01 28.3131 114.636 27.7721C114.262 27.2311 114.075 26.5336 114.075 25.6789C114.075 25.1024 114.201 24.5997 114.455 24.1699C114.708 23.74 115.031 23.3888 115.423 23.1155C115.764 22.8782 116.18 22.7019 116.67 22.5886C117.159 22.4746 117.721 22.418 118.353 22.418H122.919V33.7096H122.919ZM120.117 27.5377V24.497H119.213C118.777 24.497 118.44 24.5112 118.204 24.5388C117.968 24.5664 117.74 24.6641 117.518 24.8305C117.347 24.9573 117.217 25.1223 117.126 25.3269C117.036 25.5316 116.991 25.7582 116.991 26.0053C116.991 26.2631 117.038 26.4946 117.134 26.6993C117.229 26.9039 117.363 27.0724 117.533 27.2034C117.724 27.355 117.949 27.4484 118.207 27.4838C118.466 27.5193 118.805 27.537 119.228 27.537H120.117V27.5377Z" fill="#545454"/>
<path d="M60.8548 48.2954C59.1721 48.2954 57.8362 47.7834 56.8472 46.7595C55.8574 45.7355 55.3629 44.2959 55.3629 42.4406C55.3629 40.6512 55.8588 39.2244 56.8507 38.1601C57.8426 37.0958 59.1799 36.564 60.8619 36.564C61.3086 36.564 61.7102 36.5895 62.0669 36.6397C62.4236 36.69 62.7647 36.7608 63.0912 36.8522C63.3472 36.9279 63.6258 37.032 63.9276 37.163C64.2287 37.2947 64.4728 37.408 64.6585 37.5043V40.1966H64.3722C64.2364 40.0755 64.0655 39.9297 63.86 39.7604C63.6539 39.5912 63.4204 39.4255 63.1594 39.264C62.8984 39.1026 62.6107 38.9645 62.2969 38.8505C61.9832 38.7365 61.6554 38.6798 61.3142 38.6798C60.9076 38.6798 60.5348 38.7443 60.1957 38.8731C59.8566 39.002 59.5337 39.2258 59.2277 39.5444C58.9463 39.8326 58.7163 40.2221 58.5383 40.7121C58.3596 41.2029 58.271 41.7814 58.271 42.4484C58.271 43.1509 58.3638 43.7415 58.5496 44.2187C58.7353 44.6967 58.9787 45.0819 59.2805 45.3751C59.5717 45.6583 59.8967 45.863 60.2562 45.989C60.6149 46.1158 60.973 46.1788 61.3297 46.1788C61.7011 46.1788 62.0557 46.1172 62.3919 45.9933C62.7282 45.8694 63.0124 45.732 63.2431 45.5797C63.4942 45.4232 63.7151 45.2639 63.9058 45.1018C64.0964 44.9403 64.2624 44.7958 64.4031 44.6698H64.6592V47.3238C64.4531 47.4201 64.2146 47.5299 63.9438 47.6538C63.6729 47.7777 63.3937 47.8825 63.1073 47.9682C62.7556 48.0744 62.4271 48.1552 62.1204 48.2111C61.8137 48.267 61.3916 48.2954 60.8548 48.2954Z" fill="#545454"/>
<path d="M69.72 48.0751V38.9376H66.4053V36.7842H75.8521V38.9376H72.5374V48.0751H69.72Z" fill="#545454"/>
<path d="M86.8949 40.3481C86.8949 40.8743 86.8119 41.3742 86.6466 41.8494C86.4805 42.3245 86.2421 42.7218 85.9311 43.0397C85.7405 43.2366 85.5309 43.4185 85.3022 43.5857C85.0736 43.7528 84.8211 43.8944 84.5453 44.0105C84.2689 44.1267 83.9692 44.218 83.6449 44.2839C83.3213 44.3497 82.9583 44.3823 82.5566 44.3823H81.08V48.0751H78.2627V36.7842H82.6171C83.265 36.7842 83.8236 36.8437 84.2935 36.9626C84.7627 37.0816 85.189 37.2699 85.5703 37.5277C85.9923 37.811 86.3187 38.1884 86.5495 38.6614C86.7795 39.1337 86.8949 39.696 86.8949 40.3481ZM84.0022 40.4161C84.0022 40.0975 83.927 39.8234 83.7764 39.5933C83.6259 39.3632 83.4451 39.2052 83.2341 39.1196C82.9681 39.0034 82.7128 38.9362 82.4694 38.9184C82.226 38.9007 81.8954 38.8915 81.4789 38.8915H81.0793V42.2742H81.2749C81.5408 42.2742 81.792 42.2714 82.0283 42.2664C82.2647 42.2615 82.4701 42.2438 82.646 42.2133C82.7965 42.1878 82.9562 42.139 83.1243 42.0653C83.2924 41.9924 83.4219 41.9095 83.5126 41.8189C83.7033 41.632 83.8327 41.4372 83.9002 41.2347C83.9685 41.0329 84.0022 40.7603 84.0022 40.4161Z" fill="#545454"/>
<path d="M88.4461 48.0751L92.2357 36.7842H95.3092L99.0987 48.0751H96.1983L95.4977 45.7702H91.9719L91.2713 48.0751H88.4461ZM94.8793 43.7223L93.7341 39.999L92.5889 43.7223H94.8793Z" fill="#545454"/>
<path d="M110.932 48.0751H108.115V43.0701H104.28V48.0751H101.463V36.7842H104.28V40.9168H108.115V36.7842H110.932V48.0751Z" fill="#545454"/>
<path d="M113.348 48.0754L117.138 36.7844H120.211L124.001 48.0754H121.1L120.4 45.7704H116.874L116.173 48.0754H113.348ZM119.781 43.7226L118.636 39.9993L117.491 43.7226H119.781Z" fill="#545454"/>
<path d="M55.455 14.2614C55.455 14.3704 55.4346 14.4674 55.3924 14.5517C55.3509 14.636 55.294 14.7061 55.2215 14.7627C55.1307 14.8342 55.0351 14.8824 54.9352 14.9072C54.8353 14.932 54.7157 14.9447 54.5764 14.9447H53.6943V12.6858H54.5187C54.6833 12.6858 54.8043 12.6907 54.8803 12.7007C54.9563 12.7106 55.0323 12.7368 55.1075 12.7786C55.1863 12.8218 55.2447 12.8791 55.282 12.9506C55.3193 13.0221 55.3383 13.1071 55.3383 13.2056C55.3383 13.3132 55.3087 13.4102 55.2496 13.4959C55.1905 13.5816 55.1125 13.6481 55.0147 13.6949L55.0245 13.709C55.1462 13.7402 55.2482 13.8025 55.3312 13.8974C55.4135 13.9916 55.455 14.1127 55.455 14.2614ZM54.9507 13.2643C54.9507 13.2133 54.9422 13.1687 54.9253 13.1312C54.9085 13.0937 54.8796 13.0639 54.8381 13.042C54.7896 13.0165 54.7361 13.0009 54.6763 12.9967C54.6165 12.9917 54.5342 12.9896 54.428 12.9896H54.0685V13.6085H54.5026C54.5947 13.6085 54.6608 13.6042 54.6995 13.595C54.7382 13.5865 54.7811 13.5674 54.8283 13.5391C54.8726 13.5122 54.9042 13.4753 54.9225 13.43C54.9415 13.384 54.9507 13.3288 54.9507 13.2643ZM55.0653 14.2628C55.0653 14.1856 55.0541 14.124 55.0323 14.078C55.0105 14.0312 54.9619 13.9902 54.8866 13.9533C54.8395 13.9307 54.7896 13.9165 54.7361 13.9108C54.6826 13.9052 54.6081 13.9031 54.5131 13.9031H54.0692V14.6409H54.3963C54.5314 14.6409 54.6369 14.6352 54.7115 14.6246C54.7861 14.614 54.8508 14.5921 54.9042 14.5602C54.9605 14.5255 55.0013 14.4844 55.0266 14.4391C55.0527 14.3931 55.0653 14.3343 55.0653 14.2628Z" fill="#545454"/>
<path d="M58.7458 14.9951C58.5917 14.9951 58.4503 14.9711 58.3216 14.9236C58.1928 14.8755 58.0824 14.8032 57.9902 14.7062C57.8981 14.6092 57.8263 14.4867 57.775 14.3394C57.7236 14.1921 57.699 14.0179 57.699 13.819C57.699 13.6207 57.7257 13.4493 57.7785 13.3056C57.8313 13.1611 57.9023 13.04 57.9902 12.9416C58.0789 12.8432 58.1886 12.7674 58.3209 12.7143C58.4531 12.6612 58.5945 12.6343 58.7458 12.6343C58.8689 12.6343 58.9878 12.652 59.1024 12.6867C59.2171 12.7221 59.3191 12.7624 59.4084 12.8078V13.2348H59.3866C59.3599 13.2121 59.3254 13.1859 59.2832 13.1562C59.241 13.1264 59.1896 13.096 59.1299 13.0648C59.0778 13.0379 59.0159 13.0145 58.9448 12.994C58.8738 12.9735 58.8056 12.9636 58.7401 12.9636C58.5446 12.9636 58.3877 13.0379 58.2688 13.1873C58.1506 13.336 58.0908 13.547 58.0908 13.819C58.0908 14.0859 58.1478 14.2941 58.2625 14.4428C58.3771 14.5915 58.5361 14.6666 58.7394 14.6666C58.8625 14.6666 58.98 14.6411 59.0912 14.5901C59.2023 14.5391 59.3008 14.4726 59.3866 14.3918H59.4084V14.8188C59.3711 14.8365 59.324 14.8578 59.2677 14.8826C59.2115 14.9073 59.1608 14.9257 59.1151 14.9385C59.0511 14.9576 58.9934 14.9718 58.942 14.9817C58.8921 14.9902 58.8267 14.9951 58.7458 14.9951Z" fill="#545454"/>
<path d="M62.8388 13.7556C62.8388 13.9567 62.8141 14.1344 62.7656 14.2881C62.7163 14.4424 62.6523 14.5692 62.5714 14.669C62.4898 14.7703 62.3977 14.8468 62.2943 14.8985C62.1909 14.9502 62.0832 14.9764 61.9707 14.9764C61.8863 14.9764 61.8124 14.9601 61.7484 14.9275C61.6844 14.8949 61.6309 14.8673 61.5866 14.8446V15.7765H61.213V14.8446C61.1342 14.8864 61.0709 14.919 61.0245 14.9417C60.9774 14.9643 60.9007 14.9764 60.7938 14.9764C60.5419 14.9764 60.3407 14.8737 60.1888 14.6683C60.0375 14.463 59.9615 14.1804 59.9615 13.8221C59.9615 13.6331 59.9855 13.4652 60.034 13.3165C60.0825 13.1685 60.1487 13.0425 60.2331 12.9384C60.3105 12.8428 60.4005 12.7684 60.5032 12.7146C60.6059 12.6615 60.7122 12.6346 60.8233 12.6346C60.9021 12.6346 60.9738 12.6488 61.0372 12.6764C61.1005 12.704 61.1596 12.7352 61.213 12.7706V11.7976H61.5866V12.7706C61.6457 12.7344 61.7132 12.7026 61.7892 12.6757C61.8658 12.6488 61.9439 12.6353 62.0241 12.6353C62.276 12.6353 62.4744 12.7366 62.62 12.9398C62.7663 13.1423 62.8388 13.4142 62.8388 13.7556ZM61.2137 14.5557V13.0496C61.1652 13.0269 61.1174 13.0064 61.0688 12.9887C61.021 12.971 60.9668 12.9625 60.9084 12.9625C60.7368 12.9625 60.601 13.0304 60.5004 13.1664C60.3998 13.3024 60.3499 13.5148 60.3499 13.8037C60.3499 14.0664 60.3949 14.2732 60.4856 14.4247C60.5757 14.5756 60.7058 14.6513 60.8747 14.6513C60.9415 14.6513 61.002 14.6414 61.0554 14.6209C61.1082 14.6003 61.1617 14.5791 61.2137 14.5557ZM62.4511 13.798C62.4511 13.5403 62.4082 13.3371 62.3217 13.1876C62.2352 13.0382 62.1078 12.9632 61.939 12.9632C61.8694 12.9632 61.8082 12.9724 61.7554 12.9908C61.7026 13.0092 61.6464 13.029 61.588 13.0503V14.5564C61.6471 14.5848 61.6949 14.6074 61.7315 14.6251C61.7681 14.6428 61.8222 14.6513 61.8933 14.6513C62.067 14.6513 62.2042 14.5791 62.3034 14.4346C62.4012 14.2902 62.4511 14.0785 62.4511 13.798Z" fill="#545454"/>
<path d="M64.5685 14.9971C64.2111 14.9971 63.9333 14.8959 63.7356 14.6926C63.5379 14.4894 63.4394 14.2019 63.4394 13.828C63.4394 13.4598 63.5351 13.1673 63.7264 12.9492C63.9178 12.7319 64.1682 12.6228 64.4778 12.6228C64.617 12.6228 64.7402 12.6433 64.8471 12.6837C64.954 12.7241 65.0483 12.7878 65.1285 12.8735C65.2087 12.9599 65.2706 13.0654 65.3135 13.19C65.3564 13.3146 65.3775 13.4676 65.3775 13.6482V13.8542H63.8228C63.8228 14.1169 63.8882 14.318 64.0198 14.4568C64.1513 14.5956 64.3328 14.665 64.5643 14.665C64.6473 14.665 64.7289 14.6558 64.8084 14.6367C64.8879 14.6176 64.9603 14.5935 65.0244 14.5638C65.0926 14.5326 65.1503 14.5029 65.1974 14.4738C65.2445 14.4448 65.2832 14.4179 65.3142 14.3917H65.336V14.8059C65.2917 14.8236 65.2368 14.8456 65.1714 14.8718C65.106 14.898 65.0469 14.9185 64.9948 14.9334C64.9209 14.9539 64.8541 14.9688 64.795 14.9801C64.7352 14.9915 64.66 14.9971 64.5685 14.9971ZM65.011 13.5632C65.0082 13.4605 64.9962 13.3727 64.9751 13.2983C64.954 13.224 64.9231 13.1617 64.883 13.11C64.8386 13.0533 64.7824 13.0101 64.7134 12.9804C64.6445 12.9507 64.5594 12.9358 64.4574 12.9358C64.3568 12.9358 64.2716 12.9507 64.2013 12.9811C64.1309 13.0116 64.0669 13.0555 64.0092 13.1135C63.953 13.173 63.9101 13.2389 63.8805 13.3104C63.851 13.3826 63.832 13.4662 63.8242 13.5625H65.011V13.5632Z" fill="#545454"/>
<path d="M67.9999 13.7556C67.9999 14.1316 67.9105 14.4311 67.7318 14.6542C67.5532 14.8773 67.3274 14.9891 67.0537 14.9891C66.9426 14.9891 66.8441 14.9764 66.7583 14.9509C66.6724 14.9254 66.5845 14.8857 66.4952 14.8319V15.778H66.1174V12.6863H66.4952V12.9228C66.5887 12.8379 66.6928 12.7671 66.8075 12.7097C66.9222 12.6523 67.0467 12.624 67.1824 12.624C67.4399 12.624 67.6404 12.7267 67.7839 12.9313C67.9281 13.1353 67.9999 13.41 67.9999 13.7556ZM67.6101 13.7981C67.6101 13.5403 67.5693 13.3406 67.4877 13.1983C67.4061 13.056 67.2732 12.9852 67.0903 12.9852C66.9834 12.9852 66.88 13.0092 66.7801 13.0567C66.6802 13.1048 66.5852 13.1664 66.4959 13.2415V14.5218C66.5951 14.5706 66.6795 14.6032 66.7498 14.6209C66.8202 14.6386 66.9011 14.6471 66.9918 14.6471C67.1874 14.6471 67.3393 14.5749 67.4476 14.4304C67.556 14.2867 67.6101 14.0757 67.6101 13.7981Z" fill="#545454"/>
<path d="M69.7242 14.9971C69.3669 14.9971 69.089 14.8959 68.8913 14.6926C68.6936 14.4894 68.5952 14.2019 68.5952 13.828C68.5952 13.4598 68.6908 13.1673 68.8822 12.9492C69.0735 12.7319 69.3239 12.6228 69.6335 12.6228C69.7727 12.6228 69.8959 12.6433 70.0028 12.6837C70.1097 12.7241 70.204 12.7878 70.2842 12.8735C70.3644 12.9599 70.4263 13.0654 70.4692 13.19C70.5121 13.3146 70.5332 13.4676 70.5332 13.6482V13.8542H68.9785C68.9785 14.1169 69.044 14.318 69.1755 14.4568C69.3071 14.5956 69.4886 14.665 69.72 14.665C69.803 14.665 69.8846 14.6558 69.9641 14.6367C70.0436 14.6176 70.116 14.5935 70.18 14.5638C70.2483 14.5326 70.306 14.5029 70.3531 14.4738C70.4002 14.4448 70.4389 14.4179 70.4699 14.3917H70.4917V14.8059C70.4474 14.8236 70.3925 14.8456 70.3271 14.8718C70.2616 14.898 70.2026 14.9185 70.1505 14.9334C70.0766 14.9539 70.0098 14.9688 69.9507 14.9801C69.8902 14.9915 69.815 14.9971 69.7242 14.9971ZM70.166 13.5632C70.1632 13.4605 70.1512 13.3727 70.1301 13.2983C70.109 13.224 70.078 13.1617 70.0379 13.11C69.9936 13.0533 69.9374 13.0101 69.8684 12.9804C69.7995 12.9507 69.7144 12.9358 69.6124 12.9358C69.5118 12.9358 69.4266 12.9507 69.3563 12.9811C69.286 13.0116 69.2219 13.0555 69.1643 13.1135C69.108 13.173 69.0651 13.2389 69.0355 13.3104C69.006 13.3826 68.987 13.4662 68.9792 13.5625H70.166V13.5632Z" fill="#545454"/>
<path d="M74.7631 13.816C74.7631 14.1962 74.6723 14.4894 74.4901 14.6969C74.3079 14.9044 74.0652 15.007 73.7627 15.007C73.4504 15.007 73.2056 14.9001 73.0262 14.6863C72.8475 14.4724 72.7582 14.1828 72.7582 13.816C72.7582 13.4386 72.8503 13.1454 73.0346 12.9365C73.2189 12.7276 73.4616 12.6228 73.7627 12.6228C74.0652 12.6228 74.3079 12.7269 74.4901 12.9351C74.6723 13.1433 74.7631 13.4371 74.7631 13.816ZM74.3733 13.816C74.3733 13.5235 74.3206 13.3061 74.2143 13.1638C74.1088 13.0215 73.9576 12.9507 73.7627 12.9507C73.5658 12.9507 73.4138 13.0215 73.3076 13.1638C73.2014 13.3061 73.1479 13.5235 73.1479 13.816C73.1479 14.0992 73.2014 14.3138 73.3076 14.4604C73.4138 14.607 73.5658 14.6799 73.7627 14.6799C73.9569 14.6799 74.1074 14.6084 74.2136 14.4646C74.3199 14.3209 74.3733 14.1049 74.3733 13.816Z" fill="#545454"/>
<path d="M77.1 13.0193C77.1873 13.1085 77.2548 13.2211 77.3026 13.3577C77.3512 13.4944 77.3751 13.653 77.3751 13.8343C77.3751 14.0085 77.3477 14.1692 77.2928 14.3165C77.2379 14.4638 77.1633 14.5885 77.0698 14.6897C76.9734 14.7945 76.8665 14.8738 76.7497 14.9276C76.6329 14.9815 76.5049 15.0077 76.367 15.0077C76.2263 15.0077 76.0976 14.9829 75.9801 14.934C75.8626 14.8852 75.7627 14.8087 75.6797 14.7067C75.5763 14.5785 75.4989 14.4185 75.4476 14.2252C75.3962 14.0326 75.3702 13.7939 75.3702 13.5093C75.3702 13.408 75.3744 13.3053 75.3836 13.2012C75.392 13.0964 75.4117 12.9718 75.4406 12.8259C75.4673 12.6964 75.5032 12.576 75.5489 12.4648C75.5946 12.3536 75.6537 12.2595 75.7276 12.183C75.8225 12.0831 75.9471 12.0038 76.1004 11.9443C76.2538 11.8849 76.4571 11.8438 76.7103 11.8211C76.8004 11.8133 76.896 11.8055 76.9987 11.7978C77.1014 11.7907 77.1795 11.7843 77.233 11.7808V12.1306C77.1633 12.1348 77.0888 12.1398 77.01 12.1454C76.9312 12.1518 76.8405 12.1589 76.7384 12.1667C76.6034 12.1773 76.462 12.2014 76.3143 12.2382C76.1672 12.275 76.0561 12.3331 75.9808 12.411C75.9245 12.4691 75.8795 12.5519 75.8465 12.6595C75.8127 12.7672 75.7895 12.8876 75.7761 13.0193C75.8753 12.9477 75.9815 12.8876 76.0948 12.838C76.208 12.7891 76.3304 12.7643 76.4613 12.7643C76.583 12.7643 76.6991 12.7849 76.8088 12.8259C76.9185 12.8677 77.0156 12.9315 77.1 13.0193ZM76.9917 13.8563C76.9917 13.6162 76.9382 13.4321 76.8306 13.3039C76.7237 13.1758 76.571 13.112 76.3727 13.112C76.2643 13.112 76.1588 13.1304 76.0575 13.1666C75.9555 13.2027 75.8598 13.2515 75.7705 13.3124C75.7677 13.3464 75.7649 13.3861 75.7627 13.4328C75.7606 13.4795 75.7585 13.5213 75.7585 13.5588C75.7585 13.7932 75.7775 13.9844 75.8148 14.131C75.8521 14.2783 75.9048 14.393 75.9717 14.4766C76.0322 14.5523 76.0955 14.604 76.1623 14.6331C76.2291 14.6621 76.3023 14.6763 76.3811 14.6763C76.5738 14.6763 76.7237 14.6026 76.8313 14.456C76.9375 14.3102 76.9917 14.1098 76.9917 13.8563Z" fill="#545454"/>
<path d="M80.0109 13.7556C80.0109 14.1316 79.9216 14.4311 79.7429 14.6542C79.5642 14.8773 79.3384 14.9891 79.0648 14.9891C78.9536 14.9891 78.8551 14.9764 78.7693 14.9509C78.6835 14.9254 78.5956 14.8857 78.5062 14.8319V15.778H78.1284V12.6863H78.5062V12.9228C78.5998 12.8379 78.7039 12.7671 78.8186 12.7097C78.9332 12.6523 79.0577 12.624 79.1935 12.624C79.451 12.624 79.6515 12.7267 79.795 12.9313C79.9392 13.1353 80.0109 13.41 80.0109 13.7556ZM79.6212 13.7981C79.6212 13.5403 79.5804 13.3406 79.4988 13.1983C79.4172 13.056 79.2842 12.9852 79.1013 12.9852C78.9944 12.9852 78.891 13.0092 78.7911 13.0567C78.6912 13.1048 78.5963 13.1664 78.5069 13.2415V14.5218C78.6061 14.5706 78.6905 14.6032 78.7609 14.6209C78.8312 14.6386 78.9121 14.6471 79.0029 14.6471C79.1984 14.6471 79.3504 14.5749 79.4587 14.4304C79.567 14.2867 79.6212 14.0757 79.6212 13.7981Z" fill="#545454"/>
<path d="M82.0145 14.7038C81.9835 14.7265 81.9427 14.7591 81.8906 14.8001C81.8393 14.8412 81.7893 14.8738 81.7408 14.8986C81.674 14.934 81.6093 14.9609 81.5466 14.9793C81.4847 14.9984 81.3968 15.0076 81.2843 15.0076C81.1921 15.0076 81.1042 14.9899 81.0212 14.9552C80.9381 14.9205 80.865 14.871 80.8024 14.8079C80.7419 14.7456 80.694 14.6691 80.6575 14.5785C80.6216 14.4872 80.6033 14.3916 80.6033 14.2903C80.6033 14.1338 80.6364 14.0007 80.7018 13.8909C80.7672 13.7812 80.8713 13.6941 81.0134 13.6289C81.1393 13.5708 81.2878 13.5305 81.4594 13.5085C81.6311 13.4866 81.8154 13.4696 82.0137 13.459V13.386C82.0137 13.2968 82.0004 13.2253 81.9737 13.1708C81.9469 13.1162 81.9096 13.0738 81.8611 13.0447C81.8126 13.0136 81.7542 12.993 81.6845 12.9831C81.6149 12.9732 81.5431 12.9682 81.4693 12.9682C81.382 12.9682 81.28 12.9817 81.1619 13.0079C81.0444 13.0341 80.9262 13.0723 80.808 13.1219H80.7862V12.736C80.8558 12.7154 80.9557 12.6935 81.0852 12.6694C81.2146 12.6453 81.3433 12.6333 81.4707 12.6333C81.6247 12.6333 81.7549 12.6453 81.8604 12.6694C81.9659 12.6935 82.0616 12.7374 82.1453 12.8011C82.2269 12.8634 82.2881 12.9435 82.3282 13.0419C82.3683 13.1403 82.3887 13.26 82.3887 13.4016V14.9467H82.013V14.7038H82.0145ZM82.0145 14.388V13.7613C81.9244 13.7691 81.8112 13.7805 81.674 13.7946C81.5368 13.8088 81.4257 13.8286 81.3412 13.8541C81.2406 13.8853 81.1576 13.9327 81.0922 13.9964C81.0268 14.0602 80.9937 14.1501 80.9937 14.2641C80.9937 14.3937 81.0296 14.4914 81.1021 14.5573C81.1745 14.6231 81.28 14.6564 81.4193 14.6564C81.5382 14.6564 81.6465 14.6302 81.7429 14.5785C81.8393 14.5275 81.93 14.4638 82.0145 14.388Z" fill="#545454"/>
<path d="M86.1572 15.4864H85.8054V14.9447H83.2786V12.6858H83.6564V14.6232H84.4175V12.6858H84.7953V14.6232H85.5564V12.6858H85.9342V14.6232H86.1572V15.4864Z" fill="#545454"/>
<path d="M87.8608 14.9971C87.5034 14.9971 87.2255 14.8959 87.0279 14.6926C86.8302 14.4894 86.7317 14.2019 86.7317 13.828C86.7317 13.4598 86.8274 13.1673 87.0187 12.9492C87.2101 12.7319 87.4605 12.6228 87.77 12.6228C87.9093 12.6228 88.0324 12.6433 88.1394 12.6837C88.2463 12.7241 88.3405 12.7878 88.4207 12.8735C88.5009 12.9599 88.5628 13.0654 88.6058 13.19C88.6487 13.3146 88.6698 13.4676 88.6698 13.6482V13.8542H87.1151C87.1151 14.1169 87.1805 14.318 87.3121 14.4568C87.4436 14.5956 87.6251 14.665 87.8566 14.665C87.9396 14.665 88.0212 14.6558 88.1007 14.6367C88.1802 14.6176 88.2526 14.5935 88.3166 14.5638C88.3849 14.5326 88.4425 14.5029 88.4897 14.4738C88.5368 14.4448 88.5755 14.4179 88.6064 14.3917H88.6283V14.8059C88.5839 14.8236 88.5291 14.8456 88.4637 14.8718C88.3982 14.898 88.3391 14.9185 88.2871 14.9334C88.2132 14.9539 88.1464 14.9688 88.0873 14.9801C88.0268 14.9915 87.9515 14.9971 87.8608 14.9971ZM88.3026 13.5632C88.2997 13.4605 88.2878 13.3727 88.2667 13.2983C88.2456 13.224 88.2146 13.1617 88.1745 13.11C88.1302 13.0533 88.0739 13.0101 88.005 12.9804C87.9361 12.9507 87.8509 12.9358 87.7489 12.9358C87.6483 12.9358 87.5632 12.9507 87.4929 12.9811C87.4225 13.0116 87.3585 13.0555 87.3008 13.1135C87.2445 13.173 87.2016 13.2389 87.1721 13.3104C87.1425 13.3826 87.1235 13.4662 87.1158 13.5625H88.3026V13.5632Z" fill="#545454"/>
<path d="M91.1814 14.9447H90.8036V13.9278H89.7871V14.9447H89.4094V12.6858H89.7871V13.6H90.8036V12.6858H91.1814V14.9447Z" fill="#545454"/>
<path d="M93.8557 14.9447H93.4822V13.2601L92.4256 14.9447H92.0837V12.6858H92.4572V14.3442L93.5019 12.6858H93.8557V14.9447Z" fill="#545454"/>
<path d="M96.3856 14.9447H96.0078V14.0489H95.6343L94.9695 14.9447H94.5298L95.2509 14.0142C95.0645 13.959 94.9287 13.8769 94.8422 13.7678C94.7556 13.6588 94.7127 13.5122 94.7127 13.3288C94.7127 13.2169 94.7373 13.1192 94.7859 13.0349C94.8351 12.9507 94.9005 12.8798 94.9835 12.8218C95.0504 12.7757 95.1348 12.7418 95.2368 12.7198C95.3388 12.6979 95.4528 12.6865 95.578 12.6865H96.3856V14.9447ZM96.0078 13.7494V12.9889H95.5977C95.5104 12.9889 95.4422 12.9938 95.3916 13.0031C95.3416 13.0123 95.2931 13.0307 95.2459 13.0576C95.1974 13.0873 95.1608 13.1277 95.1362 13.178C95.1116 13.2282 95.0989 13.2828 95.0989 13.3408C95.0989 13.4152 95.1074 13.4754 95.1242 13.5221C95.1411 13.5688 95.1714 13.6113 95.2157 13.6503C95.2628 13.6906 95.3198 13.7175 95.3873 13.7303C95.4549 13.743 95.5287 13.7494 95.6096 13.7494H96.0078Z" fill="#545454"/>
<path d="M99.8255 14.9951C99.6714 14.9951 99.53 14.9711 99.4013 14.9236C99.2725 14.8755 99.1621 14.8032 99.07 14.7062C98.9778 14.6092 98.906 14.4867 98.8547 14.3394C98.8033 14.1921 98.7787 14.0179 98.7787 13.819C98.7787 13.6207 98.8054 13.4493 98.8582 13.3056C98.911 13.1611 98.982 13.04 99.07 12.9416C99.1586 12.8432 99.2683 12.7674 99.4006 12.7143C99.5328 12.6612 99.6742 12.6343 99.8255 12.6343C99.9486 12.6343 100.067 12.652 100.182 12.6867C100.297 12.7221 100.399 12.7624 100.488 12.8078V13.2348H100.466C100.44 13.2121 100.405 13.1859 100.363 13.1562C100.321 13.1264 100.269 13.096 100.21 13.0648C100.158 13.0379 100.096 13.0145 100.025 12.994C99.9535 12.9735 99.8853 12.9636 99.8198 12.9636C99.6243 12.9636 99.4674 13.0379 99.3485 13.1873C99.2303 13.336 99.1705 13.547 99.1705 13.819C99.1705 14.0859 99.2275 14.2941 99.3422 14.4428C99.4569 14.5915 99.6158 14.6666 99.8191 14.6666C99.9422 14.6666 100.06 14.6411 100.171 14.5901C100.282 14.5391 100.381 14.4726 100.466 14.3918H100.488V14.8188C100.451 14.8365 100.404 14.8578 100.347 14.8826C100.291 14.9073 100.241 14.9257 100.195 14.9385C100.131 14.9576 100.073 14.9718 100.022 14.9817C99.9711 14.9902 99.9057 14.9951 99.8255 14.9951Z" fill="#545454"/>
<path d="M104.679 13.816C104.679 14.1962 104.589 14.4894 104.406 14.6969C104.224 14.9044 103.982 15.007 103.679 15.007C103.367 15.007 103.122 14.9001 102.942 14.6863C102.764 14.4724 102.674 14.1828 102.674 13.816C102.674 13.4386 102.767 13.1454 102.951 12.9365C103.135 12.7276 103.378 12.6228 103.679 12.6228C103.982 12.6228 104.224 12.7269 104.406 12.9351C104.589 13.1433 104.679 13.4371 104.679 13.816ZM104.29 13.816C104.29 13.5235 104.237 13.3061 104.131 13.1638C104.025 13.0215 103.874 12.9507 103.679 12.9507C103.482 12.9507 103.33 13.0215 103.224 13.1638C103.118 13.3061 103.064 13.5235 103.064 13.816C103.064 14.0992 103.118 14.3138 103.224 14.4604C103.33 14.607 103.482 14.6799 103.679 14.6799C103.873 14.6799 104.024 14.6084 104.13 14.4646C104.236 14.3209 104.29 14.1049 104.29 13.816Z" fill="#545454"/>
<path d="M107.064 13.0193H106.301V14.9447H105.923V13.0193H105.16V12.6858H107.064V13.0193Z" fill="#545454"/>
<path d="M109.447 14.9447H108.982L108.438 14.0914L107.877 14.9447H107.45L108.229 13.8244L107.457 12.6858H107.922L108.462 13.5313L109.016 12.6858H109.446L108.671 13.7982L109.447 14.9447Z" fill="#545454"/>
<path d="M111.945 13.816C111.945 14.1962 111.854 14.4894 111.672 14.6969C111.49 14.9044 111.247 15.007 110.944 15.007C110.632 15.007 110.387 14.9001 110.208 14.6863C110.029 14.4724 109.94 14.1828 109.94 13.816C109.94 13.4386 110.032 13.1454 110.216 12.9365C110.401 12.7276 110.643 12.6228 110.944 12.6228C111.247 12.6228 111.49 12.7269 111.672 12.9351C111.854 13.1433 111.945 13.4371 111.945 13.816ZM111.555 13.816C111.555 13.5235 111.502 13.3061 111.396 13.1638C111.291 13.0215 111.139 12.9507 110.944 12.9507C110.748 12.9507 110.596 13.0215 110.489 13.1638C110.383 13.3061 110.33 13.5235 110.33 13.816C110.33 14.0992 110.383 14.3138 110.489 14.4604C110.596 14.607 110.748 14.6799 110.944 14.6799C111.139 14.6799 111.289 14.6084 111.395 14.4646C111.502 14.3209 111.555 14.1049 111.555 13.816Z" fill="#545454"/>
<path d="M114.614 15.4864H114.263V14.9383H112.784V15.4864H112.432V14.6211H112.581C112.708 14.4108 112.812 14.136 112.893 13.7968C112.974 13.4576 113.015 13.0873 113.015 12.6858H114.391V14.6211H114.614V15.4864H114.614ZM114.014 14.6211V13.0052H113.371C113.353 13.3422 113.307 13.6495 113.233 13.9285C113.158 14.2075 113.065 14.4377 112.953 14.6211H114.014Z" fill="#545454"/>
<path d="M116.598 14.7038C116.567 14.7265 116.526 14.7591 116.474 14.8001C116.422 14.8412 116.373 14.8738 116.324 14.8986C116.257 14.934 116.192 14.9609 116.13 14.9793C116.068 14.9984 115.98 15.0076 115.867 15.0076C115.775 15.0076 115.687 14.9899 115.604 14.9552C115.521 14.9205 115.448 14.871 115.386 14.8079C115.325 14.7456 115.277 14.6691 115.241 14.5785C115.205 14.4872 115.186 14.3916 115.186 14.2903C115.186 14.1338 115.22 14.0007 115.285 13.8909C115.35 13.7812 115.455 13.6941 115.597 13.6289C115.723 13.5708 115.871 13.5305 116.043 13.5085C116.214 13.4866 116.399 13.4696 116.597 13.459V13.386C116.597 13.2968 116.584 13.2253 116.557 13.1708C116.53 13.1162 116.493 13.0738 116.444 13.0447C116.396 13.0136 116.337 12.993 116.268 12.9831C116.198 12.9732 116.126 12.9682 116.052 12.9682C115.965 12.9682 115.863 12.9817 115.745 13.0079C115.628 13.0341 115.509 13.0723 115.391 13.1219H115.369V12.736C115.439 12.7154 115.539 12.6935 115.668 12.6694C115.798 12.6453 115.927 12.6333 116.054 12.6333C116.208 12.6333 116.338 12.6453 116.444 12.6694C116.549 12.6935 116.645 12.7374 116.728 12.8011C116.81 12.8634 116.871 12.9435 116.911 13.0419C116.951 13.1403 116.972 13.26 116.972 13.4016V14.9467H116.596V14.7038H116.598ZM116.598 14.388V13.7613C116.508 13.7691 116.394 13.7805 116.257 13.7946C116.12 13.8088 116.009 13.8286 115.924 13.8541C115.824 13.8853 115.741 13.9327 115.675 13.9964C115.61 14.0602 115.577 14.1501 115.577 14.2641C115.577 14.3937 115.613 14.4914 115.685 14.5573C115.758 14.6231 115.863 14.6564 116.003 14.6564C116.121 14.6564 116.23 14.6302 116.326 14.5785C116.423 14.5275 116.513 14.4638 116.598 14.388Z" fill="#545454"/>
<path d="M119.943 14.9447H119.57V13.1694L119.032 14.3223H118.75L118.216 13.1694V14.9447H117.862V12.6858H118.318L118.909 13.9399L119.479 12.6858H119.943V14.9447Z" fill="#545454"/>
<path d="M122.675 14.9444H122.301V13.2598L121.245 14.9444H120.904V12.6855H121.277V14.344L122.322 12.6855H122.676V14.9444H122.675Z" fill="#545454"/>
</g>
<defs>
<radialGradient id="paint0_radial" cx="0" cy="0" r="1" gradientUnits="userSpaceOnUse" gradientTransform="translate(23.53 -2.58964) scale(49.5853 62.2552)">
<stop stop-color="#649A20"/>
<stop offset="1" stop-color="#A8DC88"/>
</radialGradient>
<clipPath id="clip0">
<rect width="124" height="57" fill="white"/>
</clipPath>
</defs>
</svg>
